<?xml version="1.0" encoding="utf-8"?>
<!-- Generator: Adobe Illustrator 27.5.0, SVG Export Plug-In . SVG Version: 6.00 Build 0)  -->
<svg version="1.1" id="layer" xmlns="http://www.w3.org/2000/svg" xmlns:xlink="http://www.w3.org/1999/xlink" x="0px" y="0px"
	 viewBox="0 0 600 170.4" style="enable-background:new 0 0 600 170.4;" xml:space="preserve">
<style type="text/css">
	.st0{fill:#17313B;}
	.st1{fill:#EF4335;}
</style>
<g>
	<path class="st0" d="M156,0h27.6v170.4H156V0z"/>
	<path class="st0" d="M279.6,116.4c0,26.4-21.6,28.8-28.8,28.8c-16.8,0-19.2-15.6-19.2-24v-66H204V120c0,15.6,4.8,30,14.4,38.4
		c8.4,8.4,19.2,12,32.4,12c9.6,0,21.6-2.4,28.8-9.6v9.6h27.6V55.2h-27.6C279.6,55.2,279.6,116.4,279.6,116.4z"/>
	<path class="st0" d="M361.2,13.2h-27.6v42h-20.4v26.4h20.4v88.8h27.6V81.6h20.4V55.2h-20.4V13.2z"/>
	<path class="st0" d="M468,135.6c-6,4.8-14.4,8.4-22.8,8.4c-19.2,0-32.4-14.4-32.4-33.6S426,78,445.2,78c8.4,0,16.8,2.4,22.8,8.4
		l3.6,3.6l19.2-18l-4.8-3.6c-10.8-9.6-25.2-15.6-40.8-15.6c-33.6,0-58.8,25.2-58.8,58.8s25.2,58.8,58.8,58.8c15.6,0,30-6,40.8-15.6
		l4.8-3.6L471.6,132L468,135.6z"/>
	<path class="st0" d="M588,64.8c-8.4-8.4-16.8-12-30-12c-9.6,0-19.2,2.4-26.4,9.6V0H504v170.4h27.6v-63.6c0-26.4,18-28.8,25.2-28.8
		c16.8,0,15.6,15.6,15.6,24v68.4H600v-67.2C600,87.6,596.4,73.2,588,64.8z"/>
	<circle class="st1" cx="444" cy="111.6" r="19.2"/>
	<path class="st0" d="M117.6,128.4C108,138,93.6,144,78,144c-30,0-51.6-24-51.6-56.4S48,31.2,79.2,31.2c14.4,0,28.8,6,39.6,16.8
		l3.6,3.6l18-18l-3.6-3.6c-15.6-15.6-36-24-57.6-24C33.6,4.8,0,40.8,0,87.6s33.6,82.8,78,82.8c21.6,0,43.2-8.4,57.6-24l3.6-3.6
		l-18-18L117.6,128.4z"/>
</g>
</svg>
