<?xml version="1.0" encoding="utf-8"?>
<!-- Generator: Adobe Illustrator 27.5.0, SVG Export Plug-In . SVG Version: 6.00 Build 0)  -->
<svg version="1.1" id="Logo" xmlns="http://www.w3.org/2000/svg" xmlns:xlink="http://www.w3.org/1999/xlink" x="0px" y="0px"
	 viewBox="0 0 184.16 85.47" style="enable-background:new 0 0 184.16 85.47;" xml:space="preserve">
<style type="text/css">
	.st0{fill:#525D7D;}
</style>
<g id="XMLID_00000039815734106580238400000001049554279878371223_">
	<path id="XMLID_00000137825059250908239850000006520821279063915146_" class="st0" d="M141.47,0.1h-10.58
		c-4.36,0.6-7.73,4.33-7.73,8.86c0,4.26,2.97,7.81,6.96,8.72h11.36c13.78,0,25.11,11.33,25.11,25.11
		c0,13.78-11.34,25.11-25.11,25.11h-11.12v-0.06h-18.98l-8.38-14.02c9.51-4.56,16.13-14.29,16.13-25.5
		c0-15.54-12.71-28.25-28.25-28.25H61.01V0H42.69C19.21,0,0,19.21,0,42.68c0,23.48,19.21,42.68,42.69,42.68H59.5v0h1.54
		c4.14-0.77,7.28-4.4,7.28-8.76c0-4.5-3.34-8.22-7.68-8.82H59.5v0.01H42.69c-13.78,0-25.11-11.34-25.11-25.11
		c0-13.78,11.33-25.11,25.11-25.11h18.19v0.06h29.98c5.84,0,10.68,4.84,10.68,10.68S96.7,38.99,90.86,38.99h-22.3
		c-4.26,0.66-7.53,4.33-7.53,8.78c0,4.5,3.35,8.21,7.68,8.8h15.45l17.26,28.87h20.48l-0.01-0.02h1.27v0.05h18.33
		c23.48,0,42.69-19.21,42.69-42.68C184.16,19.3,164.95,0.1,141.47,0.1z"/>
</g>
</svg>
