<?xml version="1.0" encoding="utf-8"?>
<!-- Generator: Adobe Illustrator 27.5.0, SVG Export Plug-In . SVG Version: 6.00 Build 0)  -->
<svg version="1.1" id="Logo" xmlns="http://www.w3.org/2000/svg" xmlns:xlink="http://www.w3.org/1999/xlink" x="0px" y="0px"
	 viewBox="0 0 687.23 442.94" style="enable-background:new 0 0 687.23 442.94;" xml:space="preserve">
<style type="text/css">
	.st0{fill:#FF4E00;}
	.st1{fill:#1D1D1B;}
</style>
<g id="XMLID_00000081620359913901238240000012403255919465596813_">
	<path id="XMLID_00000016039146428169538130000008969797263615093892_" class="st0" d="M527.94,0.36h-39.49
		C472.16,2.58,459.6,16.51,459.6,33.4c0,15.88,11.1,29.15,25.96,32.53h42.38c51.41,0,93.71,42.3,93.71,93.71
		c0,51.41-42.3,93.71-93.71,93.71h-41.51v-0.23H415.6l-31.29-52.32c35.5-17.01,60.17-53.34,60.17-95.15
		c0-57.98-47.44-105.42-105.43-105.42H227.68V0h-68.39C71.68,0,0,71.67,0,159.29c0,87.61,71.68,159.29,159.29,159.29h62.74v0h5.76
		c15.45-2.87,27.16-16.4,27.16-32.69c0-16.81-12.48-30.67-28.67-32.92h-4.25V253h-62.74c-51.42,0-93.71-42.3-93.71-93.71
		c0-51.41,42.3-93.71,93.71-93.71h67.87v0.23h111.89c21.79,0,39.85,18.06,39.85,39.84s-18.06,39.84-39.85,39.84h-83.23
		c-15.91,2.45-28.1,16.15-28.1,32.75c0,16.79,12.48,30.63,28.67,32.83h57.66l64.42,107.73h76.41l-0.04-0.07h4.72v0.19h68.39
		c87.61,0,159.29-71.68,159.29-159.29C687.23,72.03,615.55,0.36,527.94,0.36z"/>
	<g id="XMLID_00000122680543849186926230000007485864654512753030_">
		<path id="XMLID_00000109750422442996545460000006754178803522913936_" class="st1" d="M31.96,390.02c-2.81,0-5.19,0.64-7.1,1.92
			c-1.93,1.31-3.48,2.97-4.67,5c-1.23,2.05-2.08,4.29-2.57,6.73c-0.49,2.46-0.77,4.89-0.77,7.31c0,2.33,0.28,4.7,0.77,7.12
			c0.49,2.41,1.31,4.59,2.42,6.56c1.14,1.95,2.66,3.54,4.55,4.79c1.92,1.26,4.25,1.87,6.99,1.87c4.25,0,7.48-1.18,9.8-3.56
			c2.29-2.37,3.71-5.54,4.3-9.54h17.1c-1.19,8.57-4.51,15.09-9.99,19.59c-5.48,4.49-12.52,6.74-21.07,6.74
			c-4.83,0-9.25-0.81-13.27-2.42c-4.06-1.63-7.49-3.9-10.31-6.82c-2.83-2.89-5.03-6.37-6.63-10.41c-1.56-4.04-2.35-8.47-2.35-13.29
			c0-4.99,0.72-9.62,2.18-13.91c1.44-4.28,3.6-8,6.43-11.11c2.81-3.12,6.26-5.55,10.34-7.3c4.07-1.75,8.73-2.62,13.98-2.62
			c3.82,0,7.51,0.5,11.04,1.5c3.53,1,6.7,2.53,9.49,4.55c2.77,2.04,5.05,4.58,6.8,7.6c1.72,3.05,2.74,6.65,3,10.81H45.06
			C43.91,393.71,39.53,390.02,31.96,390.02"/>
		<path id="XMLID_00000067235174355999338950000005096895815744692104_" class="st1" d="M89.24,378.42v11.95h0.26
			c0.82-1.98,1.94-3.82,3.36-5.54c1.41-1.71,3.04-3.15,4.87-4.36c1.84-1.22,3.78-2.15,5.87-2.82c2.07-0.66,4.24-0.98,6.48-0.98
			c1.17,0,2.45,0.19,3.88,0.62v16.46c-0.82-0.17-1.83-0.31-3-0.43c-1.16-0.13-2.3-0.19-3.37-0.19c-3.23,0-5.99,0.55-8.23,1.62
			c-2.25,1.1-4.05,2.58-5.43,4.44c-1.38,1.88-2.34,4.05-2.94,6.56c-0.57,2.48-0.87,5.18-0.87,8.1v29.09H72.4v-64.52H89.24z"/>
		<path id="XMLID_00000165197915439857313850000003150101599389422230_" class="st1" d="M137.28,427.46
			c2.67,2.59,6.5,3.87,11.49,3.87c3.59,0,6.65-0.89,9.24-2.68c2.56-1.79,4.16-3.69,4.72-5.69h15.62
			c-2.51,7.75-6.34,13.27-11.47,16.6c-5.17,3.34-11.43,5-18.74,5c-5.08,0-9.66-0.81-13.72-2.43c-4.09-1.63-7.55-3.94-10.37-6.93
			c-2.82-2.99-5.01-6.57-6.56-10.73c-1.51-4.16-2.29-8.74-2.29-13.74c0-4.82,0.79-9.29,2.37-13.46c1.58-4.16,3.81-7.77,6.73-10.8
			c2.91-3.04,6.38-5.44,10.43-7.18c4.03-1.75,8.5-2.62,13.42-2.62c5.49,0,10.27,1.06,14.36,3.18c4.06,2.13,7.41,4.97,10.04,8.55
			c2.64,3.58,4.53,7.65,5.67,12.23c1.19,4.58,1.59,9.36,1.26,14.35h-46.56C133.17,420.71,134.62,424.88,137.28,427.46
			 M157.33,393.51c-2.13-2.33-5.34-3.49-9.69-3.49c-2.83,0-5.16,0.47-7.05,1.43c-1.85,0.96-3.35,2.14-4.47,3.55
			c-1.14,1.43-1.93,2.92-2.38,4.5c-0.47,1.59-0.72,2.99-0.82,4.24h28.85C160.94,399.25,159.45,395.85,157.33,393.51"/>
		<path id="XMLID_00000147899443347166389280000011767465002239442820_" class="st1" d="M191.95,387.9
			c1.82-2.74,4.15-4.95,6.98-6.63c2.82-1.65,6-2.84,9.54-3.55c3.55-0.72,7.1-1.05,10.67-1.05c3.24,0,6.53,0.24,9.86,0.68
			c3.33,0.46,6.36,1.35,9.12,2.7c2.74,1.31,4.99,3.16,6.74,5.53c1.74,2.38,2.62,5.53,2.62,9.43v33.57c0,2.91,0.16,5.7,0.51,8.36
			c0.32,2.66,0.91,4.65,1.74,6h-17.98c-0.33-1.01-0.6-2.03-0.81-3.07c-0.2-1.04-0.36-2.11-0.46-3.2c-2.81,2.92-6.13,4.98-9.96,6.12
			c-3.83,1.19-7.74,1.75-11.74,1.75c-3.07,0-5.93-0.37-8.6-1.12c-2.67-0.74-4.98-1.9-6.98-3.49c-2-1.57-3.56-3.57-4.68-5.98
			c-1.12-2.42-1.7-5.29-1.7-8.61c0-3.68,0.66-6.7,1.96-9.06c1.28-2.37,2.93-4.26,4.96-5.69c2.05-1.41,4.39-2.47,7-3.17
			c2.63-0.71,5.26-1.27,7.91-1.69c2.68-0.41,5.29-0.76,7.87-0.99c2.57-0.26,4.86-0.63,6.85-1.13c1.99-0.5,3.58-1.24,4.74-2.2
			c1.17-0.95,1.71-2.34,1.63-4.17c0-1.92-0.32-3.44-0.93-4.57c-0.63-1.1-1.46-1.98-2.51-2.61c-1.04-0.61-2.25-1.03-3.61-1.25
			c-1.38-0.2-2.85-0.31-4.45-0.31c-3.48,0-6.24,0.75-8.22,2.24c-2.01,1.49-3.17,3.99-3.5,7.48h-17.72
			C189.07,394.11,190.11,390.64,191.95,387.9 M226.96,412.92c-1.13,0.37-2.33,0.69-3.62,0.93c-1.29,0.26-2.65,0.46-4.07,0.62
			c-1.41,0.16-2.81,0.38-4.24,0.63c-1.33,0.25-2.64,0.58-3.93,0.99c-1.29,0.42-2.41,0.97-3.37,1.68c-0.95,0.72-1.72,1.62-2.28,2.69
			c-0.59,1.08-0.9,2.45-0.9,4.11c0,1.6,0.31,2.92,0.9,4c0.56,1.08,1.36,1.94,2.34,2.56c1,0.62,2.17,1.06,3.51,1.32
			c1.34,0.26,2.7,0.37,4.12,0.37c3.5,0,6.2-0.58,8.11-1.74c1.93-1.18,3.31-2.58,4.22-4.18c0.93-1.63,1.49-3.28,1.7-4.94
			c0.22-1.67,0.32-3,0.32-4v-6.62C229.01,412.02,228.08,412.55,226.96,412.92"/>
		<path id="XMLID_00000042726889462421751550000005382651038751341997_" class="st1" d="M296.27,378.42v11.85h-12.99v31.94
			c0,3,0.5,4.99,1.51,5.98c1,1,3,1.51,5.98,1.51c1.01,0,1.95-0.04,2.86-0.14c0.92-0.08,1.79-0.2,2.63-0.37v13.74
			c-1.49,0.23-3.18,0.41-5,0.48c-1.82,0.08-3.62,0.13-5.37,0.13c-2.73,0-5.33-0.19-7.78-0.56c-2.46-0.38-4.63-1.1-6.48-2.18
			c-1.89-1.08-3.35-2.63-4.45-4.62c-1.07-1.99-1.62-4.63-1.62-7.87v-38.05h-10.74v-11.85h10.74v-19.36h17.71v19.36H296.27z"/>
		<path id="XMLID_00000040556546751767081180000013887509405283879581_" class="st1" d="M304.88,353.84h17.71v14.59h-17.71V353.84z
			 M322.61,442.94H304.9v-64.52h17.71V442.94z"/>
		<polygon id="XMLID_00000033339293045486277290000011485152885788951176_" class="st1" points="352.17,442.95 330.08,378.43 
			348.69,378.43 362.28,422.47 362.54,422.47 376.14,378.43 393.73,378.43 371.89,442.95 		"/>
		<path id="XMLID_00000173156447984155423470000003731053514896317355_" class="st1" d="M401.09,396.7
			c1.58-4.2,3.84-7.79,6.74-10.73c2.91-2.96,6.41-5.25,10.48-6.87c4.08-1.62,8.66-2.42,13.75-2.42c5.05,0,9.64,0.81,13.77,2.42
			c4.13,1.63,7.64,3.92,10.55,6.87c2.88,2.93,5.14,6.52,6.73,10.73c1.59,4.21,2.37,8.89,2.37,14.03c0,5.16-0.79,9.83-2.37,13.98
			c-1.58,4.18-3.84,7.72-6.73,10.69c-2.91,2.96-6.42,5.23-10.55,6.79c-4.13,1.59-8.72,2.37-13.77,2.37c-5.09,0-9.67-0.78-13.75-2.37
			c-4.07-1.55-7.57-3.83-10.48-6.79c-2.89-2.97-5.15-6.5-6.74-10.69c-1.57-4.15-2.38-8.81-2.38-13.98
			C398.71,405.58,399.52,400.91,401.09,396.7 M417.2,418.29c0.5,2.44,1.35,4.66,2.56,6.61c1.19,1.96,2.8,3.52,4.81,4.68
			c2,1.17,4.5,1.74,7.51,1.74c2.98,0,5.48-0.57,7.52-1.74c2.06-1.17,3.67-2.72,4.89-4.68c1.2-1.94,2.06-4.16,2.55-6.61
			c0.51-2.46,0.75-4.98,0.75-7.57c0-2.57-0.24-5.1-0.75-7.6c-0.49-2.5-1.35-4.7-2.55-6.62c-1.22-1.91-2.83-3.47-4.89-4.68
			c-2.03-1.21-4.54-1.81-7.52-1.81c-3.01,0-5.5,0.6-7.51,1.81c-2,1.22-3.62,2.77-4.81,4.68c-1.21,1.91-2.06,4.12-2.56,6.62
			c-0.5,2.5-0.76,5.03-0.76,7.6C416.44,413.31,416.69,415.83,417.2,418.29"/>
		<path id="XMLID_00000147196694065611319280000004767496184481993872_" class="st1" d="M491.5,426.9c0.81,1.36,1.83,2.49,3.07,3.36
			c1.25,0.87,2.68,1.51,4.3,1.93c1.64,0.42,3.3,0.63,5.05,0.63c1.26,0,2.56-0.16,3.94-0.44c1.37-0.3,2.6-0.75,3.74-1.38
			c1.1-0.62,2.07-1.44,2.79-2.5c0.76-1.04,1.16-2.34,1.16-3.94c0-2.66-1.79-4.66-5.32-5.98c-3.55-1.33-8.47-2.67-14.8-4
			c-2.58-0.57-5.09-1.27-7.56-2.06c-2.45-0.79-4.64-1.83-6.54-3.12c-1.92-1.29-3.46-2.91-4.6-4.88c-1.19-1.94-1.77-4.34-1.77-7.17
			c0-4.16,0.81-7.56,2.45-10.23c1.62-2.67,3.75-4.77,6.41-6.31c2.67-1.53,5.66-2.63,8.99-3.24c3.33-0.62,6.74-0.94,10.23-0.94
			c3.5,0,6.88,0.34,10.17,0.99c3.26,0.67,6.22,1.8,8.79,3.37c2.58,1.58,4.7,3.69,6.42,6.31c1.71,2.61,2.72,5.92,3.08,9.92h-16.86
			c-0.27-3.42-1.55-5.73-3.86-6.94c-2.33-1.2-5.07-1.79-8.24-1.79c-1.01,0-2.09,0.05-3.23,0.17c-1.2,0.12-2.25,0.41-3.19,0.82
			c-0.96,0.42-1.78,1.02-2.45,1.81c-0.67,0.78-0.97,1.85-0.97,3.19c0,1.58,0.59,2.86,1.74,3.85c1.15,1,2.68,1.83,4.54,2.43
			c1.89,0.62,4.03,1.19,6.43,1.69c2.42,0.5,4.89,1.04,7.37,1.63c2.57,0.58,5.1,1.3,7.54,2.13c2.46,0.83,4.64,1.94,6.56,3.3
			c1.9,1.38,3.46,3.08,4.63,5.11c1.15,2.03,1.73,4.57,1.73,7.56c0,4.23-0.85,7.79-2.55,10.66c-1.71,2.86-3.95,5.18-6.69,6.93
			c-2.75,1.74-5.88,2.97-9.42,3.68c-3.55,0.72-7.14,1.05-10.79,1.05c-3.74,0-7.41-0.37-10.99-1.12c-3.58-0.74-6.76-1.99-9.55-3.72
			c-2.79-1.77-5.05-4.08-6.87-6.94c-1.77-2.87-2.76-6.48-2.93-10.8h16.88C490.34,423.89,490.72,425.53,491.5,426.9"/>
		<path id="XMLID_00000102503625253724536920000012695603227461625248_" class="st1" d="M594.4,378.42v11.95h0.25
			c0.82-1.98,1.96-3.82,3.37-5.54c1.42-1.71,3.03-3.15,4.87-4.36c1.83-1.22,3.76-2.15,5.85-2.82c2.09-0.66,4.24-0.98,6.51-0.98
			c1.15,0,2.43,0.19,3.87,0.62v16.46c-0.84-0.17-1.84-0.31-2.99-0.43c-1.19-0.13-2.32-0.19-3.37-0.19c-3.24,0-5.99,0.55-8.25,1.62
			c-2.23,1.1-4.05,2.58-5.42,4.44c-1.38,1.88-2.34,4.05-2.94,6.56c-0.58,2.48-0.86,5.18-0.86,8.1v29.09h-17.72v-64.52H594.4z"/>
		<path id="XMLID_00000019643514543429321200000010555474511507165856_" class="st1" d="M669.25,434.69
			c-2.07,3.5-4.79,6.02-8.15,7.57c-3.38,1.53-7.2,2.3-11.43,2.3c-4.82,0-9.06-0.93-12.72-2.81c-3.66-1.86-6.67-4.42-9.06-7.61
			c-2.37-3.2-4.15-6.88-5.35-11.04c-1.21-4.16-1.82-8.49-1.82-12.99c0-4.31,0.61-8.5,1.82-12.53c1.2-4.05,2.98-7.61,5.35-10.67
			c2.39-3.08,5.36-5.56,8.93-7.42c3.59-1.87,7.76-2.81,12.49-2.81c3.81,0,7.45,0.82,10.9,2.43c3.46,1.62,6.2,4.02,8.17,7.17h0.26
			v-32.43h17.74v89.1h-16.86v-8.25H669.25z M668.52,402.81c-0.49-2.46-1.35-4.63-2.55-6.49c-1.21-1.88-2.78-3.4-4.67-4.56
			c-1.93-1.17-4.36-1.74-7.24-1.74c-2.91,0-5.38,0.57-7.38,1.74c-1.98,1.17-3.59,2.73-4.8,4.63c-1.21,1.91-2.1,4.08-2.62,6.54
			c-0.55,2.45-0.81,5-0.81,7.67c0,2.5,0.29,4.99,0.86,7.5c0.59,2.49,1.53,4.71,2.83,6.67c1.27,1.96,2.9,3.55,4.85,4.75
			c1.95,1.2,4.31,1.8,7.07,1.8c2.88,0,5.32-0.58,7.29-1.75c1.94-1.16,3.51-2.71,4.68-4.67c1.16-1.95,1.99-4.19,2.49-6.68
			c0.51-2.51,0.74-5.07,0.74-7.74C669.25,407.81,669.03,405.25,668.52,402.81"/>
	</g>
</g>
</svg>
