<?xml version="1.0" encoding="utf-8"?>
<!-- Generator: Adobe Illustrator 27.5.0, SVG Export Plug-In . SVG Version: 6.00 Build 0)  -->
<svg version="1.1" id="Logo" xmlns="http://www.w3.org/2000/svg" xmlns:xlink="http://www.w3.org/1999/xlink" x="0px" y="0px"
	 viewBox="0 0 416.45 193.13" style="enable-background:new 0 0 416.45 193.13;" xml:space="preserve">
<style type="text/css">
	.st0{fill:#FF4E00;}
</style>
<path id="XMLID_00000063608920556801009210000015060493923231716532_" class="st0" d="M319.92,0.08h-23.93
	c-9.87,1.35-17.48,9.79-17.48,20.02c0,9.62,6.73,17.66,15.73,19.71h25.68c31.15,0,56.79,25.63,56.79,56.79
	c0,31.15-25.63,56.79-56.79,56.79h-25.15v-0.14h-42.93l-18.96-31.71c21.51-10.31,36.46-32.32,36.46-57.66
	C269.35,28.75,240.6,0,205.46,0h-67.49v-0.14H96.53C43.44-0.14,0,43.29,0,96.38c0,53.09,43.44,96.52,96.53,96.52h38.02v0h3.49
	c9.36-1.74,16.46-9.94,16.46-19.81c0-10.19-7.56-18.59-17.37-19.95h-2.57v0.02H96.53c-31.16,0-56.79-25.63-56.79-56.79
	c0-31.16,25.63-56.79,56.79-56.79h41.13v0.14h67.8c13.2,0,24.15,10.94,24.15,24.14s-10.94,24.14-24.15,24.14h-50.44
	c-9.64,1.48-17.03,9.79-17.03,19.84c0,10.17,7.56,18.56,17.37,19.9h34.94l39.04,65.28h46.3l-0.02-0.04h2.86v0.12h41.44
	c53.09,0,96.53-43.44,96.53-96.52C416.45,43.51,373.02,0.08,319.92,0.08z"/>
</svg>
