<?xml version="1.0" encoding="utf-8"?>
<!-- Generator: Adobe Illustrator 27.5.0, SVG Export Plug-In . SVG Version: 6.00 Build 0)  -->
<svg version="1.1" id="Logo" xmlns="http://www.w3.org/2000/svg" xmlns:xlink="http://www.w3.org/1999/xlink" x="0px" y="0px"
	 viewBox="0 0 1100.9 313.55" style="enable-background:new 0 0 1100.9 313.55;" xml:space="preserve">
<style type="text/css">
	.st0{fill:#FF4E00;}
	.st1{fill:#1D1D1B;}
	.st2{fill:#231F20;}
</style>
<g id="XMLID_00000053525701582929898880000006490019621317256584_">
	<g id="XMLID_00000052793776026352677760000003901787390585417653_">
		<path id="XMLID_00000076596874028994431270000004815429754638074026_" class="st0" d="M351.99,21.98h-23.93
			c-9.87,1.35-17.48,9.79-17.48,20.02c0,9.62,6.73,17.66,15.73,19.71h25.68c31.15,0,56.79,25.63,56.79,56.79
			c0,31.15-25.63,56.79-56.79,56.79h-25.15v-0.14h-42.93l-18.96-31.71c21.51-10.31,36.46-32.32,36.46-57.66
			c0-35.14-28.75-63.88-63.89-63.88h-67.49v-0.14H128.6c-53.09,0-96.53,43.43-96.53,96.52c0,53.09,43.44,96.52,96.53,96.52h38.02v0
			h3.49c9.36-1.74,16.46-9.94,16.46-19.81c0-10.19-7.56-18.59-17.37-19.95h-2.57v0.02H128.6c-31.16,0-56.79-25.63-56.79-56.79
			c0-31.16,25.63-56.79,56.79-56.79h41.13v0.14h67.8c13.2,0,24.15,10.94,24.15,24.14s-10.94,24.14-24.15,24.14h-50.44
			c-9.64,1.48-17.03,9.79-17.03,19.84c0,10.17,7.56,18.56,17.37,19.9h34.94l39.04,65.28h46.3l-0.02-0.04h2.86v0.12h41.44
			c53.09,0,96.53-43.44,96.53-96.52C448.52,65.42,405.08,21.98,351.99,21.98z"/>
		<g id="XMLID_00000103258087955093368940000013136184798096678021_">
			<path id="XMLID_00000159468626646417708350000011030876769956136832_" class="st1" d="M51.44,258.12c-1.7,0-3.15,0.39-4.3,1.17
				c-1.17,0.79-2.11,1.8-2.83,3.03c-0.74,1.24-1.26,2.6-1.56,4.08c-0.3,1.49-0.46,2.96-0.46,4.43c0,1.41,0.17,2.85,0.46,4.31
				c0.3,1.46,0.79,2.78,1.47,3.98c0.69,1.18,1.61,2.14,2.76,2.9c1.16,0.76,2.58,1.13,4.24,1.13c2.58,0,4.54-0.71,5.94-2.16
				c1.39-1.44,2.25-3.36,2.61-5.78h10.36c-0.72,5.19-2.73,9.15-6.05,11.87c-3.32,2.72-7.58,4.08-12.77,4.08
				c-2.92,0-5.61-0.49-8.04-1.47c-2.46-0.99-4.54-2.36-6.25-4.13c-1.72-1.75-3.05-3.86-4.02-6.31c-0.95-2.45-1.42-5.13-1.42-8.05
				c0-3.02,0.43-5.83,1.32-8.43c0.87-2.6,2.18-4.85,3.9-6.74c1.7-1.89,3.79-3.36,6.26-4.42c2.47-1.06,5.29-1.59,8.47-1.59
				c2.32,0,4.55,0.3,6.69,0.91c2.14,0.61,4.06,1.53,5.75,2.76c1.68,1.23,3.06,2.78,4.12,4.6c1.04,1.85,1.66,4.03,1.82,6.55H59.37
				C58.68,260.35,56.02,258.12,51.44,258.12"/>
			<path id="XMLID_00000067939886591610954800000003009026819983133371_" class="st1" d="M86.14,251.09v7.24h0.15
				c0.5-1.2,1.18-2.32,2.04-3.36c0.86-1.03,1.84-1.91,2.95-2.64c1.12-0.74,2.29-1.3,3.56-1.71c1.25-0.4,2.57-0.59,3.93-0.59
				c0.71,0,1.49,0.12,2.35,0.38v9.98c-0.5-0.11-1.11-0.19-1.82-0.26c-0.7-0.08-1.39-0.12-2.04-0.12c-1.96,0-3.63,0.33-4.99,0.98
				c-1.36,0.67-2.45,1.56-3.29,2.69c-0.84,1.14-1.42,2.45-1.78,3.98c-0.35,1.51-0.53,3.14-0.53,4.91v17.63H75.94v-39.1H86.14z"/>
			<path id="XMLID_00000091729251193084187680000002608954317045834919_" class="st1" d="M115.26,280.8
				c1.62,1.57,3.94,2.34,6.96,2.34c2.17,0,4.03-0.54,5.6-1.62c1.55-1.08,2.52-2.24,2.86-3.45h9.47c-1.52,4.7-3.84,8.04-6.95,10.06
				c-3.14,2.03-6.93,3.03-11.36,3.03c-3.08,0-5.86-0.49-8.32-1.47c-2.48-0.99-4.57-2.39-6.28-4.2c-1.71-1.81-3.04-3.98-3.98-6.5
				c-0.92-2.52-1.39-5.3-1.39-8.33c0-2.92,0.48-5.63,1.44-8.15c0.96-2.52,2.31-4.71,4.08-6.54c1.77-1.84,3.87-3.3,6.32-4.35
				c2.44-1.06,5.15-1.59,8.13-1.59c3.33,0,6.22,0.64,8.7,1.93c2.46,1.29,4.49,3.01,6.08,5.18c1.6,2.17,2.74,4.64,3.44,7.41
				c0.72,2.78,0.96,5.67,0.76,8.69h-28.22C112.76,276.71,113.64,279.24,115.26,280.8 M127.41,260.23c-1.29-1.41-3.23-2.11-5.87-2.11
				c-1.72,0-3.13,0.28-4.28,0.87c-1.12,0.58-2.03,1.3-2.71,2.15c-0.69,0.87-1.17,1.77-1.44,2.73c-0.28,0.97-0.43,1.81-0.5,2.57
				h17.49C129.59,263.71,128.69,261.65,127.41,260.23"/>
			<path id="XMLID_00000024680163349243194540000012296334639432485053_" class="st1" d="M148.39,256.83c1.1-1.66,2.52-3,4.23-4.02
				c1.71-1,3.64-1.72,5.78-2.15c2.15-0.43,4.3-0.64,6.47-0.64c1.96,0,3.96,0.14,5.97,0.41c2.02,0.28,3.85,0.82,5.53,1.64
				c1.66,0.79,3.02,1.91,4.08,3.35c1.05,1.44,1.59,3.35,1.59,5.71v20.34c0,1.77,0.1,3.45,0.31,5.07c0.19,1.61,0.55,2.82,1.05,3.64
				h-10.89c-0.2-0.61-0.37-1.23-0.49-1.86c-0.12-0.63-0.22-1.28-0.28-1.94c-1.7,1.77-3.72,3.02-6.04,3.71
				c-2.32,0.72-4.69,1.06-7.11,1.06c-1.86,0-3.59-0.22-5.21-0.68c-1.62-0.45-3.02-1.15-4.23-2.11c-1.21-0.95-2.16-2.16-2.84-3.62
				c-0.68-1.47-1.03-3.2-1.03-5.22c0-2.23,0.4-4.06,1.19-5.49c0.77-1.44,1.78-2.58,3.01-3.45c1.24-0.86,2.66-1.5,4.24-1.92
				c1.59-0.43,3.19-0.77,4.8-1.02c1.62-0.25,3.2-0.46,4.77-0.6c1.56-0.16,2.94-0.38,4.15-0.68c1.21-0.3,2.17-0.75,2.88-1.33
				c0.71-0.58,1.03-1.42,0.99-2.53c0-1.16-0.19-2.08-0.56-2.77c-0.38-0.67-0.89-1.2-1.52-1.58c-0.63-0.37-1.36-0.63-2.19-0.76
				c-0.84-0.12-1.73-0.19-2.7-0.19c-2.11,0-3.78,0.45-4.98,1.36c-1.22,0.9-1.92,2.42-2.12,4.54H146.5
				C146.64,260.59,147.27,258.49,148.39,256.83 M169.61,271.99c-0.68,0.22-1.41,0.42-2.19,0.56c-0.78,0.16-1.61,0.28-2.47,0.38
				c-0.86,0.1-1.7,0.23-2.57,0.38c-0.81,0.15-1.6,0.35-2.38,0.6c-0.78,0.25-1.46,0.59-2.04,1.02c-0.58,0.43-1.04,0.98-1.38,1.63
				c-0.36,0.66-0.55,1.49-0.55,2.49c0,0.97,0.19,1.77,0.55,2.42c0.34,0.66,0.82,1.18,1.42,1.55c0.61,0.38,1.31,0.64,2.13,0.8
				c0.81,0.16,1.64,0.22,2.5,0.22c2.12,0,3.75-0.35,4.91-1.05c1.17-0.71,2.01-1.56,2.56-2.53c0.56-0.99,0.9-1.99,1.03-2.99
				c0.14-1.01,0.19-1.82,0.19-2.42v-4.01C170.84,271.45,170.28,271.76,169.61,271.99"/>
			<path id="XMLID_00000163068945275027692970000016473358253949319613_" class="st1" d="M211.6,251.09v7.18h-7.87v19.36
				c0,1.82,0.3,3.02,0.92,3.62c0.61,0.61,1.82,0.92,3.62,0.92c0.61,0,1.18-0.02,1.74-0.09c0.56-0.05,1.08-0.12,1.59-0.22v8.33
				c-0.9,0.14-1.93,0.25-3.03,0.29c-1.1,0.05-2.19,0.08-3.25,0.08c-1.65,0-3.23-0.12-4.72-0.34c-1.49-0.23-2.81-0.67-3.93-1.32
				c-1.15-0.66-2.03-1.59-2.7-2.8c-0.65-1.21-0.98-2.81-0.98-4.77v-23.06h-6.51v-7.18H193v-11.73h10.73v11.73H211.6z"/>
			<path id="XMLID_00000016760721655361670470000016894013390653510025_" class="st1" d="M216.82,236.19h10.73v8.84h-10.73V236.19z
				 M227.56,290.18h-10.73v-39.1h10.73V290.18z"/>
			<polygon id="XMLID_00000106827497485452395930000015708738240264123536_" class="st1" points="245.48,290.19 232.09,251.09 
				243.37,251.09 251.61,277.77 251.76,277.77 260,251.09 270.66,251.09 257.43,290.19 			"/>
			<path id="XMLID_00000137115001415106817960000012367369322265468833_" class="st1" d="M275.12,262.16
				c0.96-2.55,2.33-4.72,4.08-6.5c1.77-1.79,3.89-3.18,6.35-4.16c2.47-0.98,5.25-1.47,8.33-1.47c3.06,0,5.84,0.49,8.35,1.47
				c2.5,0.99,4.63,2.37,6.39,4.16c1.75,1.78,3.12,3.95,4.08,6.5c0.96,2.55,1.44,5.38,1.44,8.5c0,3.13-0.48,5.95-1.44,8.47
				c-0.96,2.53-2.33,4.68-4.08,6.48c-1.77,1.79-3.89,3.17-6.39,4.11c-2.5,0.97-5.29,1.44-8.35,1.44c-3.09,0-5.86-0.47-8.33-1.44
				c-2.47-0.94-4.59-2.32-6.35-4.11c-1.75-1.8-3.12-3.94-4.08-6.48c-0.95-2.52-1.44-5.34-1.44-8.47
				C273.68,267.54,274.17,264.71,275.12,262.16 M284.88,275.24c0.3,1.48,0.82,2.83,1.55,4c0.72,1.19,1.7,2.13,2.91,2.84
				c1.21,0.71,2.73,1.05,4.55,1.05c1.8,0,3.32-0.35,4.55-1.05c1.25-0.71,2.22-1.65,2.96-2.84c0.73-1.18,1.25-2.52,1.54-4
				c0.31-1.49,0.45-3.02,0.45-4.59c0-1.56-0.14-3.09-0.45-4.6c-0.3-1.51-0.82-2.85-1.54-4.01c-0.74-1.16-1.72-2.1-2.96-2.84
				c-1.23-0.73-2.75-1.1-4.55-1.1c-1.82,0-3.33,0.37-4.55,1.1c-1.21,0.74-2.19,1.68-2.91,2.84c-0.73,1.16-1.25,2.5-1.55,4.01
				c-0.3,1.51-0.46,3.05-0.46,4.6C284.42,272.23,284.58,273.75,284.88,275.24"/>
			<path id="XMLID_00000163775484656374821260000014925335375023643796_" class="st1" d="M329.91,280.46
				c0.49,0.82,1.11,1.51,1.86,2.04c0.76,0.53,1.62,0.92,2.61,1.17c0.99,0.25,2,0.38,3.06,0.38c0.76,0,1.55-0.1,2.39-0.27
				c0.83-0.18,1.57-0.45,2.27-0.84c0.67-0.38,1.25-0.87,1.69-1.51c0.46-0.63,0.7-1.42,0.7-2.39c0-1.61-1.08-2.83-3.22-3.62
				c-2.15-0.81-5.13-1.62-8.97-2.42c-1.56-0.35-3.09-0.77-4.58-1.25c-1.49-0.48-2.81-1.11-3.97-1.89c-1.16-0.78-2.09-1.77-2.79-2.96
				c-0.72-1.18-1.07-2.63-1.07-4.34c0-2.52,0.49-4.58,1.49-6.2c0.98-1.62,2.27-2.89,3.89-3.82c1.62-0.93,3.43-1.59,5.45-1.96
				c2.02-0.38,4.08-0.57,6.2-0.57c2.12,0,4.17,0.2,6.17,0.6c1.98,0.41,3.77,1.09,5.33,2.04c1.56,0.96,2.85,2.24,3.89,3.82
				c1.03,1.58,1.65,3.59,1.86,6.01h-10.22c-0.16-2.07-0.94-3.47-2.34-4.21c-1.41-0.72-3.07-1.08-4.99-1.08
				c-0.61,0-1.26,0.03-1.96,0.11c-0.72,0.07-1.36,0.25-1.93,0.5c-0.58,0.25-1.08,0.62-1.49,1.1c-0.41,0.47-0.59,1.12-0.59,1.93
				c0,0.95,0.36,1.74,1.05,2.34c0.69,0.61,1.62,1.11,2.75,1.47c1.15,0.38,2.44,0.72,3.9,1.02c1.47,0.3,2.96,0.63,4.47,0.99
				c1.56,0.35,3.09,0.79,4.57,1.29c1.49,0.5,2.81,1.18,3.98,2c1.15,0.84,2.09,1.86,2.81,3.1c0.69,1.23,1.05,2.77,1.05,4.58
				c0,2.57-0.51,4.72-1.54,6.46c-1.03,1.74-2.39,3.14-4.05,4.2c-1.67,1.05-3.56,1.8-5.71,2.23c-2.15,0.43-4.32,0.64-6.54,0.64
				c-2.27,0-4.49-0.22-6.66-0.68c-2.17-0.45-4.1-1.21-5.79-2.26c-1.69-1.07-3.06-2.47-4.16-4.21c-1.07-1.74-1.67-3.93-1.78-6.54
				h10.23C329.21,278.64,329.44,279.63,329.91,280.46"/>
			<path id="XMLID_00000114752978431778491860000000974104001109421988_" class="st1" d="M392.26,251.09v7.24h0.15
				c0.5-1.2,1.19-2.32,2.04-3.36c0.86-1.03,1.83-1.91,2.95-2.64c1.11-0.74,2.28-1.3,3.54-1.71c1.26-0.4,2.57-0.59,3.95-0.59
				c0.69,0,1.47,0.12,2.34,0.38v9.98c-0.51-0.11-1.12-0.19-1.81-0.26c-0.72-0.08-1.41-0.12-2.04-0.12c-1.96,0-3.63,0.33-5,0.98
				c-1.35,0.67-2.45,1.56-3.28,2.69c-0.84,1.14-1.42,2.45-1.78,3.98c-0.35,1.51-0.52,3.14-0.52,4.91v17.63h-10.74v-39.1H392.26z"/>
			<path id="XMLID_00000183243781462002350690000015321182122963576458_" class="st1" d="M437.62,285.18
				c-1.25,2.12-2.9,3.65-4.94,4.59c-2.05,0.93-4.36,1.39-6.93,1.39c-2.92,0-5.49-0.56-7.71-1.7c-2.22-1.13-4.04-2.68-5.49-4.61
				c-1.44-1.94-2.52-4.17-3.24-6.69c-0.73-2.52-1.1-5.14-1.1-7.87c0-2.61,0.37-5.15,1.1-7.59c0.72-2.45,1.8-4.61,3.24-6.47
				c1.45-1.87,3.25-3.37,5.41-4.5c2.17-1.13,4.7-1.7,7.57-1.7c2.31,0,4.52,0.5,6.61,1.47c2.09,0.98,3.75,2.44,4.95,4.34h0.15v-19.65
				H448v53.99h-10.22v-5H437.62z M437.18,265.87c-0.3-1.49-0.82-2.81-1.54-3.93c-0.73-1.14-1.69-2.06-2.83-2.76
				c-1.17-0.71-2.64-1.05-4.39-1.05c-1.77,0-3.26,0.35-4.47,1.05c-1.2,0.71-2.17,1.65-2.91,2.81c-0.73,1.16-1.27,2.47-1.59,3.97
				c-0.33,1.49-0.49,3.03-0.49,4.65c0,1.51,0.17,3.02,0.52,4.54c0.36,1.51,0.93,2.86,1.72,4.04c0.77,1.19,1.76,2.15,2.94,2.88
				c1.18,0.72,2.61,1.09,4.28,1.09c1.75,0,3.22-0.35,4.42-1.06c1.18-0.7,2.13-1.64,2.84-2.83c0.7-1.18,1.21-2.54,1.51-4.05
				c0.31-1.52,0.45-3.07,0.45-4.69C437.62,268.9,437.49,267.34,437.18,265.87"/>
		</g>
	</g>
	<g id="XMLID_00000130635071817609325400000004619362456496824989_">
		<g id="XMLID_00000167358405412229734290000004750685261574812083_">
			<g>
				<path id="XMLID_00000122708903414712475850000007360671390349899398_" class="st2" d="M577.69,22.28v13.09h-20.06v64.46h-13.09
					V35.37h-20.12V22.28H577.69z"/>
				<path id="XMLID_00000141438732607872005320000017901858368704425883_" class="st2" d="M634.62,22.28v77.55h-13.09V67.6h-27.09
					v32.23h-13.09V22.28h13.09v32.23h27.09V22.28H634.62z"/>
				<path id="XMLID_00000115511116896522532200000011168191516003593858_" class="st2" d="M657.16,35.37v19.14h20.6V67.6h-20.6
					v19.14h40.23v13.09h-53.27V22.28h53.27v13.09H657.16z"/>
				<path id="XMLID_00000063631387331159018340000009273896723984383644_" class="st2" d="M787.13,22.28v13.09H746.9v19.14h20.6
					V67.6h-20.6v32.23h-13.03V22.28H787.13z"/>
				<path id="XMLID_00000029748394131534562870000013824305385863223467_" class="st2" d="M842.92,22.28v50.89
					c0,14.71-11.9,26.66-26.61,26.66s-26.66-11.9-26.66-26.66V22.28h13.09v50.89c0,7.52,6.06,13.57,13.57,13.57
					c7.46,0,13.52-6.06,13.52-13.57V22.28H842.92z"/>
				<path id="XMLID_00000174598731855186184590000006399842887819669126_" class="st2" d="M898.77,22.28v13.09h-20.06v64.46h-13.09
					V35.37H845.5V22.28H898.77z"/>
				<path id="XMLID_00000095316450711163037600000017979417407741601447_" class="st2" d="M954.67,22.28v50.89
					c0,14.71-11.9,26.66-26.61,26.66s-26.66-11.9-26.66-26.66V22.28h13.09v50.89c0,7.52,6.06,13.57,13.57,13.57
					c7.46,0,13.52-6.06,13.52-13.57V22.28H954.67z"/>
				<path id="XMLID_00000029030713532159496880000017782769370597380229_" class="st2" d="M990.83,63.27l19.04,36.56h-14.76
					l-18.93-36.34v36.34h-13.03V22.28h26.17c5.46,0,10.71,2.16,14.55,6.06c3.84,3.84,6,9.03,6,14.49
					C1009.87,53.59,1001.54,62.51,990.83,63.27z M989.32,50.29c4.11,0,7.46-3.35,7.46-7.46c0-4.11-3.35-7.46-7.46-7.46h-13.14v14.93
					H989.32z"/>
				<path id="XMLID_00000090293068098642607000000014264669846677530025_" class="st2" d="M1029.1,35.37v19.14h20.6V67.6h-20.6
					v19.14h40.23v13.09h-53.27V22.28h53.27v13.09H1029.1z"/>
				<path id="XMLID_00000164487924834080659930000013656655979314341030_" class="st2" d="M604.41,157.19
					c0,18.55-13.03,34.45-31.2,38.07c-18.12,3.62-36.29-6.11-43.37-23.2s-1.08-36.83,14.28-47.1c15.36-10.27,35.91-8.22,48.94,4.87
					C600.35,137.08,604.46,146.92,604.41,157.19z M591.32,157.19c0-12.22-8.65-22.77-20.66-25.2c-12-2.38-24.06,4.06-28.77,15.41
					c-4.65,11.3-0.7,24.39,9.46,31.2c10.22,6.81,23.79,5.46,32.45-3.24C588.67,170.55,591.38,164.01,591.32,157.19z"/>
				<path id="XMLID_00000147203870194231885330000008055041991501618873_" class="st2" d="M663.77,118.26v13.09h-40.23v19.14h20.6
					v13.09h-20.6v32.23H610.5v-77.55H663.77z"/>
				<path id="XMLID_00000027570772508969985070000008854712303604880062_" class="st2" d="M746.53,118.26l-20.12,38.77l-0.81,1.62
					v37.15h-13.09v-37.15l-0.81-1.62l-20.12-38.77h14.71l6.22,12l6.54,12.6l6.54-12.6l6.22-12H746.53z"/>
				<path id="XMLID_00000164495745513997937060000004112390042215405752_" class="st2" d="M822.33,157.19
					c0,18.55-13.03,34.45-31.2,38.07c-18.12,3.62-36.29-6.11-43.37-23.2s-1.08-36.83,14.28-47.1c15.36-10.27,35.91-8.22,48.94,4.87
					C818.28,137.08,822.39,146.92,822.33,157.19z M809.25,157.19c0-12.22-8.65-22.77-20.66-25.2c-12-2.38-24.06,4.06-28.77,15.41
					c-4.65,11.3-0.7,24.39,9.46,31.2c10.22,6.81,23.79,5.46,32.45-3.24C806.6,170.55,809.3,164.01,809.25,157.19z"/>
				<path id="XMLID_00000089565707190894797580000007375606768408291980_" class="st2" d="M880.67,118.26v50.89
					c0,14.71-11.9,26.66-26.61,26.66s-26.66-11.9-26.66-26.66v-50.89h13.09v50.89c0,7.52,6.06,13.57,13.57,13.57
					c7.46,0,13.52-6.06,13.52-13.57v-50.89H880.67z"/>
				<path id="XMLID_00000131337866655614219750000004794123363779138201_" class="st2" d="M916.83,159.25l19.04,36.56H921.1
					l-18.93-36.34v36.34h-13.03v-77.55h26.17c5.46,0,10.71,2.16,14.55,6.06c3.84,3.84,6,9.03,6,14.49
					C935.86,149.57,927.54,158.49,916.83,159.25z M915.31,146.27c4.11,0,7.46-3.35,7.46-7.46c0-4.11-3.35-7.46-7.46-7.46h-13.14
					v14.93H915.31z"/>
				<path id="XMLID_00000057130838973302469180000006945457073224140195_" class="st2" d="M582.4,274.53
					c-3.24,10.27-12.82,17.25-23.58,17.25h-28.5v-77.55h26.17c7.73,0,14.76,4.33,18.28,11.19c3.52,6.87,2.87,15.14-1.62,21.36
					C581.91,253.06,585.7,264.26,582.4,274.53z M543.41,242.25h13.09c4.16,0,7.46-3.35,7.46-7.46c0-4.11-3.3-7.46-7.46-7.46h-13.09
					V242.25z M570.5,267.01c0-6.49-5.25-11.68-11.68-11.68h-15.41v23.36h15.41C565.26,278.69,570.5,273.45,570.5,267.01z"/>
				<path id="XMLID_00000039093960643277051650000005263143126722711441_" class="st2" d="M617.1,255.22l19.04,36.56h-14.76
					l-18.93-36.34v36.34h-13.03v-77.55h26.17c5.46,0,10.71,2.16,14.55,6.06c3.84,3.84,6,9.03,6,14.49
					C636.14,245.54,627.81,254.47,617.1,255.22z M615.59,242.25c4.11,0,7.46-3.35,7.46-7.46c0-4.11-3.35-7.46-7.46-7.46h-13.14
					v14.93H615.59z"/>
				<path id="XMLID_00000088127458621915397270000009968057699244863150_" class="st2" d="M710.75,291.78h-74.63l6.27-13.09
					l23.79-49.37l7.25-15.09l7.25,15.09l23.79,49.37L710.75,291.78z M689.98,278.69l-16.55-34.28l-16.49,34.28H689.98z"/>
				<path id="XMLID_00000045583432576701775950000004950842126347543983_" class="st2" d="M767.35,214.23v77.55l-13.09-14.28
					l-27.15-29.63v43.91h-13.03v-77.49l13.03,14.22l27.15,29.63v-43.91H767.35z"/>
				<path id="XMLID_00000091704294763824009020000011609178022642704280_" class="st2" d="M834.93,247.17v11.68
					c0,18.17-14.71,32.93-32.88,32.93h-25.31v-77.55h25.31C820.22,214.23,834.93,229,834.93,247.17z M821.9,247.82
					c0-5.41-2.16-10.65-6-14.49c-3.84-3.84-9.08-6-14.49-6h-11.63v51.37h11.63c5.41,0,10.65-2.16,14.49-6c3.84-3.84,6-9.03,6-14.49
					V247.82z"/>
			</g>
		</g>
	</g>
</g>
</svg>
