<?xml version="1.0" encoding="utf-8"?>
<!-- Generator: Adobe Illustrator 27.6.1, SVG Export Plug-In . SVG Version: 6.00 Build 0)  -->
<svg version="1.1" id="Txt" xmlns="http://www.w3.org/2000/svg" xmlns:xlink="http://www.w3.org/1999/xlink" x="0px" y="0px"
	 viewBox="0 0 60.74 49.06" style="enable-background:new 0 0 60.74 49.06;" xml:space="preserve">
<style type="text/css">
	.st0{fill:#1D9BF0;}
</style>
<path class="st0" d="M60.21,5.88c-0.16,0.3-0.37,0.57-0.57,0.85c-1.51,2.05-3.28,3.83-5.33,5.34c-0.15,0.11-0.22,0.23-0.2,0.42
	c0.07,1.02,0.04,2.05-0.02,3.07c-0.08,1.54-0.27,3.08-0.56,4.6c-0.46,2.45-1.17,4.83-2.12,7.14c-1.47,3.59-3.45,6.87-5.97,9.83
	c-2.67,3.13-5.79,5.71-9.39,7.7c-2.62,1.44-5.38,2.5-8.28,3.21c-1.41,0.34-2.83,0.6-4.27,0.77c-0.9,0.11-1.8,0.17-2.7,0.22
	c-0.94,0.05-1.89,0.05-2.83,0.03c-1.05-0.02-2.1-0.1-3.14-0.22c-2.58-0.29-5.09-0.87-7.55-1.72c-2.51-0.87-4.88-2.02-7.13-3.43
	C0.1,43.64,0.04,43.62,0,43.53c6.73,0.67,12.78-1.03,18.17-5.13c-2.63-0.12-5.01-0.92-7.11-2.49c-2.1-1.57-3.56-3.61-4.4-6.14
	c0.95,0.15,1.86,0.25,2.79,0.21c0.92-0.04,1.82-0.16,2.76-0.43c-7-1.58-10.09-7.79-9.85-12.28c1.72,0.93,3.55,1.45,5.53,1.52
	c-3.68-2.69-5.55-6.28-5.44-10.83c0.05-2.03,0.63-3.92,1.66-5.7c4.65,5.61,10.43,9.48,17.39,11.55c2.65,0.79,5.36,1.24,8.14,1.38
	c-0.07-0.41-0.15-0.78-0.2-1.16c-0.13-0.95-0.14-1.9-0.05-2.85c0.16-1.73,0.66-3.35,1.52-4.85c1.88-3.26,4.67-5.3,8.35-6.09
	c1.05-0.23,2.11-0.3,3.18-0.23c2.61,0.16,4.95,1.05,7,2.67c0.41,0.32,0.8,0.67,1.15,1.05c0.12,0.13,0.23,0.15,0.39,0.12
	c1.71-0.36,3.36-0.89,4.96-1.59c0.83-0.37,1.65-0.78,2.44-1.23c0.06-0.03,0.11-0.09,0.23-0.08c-0.98,2.88-2.76,5.12-5.36,6.76
	c0.13,0.02,0.22,0,0.31-0.02c0.09-0.02,0.18-0.02,0.27-0.03c2.13-0.32,4.2-0.89,6.18-1.74C60.05,5.9,60.12,5.84,60.21,5.88
	L60.21,5.88z"/>
</svg>
