<?xml version="1.0" encoding="utf-8"?>
<!-- Generator: Adobe Illustrator 27.7.0, SVG Export Plug-In . SVG Version: 6.00 Build 0)  -->
<svg version="1.1" xmlns="http://www.w3.org/2000/svg" xmlns:xlink="http://www.w3.org/1999/xlink" x="0px" y="0px"
	 viewBox="0 0 1061.78 530.28" style="enable-background:new 0 0 1061.78 530.28;" xml:space="preserve">
<style type="text/css">
	.st0{fill:#525D7D;}
	.st1{fill:none;stroke:#202020;stroke-miterlimit:10;}
	.st2{fill:none;stroke:#202020;stroke-miterlimit:10;stroke-dasharray:12.0609,12.0609;}
</style>
<g id="Colors">
	<g id="XMLID_00000079455023686727384170000008060542712109169850_">
		<path id="XMLID_00000156585329006498248350000011255287708471147442_" class="st0" d="M610.81,265.02h-17.12
			c-7.06,0.96-12.51,7-12.51,14.33c0,6.89,4.81,12.64,11.25,14.1h18.38c22.29,0,40.63,18.34,40.63,40.63
			c0,22.29-18.34,40.63-40.63,40.63h-18v-0.1H562.1l-13.57-22.69c15.39-7.37,26.09-23.13,26.09-41.26
			c0-25.14-20.57-45.71-45.71-45.71h-48.29v-0.1h-29.65c-37.99,0-69.07,31.08-69.07,69.06c0,37.98,31.08,69.06,69.07,69.06h27.2v0
			h2.5c6.7-1.25,11.78-7.11,11.78-14.17c0-7.29-5.41-13.3-12.43-14.27h-1.84v0.01h-27.2c-22.29,0-40.63-18.34-40.63-40.63
			c0-22.29,18.34-40.63,40.63-40.63h29.43v0.1h48.51c9.45,0,17.28,7.83,17.28,17.27c0,9.45-7.83,17.27-17.28,17.27h-36.09
			c-6.9,1.06-12.19,7-12.19,14.2c0,7.28,5.41,13.28,12.43,14.24h25L546,403.09h33.13l-0.02-0.03h2.05v0.08h29.65
			c37.99,0,69.06-31.08,69.06-69.06C679.87,296.1,648.79,265.02,610.81,265.02z"/>
	</g>
</g>
<g id="Txt">
	<g id="XMLID_00000139256836751262809840000001483743620341489592_">
		<g>
			<path class="st1" d="M1060.62,0c0,2-0.01,4-0.03,6"/>
			<path class="st2" d="M1060.32,18.06c-9.52,284.2-242.91,511.67-529.43,511.67c-288.55,0-523.21-230.7-529.6-517.71"/>
			<path class="st1" d="M1.19,6C1.17,4,1.16,2,1.16,0"/>
		</g>
	</g>
</g>
</svg>
