<?xml version="1.0" encoding="utf-8"?>
<!-- Generator: Adobe Illustrator 27.6.1, SVG Export Plug-In . SVG Version: 6.00 Build 0)  -->
<svg version="1.1" id="Colors" xmlns="http://www.w3.org/2000/svg" xmlns:xlink="http://www.w3.org/1999/xlink" x="0px" y="0px"
	 viewBox="0 0 203.73 209.25" style="enable-background:new 0 0 203.73 209.25;" xml:space="preserve">
<style type="text/css">
	.st0{fill:#FFCC80;}
	.st1{fill:#525D7D;}
</style>
<g id="XMLID_00000133500347286002213690000002173780330851214212_">
	<path id="XMLID_00000057869889871152610220000001897930825149556138_" class="st0" d="M42.87,0c4.77,2.8,9.67,5.41,14.28,8.46
		c2.84,1.88,5.2,2.13,8.04,0.16c3.3-2.29,6.66-4.57,10.25-6.35c7.94-3.94,14.47-1.11,17.09,7.33c1.09,3.53,1.89,7.19,2.4,10.86
		c0.54,3.94,2.31,6.02,6.39,6.59c3.96,0.56,7.92,1.51,11.71,2.8c4.69,1.6,7.97,4.72,8.2,10.12c0.23,5.51-2.94,11.03-7.66,13.15
		C83.93,66.4,54.29,79.68,24.65,92.93c-5.75,2.57-18.43-0.5-22.2-5.4c-3.05-3.97-3.17-8.35-0.78-12.62
		c2.04-3.63,4.28-7.18,6.74-10.54c2.15-2.94,2.18-5.49,0.05-8.42c-2.08-2.88-4.03-5.89-5.71-9.01c-4.69-8.74-1.89-15.5,7.57-18.24
		c3.7-1.07,7.51-1.86,11.32-2.44c3.34-0.5,4.76-2.4,5.31-5.48c0.51-2.89,1.25-5.74,1.78-8.62C29.79,6.44,32.69,2.2,38.22,0
		C39.77,0,41.32,0,42.87,0z"/>
	<path id="XMLID_00000084505138668686936550000011612633925947295377_" class="st1" d="M127.53,209.25
		c-6.44-0.6-12.88-1.26-19.33-1.78c-11.56-0.94-23.16-1.55-34.7-2.74c-10.24-1.06-17.62-8.17-19.53-18.27
		c-1.17-6.17-2.02-12.4-3.06-18.89c4.99,0,9.43,0,14.2,0c0.92,5.31,1.84,10.45,2.68,15.6c0.79,4.83,3.66,7.36,8.44,7.72
		c18.51,1.41,37.03,2.85,55.55,4.09c6.27,0.42,10.34-4.55,9.38-10.89c-0.72-4.73-1.51-9.45-2.27-14.21c4.81,0,9.49,0,14.03,0
		c5.28,20.85,2.78,32.67-16.09,39.38C133.74,209.25,130.63,209.25,127.53,209.25z"/>
	<path id="XMLID_00000131360799389384109140000005677136896729301931_" class="st1" d="M154.63,45.9
		c6.48,38.19,12.88,75.92,19.29,113.73c-7.77,0-15.33,0.16-22.89-0.03c-42.43-1.05-84.86-2.19-127.3-3.27
		c-6.67-0.17-8.42-1.48-9.51-8.14c-1.67-10.22-3.11-20.48-4.79-30.71c-0.8-4.88,1.53-7.42,5.71-9.28
		c41.23-18.37,82.42-36.82,123.63-55.24C143.85,50.7,148.92,48.45,154.63,45.9z"/>
	<path id="XMLID_00000168078559268010463600000007224057814401269404_" class="st1" d="M184.44,160.75
		c-2.3-13.49-4.5-26.41-6.69-39.33c-4.22-24.82-8.34-49.66-12.73-74.45c-0.7-3.97-0.25-6.4,3.95-7.61c2.5-0.72,4.79-2.13,7.22-3.12
		c5.57-2.26,9.13-0.38,10.06,5.47c3.13,19.68,6.17,39.38,9.26,59.06c2.66,16.94,5.3,33.88,8.02,50.81c0.97,6.06-1.54,9.16-7.68,9.18
		C192.15,160.76,188.45,160.75,184.44,160.75z"/>
</g>
</svg>
