<?xml version="1.0" encoding="utf-8"?>
<!-- Generator: Adobe Illustrator 27.6.1, SVG Export Plug-In . SVG Version: 6.00 Build 0)  -->
<svg version="1.1" id="Colors" xmlns="http://www.w3.org/2000/svg" xmlns:xlink="http://www.w3.org/1999/xlink" x="0px" y="0px"
	 viewBox="0 0 179.62 179.54" style="enable-background:new 0 0 179.62 179.54;" xml:space="preserve">
<style type="text/css">
	.st0{fill:#525D7D;}
	.st1{fill:#FFCC80;}
</style>
<g id="XMLID_00000041262815002206815940000000367847813151561660_">
	<path id="XMLID_00000054954190882604471120000012791970469511895464_" class="st0" d="M14.78,0.06
		c13.46,0.95,23.74,2.48,34.06,3.62c9.4,1.04,18.78,2.27,28.18,3.3c4.47,0.49,8.3,2.19,11.47,5.35
		c28.56,28.55,57.13,57.08,85.65,85.67c7.31,7.33,7.3,17.1,0.05,24.39c-17.17,17.24-34.37,34.44-51.62,51.6
		c-6.12,6.09-13.74,7.18-20.58,3.21c-1.56-0.9-2.82-2.14-4.07-3.4c-14.04-14.04-28.06-28.09-42.12-42.11
		c-13.34-13.3-26.62-26.66-40.14-39.78c-5.42-5.26-8.42-11.18-9.16-18.79C4.76,55.47,2.93,37.81,0.23,20.29
		C-1.53,8.94,7.25-0.88,14.78,0.06z M11.02,17.62c0.03,0.42,0.03,0.85,0.08,1.26c2.22,19.04,4.45,38.08,6.67,57.12
		c0.22,1.93,1.07,3.5,2.45,4.87c28.38,28.36,56.74,56.74,85.13,85.1c3.24,3.24,6.48,3.2,9.72,0.01c3.73-3.67,7.46-7.35,11.17-11.04
		c13.19-13.09,26.38-26.17,39.54-39.29c3.83-3.82,3.8-7.09-0.03-10.92c-28.1-28.16-56.23-56.3-84.32-84.48
		c-1.64-1.64-3.47-2.6-5.75-2.86c-19.12-2.23-38.24-4.52-57.37-6.71C13.36,10.11,10.87,12.59,11.02,17.62z"/>
	<path id="XMLID_00000075129540785566292160000013302185785711868063_" class="st1" d="M102.51,147.17c0.02-1.93,1.07-3.3,2.36-4.6
		c6.57-6.57,13.14-13.14,19.68-19.74c6.48-6.54,12.92-13.12,19.38-19.68c1.01-1.02,1.98-2.1,3.33-2.7c2.23-1,4.3-0.74,6.07,1
		c1.75,1.72,2.08,4.1,0.97,6.29c-0.59,1.15-1.47,2.05-2.37,2.95c-12.96,12.96-25.93,25.92-38.89,38.88
		c-1.14,1.14-2.3,2.25-3.92,2.68C105.78,153.14,102.49,150.61,102.51,147.17z"/>
	<path id="XMLID_00000090257237432698611610000015035366300381727671_" class="st1" d="M128.84,79.11c3.81-0.03,6.32,3.93,4.79,7.59
		c-0.5,1.2-1.37,2.12-2.27,3.01c-13.14,13.13-26.27,26.27-39.42,39.39c-0.71,0.71-1.5,1.39-2.37,1.87
		c-2.26,1.25-4.81,0.79-6.47-1.04c-1.67-1.85-1.82-4.36-0.34-6.53c0.42-0.62,0.96-1.18,1.49-1.71
		c13.06-13.21,26.12-26.4,39.18-39.61C124.95,80.56,126.53,79.17,128.84,79.11z"/>
	<path id="XMLID_00000068662806039530774300000012460925770520930482_" class="st1" d="M29.85,40.67
		c0.04-6.04,4.96-10.85,11.08-10.83c6.19,0.02,11.24,5.02,11.18,11.07C52.04,47,46.87,52.18,40.95,52.08
		C34.61,51.97,29.8,47.03,29.85,40.67z"/>
</g>
</svg>
