<?xml version="1.0" encoding="utf-8"?>
<!-- Generator: Adobe Illustrator 27.6.1, SVG Export Plug-In . SVG Version: 6.00 Build 0)  -->
<svg version="1.1" id="Txt" xmlns="http://www.w3.org/2000/svg" xmlns:xlink="http://www.w3.org/1999/xlink" x="0px" y="0px"
	 viewBox="0 0 400.48 241.81" style="enable-background:new 0 0 400.48 241.81;" xml:space="preserve">
<style type="text/css">
	.st0{fill:#525D7D;}
</style>
<g>
	<path class="st0" d="M200.24,241.81c-44.64,0-89.29,0-133.93-0.02c-1.26,0-2.51,0.27-3.77-0.7c-1.92-1.5-2.03-3.41-1.62-5.37
		c0.45-2.15,2.43-2.14,4.04-1.85c5.51,0.99,6.42-1.6,6.39-6.55c-0.2-32.48-0.1-64.96-0.1-97.44c0-9.54,0-9.54,9.3-9.54
		c11.33,0,22.67-0.34,33.98,0.15c5.37,0.23,6.29-2.28,6.28-6.49c-0.01-8-0.03-15.99,0-23.99c0.05-11.96-1.42-9.02,10.46-11.99
		c6.89-1.72,13.9-3.09,20.94-3.96c3.67-0.45,3.75-2.28,3.74-4.98c-0.04-20.65-0.03-41.31-0.02-61.96c0-6.94,0.15-7.09,6.94-7.1
		C182.71,0,202.53,0,222.35,0c6.28,0,7.37,1.1,7.37,7.48c0.02,15.66,0.16,31.32-0.09,46.97c-0.07,4.31,0.73,5.92,5.52,5.78
		c12.82-0.38,25.65-0.15,38.48-0.12c7.65,0.02,9.02,1.38,9.02,8.8c0.01,13.33,0.08,26.65-0.06,39.98c-0.03,2.74,0.61,3.52,3.47,4.38
		c13.23,3.96,26.38,8.18,39.74,11.68c4.01,1.05,4.53,4.01,4.52,7.67c-0.09,31.98,0.05,63.96-0.15,95.94
		c-0.03,4.37,0.99,6.04,5.4,5.32c2.41-0.4,4.23,0.26,4.19,3.37c-0.04,2.86-1.32,4.34-4.07,4.5c-2.16,0.13-4.33,0.05-6.5,0.05
		c-42.98,0-85.96,0-128.94,0C200.24,241.79,200.24,241.8,200.24,241.81z M221.33,122.44c0-34.45,0.01-68.9-0.01-103.35
		c0-2.59-0.08-5.16-0.41-7.76c-0.31-2.5-1.15-2.95-3.34-2.94c-16.48,0.07-32.95,0.11-49.43-0.02c-2.89-0.02-3.62,0.9-3.6,3.69
		c0.11,18.8,0.08,37.61,0.04,56.42c-0.01,2.56-0.12,3.98,3.43,2.62c3.38-1.29,7.26-1.23,10.9-2.08c3.04-0.71,5.85,0.15,6.37,3.99
		c0.22,1.63,0.38,3.28,0.38,4.92c0.02,50.26,0.05,100.52-0.07,150.77c-0.01,3.58,0.63,4.87,4.54,4.71
		c8.47-0.35,16.98-0.34,25.46-0.01c4.41,0.17,5.9-0.84,5.87-5.64C221.22,192.67,221.33,157.55,221.33,122.44z M273.71,150.84
		c0.05,0,0.11,0,0.16,0c0-25.79-0.09-51.59,0.1-77.38c0.03-3.72-0.92-4.79-4.58-4.74c-11.98,0.18-23.96,0.17-35.94-0.06
		c-3.2-0.06-3.82,0.95-3.82,3.9c0.09,52.42,0.1,104.84,0.01,157.25c0,2.87,0.78,3.61,3.6,3.58c11.98-0.12,23.96-0.01,35.94,0.05
		c3.24,0.02,4.63-1.05,4.61-4.73C273.63,202.75,273.71,176.8,273.71,150.84z M177.12,156.44c0-24.46-0.09-48.92,0.09-73.38
		c0.03-3.68-1.19-4.87-4.48-4.12c-13.18,3.03-26.63,4.65-39.82,7.74c-3.12,0.73-3.53,1.61-3.53,4.28
		c0.06,46.09,0.08,92.18-0.03,138.28c-0.01,3.28,0.87,4.2,4.13,4.15c12.98-0.18,25.96-0.27,38.94,0.04c4.21,0.1,4.79-1.44,4.77-5.1
		C177.05,204.37,177.12,180.41,177.12,156.44z M79.89,181.29c0,15.98,0.1,31.97-0.08,47.94c-0.04,3.33,0.9,4.22,4.15,4.16
		c10.99-0.18,21.98-0.18,32.96,0c2.97,0.05,3.98-0.56,3.97-3.78c-0.13-32.3-0.12-64.59,0-96.89c0.01-3.04-0.72-3.96-3.85-3.9
		c-10.99,0.2-21.98,0.25-32.96-0.02c-3.71-0.09-4.28,1.23-4.25,4.53C79.98,149.32,79.89,165.31,79.89,181.29z M282.63,121.27
		c0,36.5,0.03,72.77-0.06,109.04c-0.01,3,1.41,3.06,3.65,3.04c10.48-0.07,20.97-0.12,31.45,0.03c2.87,0.04,4.05-0.46,4.03-3.75
		c-0.13-31.12-0.12-62.23-0.01-93.35c0.01-2.41-0.82-3.71-2.86-4.32C306.86,128.39,294.87,124.87,282.63,121.27z"/>
	<path class="st0" d="M207.73,86.52c0,1.33,0.3,2.74-0.06,3.96c-0.74,2.46-2.24,4.47-5.16,4.39c-2.79-0.08-3.25-2.57-3.65-4.5
		c-0.42-2.07-0.02-4.3-0.13-6.45c-0.16-3.22,1.25-5.77,4.36-5.86c3.48-0.1,4.83,2.61,4.66,5.97c-0.04,0.83-0.01,1.66-0.01,2.49
		C207.75,86.52,207.74,86.52,207.73,86.52z"/>
	<path class="st0" d="M198.76,114.5c0.65-2.03-1.41-5.05,2.4-6.85c2.58-1.21,4.5-0.54,5.41,1.18c2.06,3.87,1.92,8.24,0.27,12.23
		c-0.65,1.57-2.2,3.63-4.68,2.58c-2.01-0.85-3.39-2.38-3.4-4.76C198.76,117.56,198.76,116.23,198.76,114.5z"/>
	<path class="st0" d="M198.76,28.66c0.09-3.53-0.93-7.84,4.84-7.68c4.31,0.12,4.39,3.33,4.12,6.4c-0.32,3.58,1.71,8.44-4.08,9.48
		C200,37.51,198.76,35.19,198.76,28.66z"/>
	<path class="st0" d="M207.76,144.33c0,0.83-0.04,1.67,0.01,2.49c0.17,3.34-1.79,5.88-4.64,5.8c-2.83-0.08-4.65-2.7-4.39-6.04
		c0.13-1.65,0.07-3.33,0.01-4.99c-0.1-2.98,1.16-5.61,4.11-5.48c2.85,0.12,5.42,1.95,4.91,5.72
		C207.66,142.66,207.76,143.5,207.76,144.33z"/>
	<path class="st0" d="M198.89,57.4c-0.13-6.81,0.72-8.04,5.05-7.47c0.49,0.06,1.07,0,1.44,0.25c4.24,2.89,1.97,7.25,2.27,10.96
		c0.21,2.59-1.99,4.06-4.24,4.72c-2.84,0.83-3.74-1.69-4.41-3.55C198.47,60.86,198.89,59.06,198.89,57.4z"/>
	<path class="st0" d="M177.77,57.17c-0.02-7.01,0.65-7.95,5.24-7.22c0.63,0.1,1.35,0.21,1.82,0.58c1.98,1.55,1.16,13.44-0.97,14.83
		c-2.49,1.62-5.67-0.01-6.05-3.22C177.61,60.5,177.77,58.83,177.77,57.17z"/>
	<path class="st0" d="M185.81,28.27c-0.27,3.5,1.34,8.15-3.82,8.21c-5.33,0.07-4.4-4.61-4.18-8.03c0.2-3.16-2.02-8.04,4.54-7.51
		C188.29,21.41,184.68,26.03,185.81,28.27z"/>
	<path class="st0" d="M257.58,120.44c0.15-2.93-0.67-6.32,3.21-7.46c2.15-0.63,4.67-0.21,5.5,2.13c0.83,2.32,1.22,5,0.96,7.42
		c-0.13,1.16-0.42,2.78-1.48,4.04c-1.21,1.43-2.04,2.61-4.26,2.4c-2.17-0.21-2.84-1.76-3.32-3.17
		C257.63,124.13,257.76,122.23,257.58,120.44z"/>
	<path class="st0" d="M266.73,149.58c0,0.99-0.02,1.99,0,2.98c0.06,2.98-2.03,5.01-4.3,5.08c-2.62,0.08-4.7-2-4.7-5.17
		c0.01-2.32-0.19-4.66,0.06-6.95c0.27-2.51,2.12-4.4,4.41-4.5c2.59-0.12,4.3,1.81,4.51,4.59
		C266.81,146.92,266.73,148.25,266.73,149.58z"/>
	<path class="st0" d="M257.72,91.95c0.08-2.11-0.14-4.01,0.87-5.91c0.83-1.57,1.77-2.18,3.46-2.17c1.8,0.01,3.03,0.33,3.82,2.32
		c1.41,3.56,1.03,7.09,0.44,10.63c-0.56,3.32-3.71,1.71-5.6,2.49c-1.76,0.73-1.7-1.31-2.38-2.23
		C257.11,95.41,258.06,93.52,257.72,91.95z"/>
	<path class="st0" d="M236.74,178.45c0-1.49-0.02-2.97,0-4.46c0.03-2.54,1.32-4.09,3.86-4.07c2.71,0.01,4.19,1.48,4.14,4.33
		c-0.05,2.64-0.03,5.28,0,7.92c0.03,2.69-1.12,4.57-3.89,4.6c-3.03,0.03-4.27-1.92-4.12-4.86
		C236.79,180.77,236.74,179.61,236.74,178.45z"/>
	<path class="st0" d="M244.72,149.37c0,1.66,0.25,3.38-0.06,4.98c-0.4,2.03-1.58,3.62-4.02,3.51c-2.34-0.1-3.69-1.51-3.84-3.69
		c-0.21-2.98,0.13-6-0.11-8.98c-0.24-3.01,2.18-4.07,3.89-4.08c2.02-0.01,4.56,1.06,4.18,4.27
		C244.61,146.69,244.74,148.04,244.72,149.37z"/>
	<path class="st0" d="M236.74,90.96c0-6.78,0.88-7.94,5.4-7.04c0.47,0.09,1.14,0.11,1.36,0.42c2.55,3.56,0.68,7.63,1.24,11.44
		c0.3,2.03-1.08,3.25-2.54,3.82c-2.87,1.11-4.8-0.38-5.39-3.19C236.46,94.66,236.75,92.78,236.74,90.96z"/>
	<path class="st0" d="M244.74,120.96c0,0.99-0.03,1.99,0.01,2.98c0.12,2.9-1,4.97-4.11,4.89c-3.13-0.07-4.07-2.24-3.9-5.1
		c0.08-1.49,0.05-2.98,0-4.47c-0.09-2.93-0.37-5.52,4.12-5.49c4.68,0.04,3.85,2.96,3.89,5.69
		C244.75,119.96,244.74,120.46,244.74,120.96z"/>
	<path class="st0" d="M137.79,104.75c0.58-2.27-1.48-5.55,2.59-7.26c2.34-0.99,3.8-0.15,5.18,1.1c1.67,1.51,1.88,10.85,0.35,12.61
		c-1.12,1.29-2.31,3.5-4.31,2.54c-1.75-0.85-3.79-2.14-3.81-4.69C137.78,107.72,137.79,106.4,137.79,104.75z"/>
	<path class="st0" d="M137.79,161.08c0-6.72,0.97-7.91,5.86-7.2c3.02,0.44,4.46,5.21,3.07,11.46c-0.59,2.66-2.39,4.73-5.5,4.45
		C138.72,169.57,137.78,166.94,137.79,161.08z"/>
	<path class="st0" d="M146.79,133.92c-0.41,1.55,0.88,3.7-0.87,5.3c-1.36,1.25-2.31,3.49-4.82,2.36c-2.05-0.92-3.33-2.4-3.31-4.78
		c0.02-2.31-0.06-4.62,0.02-6.93c0.1-2.91,1.46-4.1,4.59-4.11c3.32,0,4.28,1.57,4.38,4.37C146.82,131.3,146.79,132.46,146.79,133.92
		z"/>
	<path class="st0" d="M159.78,189.11c0-1.16,0.1-2.32-0.02-3.47c-0.27-2.49,0.14-4.04,3.27-3.89c2.74,0.13,5.02,0.14,4.78,3.84
		c-0.16,2.47-0.07,4.96-0.01,7.43c0.07,2.96-1.25,4.83-4.26,4.74c-2.8-0.09-3.9-1.99-3.77-4.69
		C159.83,191.76,159.78,190.44,159.78,189.11z"/>
	<path class="st0" d="M159.76,104.51c0.57-2.68-1.87-7.47,3.78-7.45c5.72,0.02,4.21,4.84,4.15,8.15c-0.05,2.84,1.59,6.62-3.22,7.74
		c-3.35,0.78-4.84-0.27-4.72-3.69C159.81,107.76,159.76,106.27,159.76,104.51z"/>
	<path class="st0" d="M167.77,161.11c-0.39,1.76,0.53,3.86-0.56,5.96c-0.91,1.75-1.73,3.19-3.96,2.77
		c-2.18-0.41-3.47-1.69-3.49-4.01c-0.02-2.97,0.15-5.94-0.03-8.9c-0.14-2.36,0.65-3.29,3.03-3.08c2.2,0.2,4.93-0.66,5,3
		C167.8,158.17,167.77,159.49,167.77,161.11z"/>
	<path class="st0" d="M159.78,133.11c0-1.16,0.11-2.32-0.02-3.46c-0.29-2.51,0.12-4.02,3.27-3.83c2.7,0.16,5.03,0.06,4.78,3.8
		c-0.16,2.46-0.23,4.97,0.02,7.42c0.33,3.37-2.02,4.52-4.35,4.68c-2.72,0.19-3.83-1.98-3.71-4.65
		C159.83,135.75,159.78,134.43,159.78,133.11z"/>
	<path class="st0" d="M99.81,147.29c0,1.49,0.04,2.98-0.01,4.47c-0.09,2.52-1.44,4.03-3.95,4.06c-2.52,0.03-3.94-1.47-4.02-3.99
		c-0.09-2.81,0.08-5.64-0.06-8.45c-0.15-2.98,1.42-3.61,4-3.58c2.49,0.02,4.29,0.44,4.05,3.51
		C99.73,144.63,99.82,145.96,99.81,147.29z"/>
	<path class="st0" d="M99.81,181.38c0,1.49,0.08,2.99-0.02,4.48c-0.16,2.49-1.51,4.01-4.05,3.95c-2.52-0.06-3.84-1.62-3.92-4.12
		c-0.07-2.15,0-4.31-0.02-6.47c-0.03-2.85-0.53-5.56,4.07-5.5c4.64,0.07,3.94,2.88,3.94,5.66
		C99.82,180.05,99.82,180.71,99.81,181.38z"/>
	<path class="st0" d="M296.68,151.51c0,1.72,0.37,3.19-0.08,4.33c-0.78,1.95-2.18,4.12-4.47,3.88c-2.29-0.24-4.11-2.04-4.36-4.56
		c-0.23-2.29,0.18-4.65-0.11-6.93c-0.43-3.48,1.69-4.65,4.38-5.29c3.04-0.74,2.92,2.18,4.03,3.71
		C297.3,148.33,296.39,150.18,296.68,151.51z"/>
	<path class="st0" d="M306.72,151.42c0-1.67-0.22-3.37,0.05-4.99c0.35-2.09,1.57-3.66,3.97-3.54c2.26,0.11,3.76,1.38,3.9,3.65
		c0.18,2.82-0.13,5.68,0.11,8.49c0.29,3.38-2.07,4.58-4.43,4.69c-2.71,0.12-3.82-2.1-3.64-4.8
		C306.77,153.75,306.71,152.58,306.72,151.42z"/>
	<path class="st0" d="M306.71,184.6c0-0.83,0.07-1.66-0.01-2.48c-0.31-2.95,0.27-5.32,3.87-5.21c3.43,0.1,4.31,2.35,4.16,5.4
		c-0.11,2.14-0.12,4.3,0,6.45c0.2,3.81-2.73,4.61-5.25,4.58c-2.41-0.03-3.01-2.43-2.8-4.76C306.8,187.26,306.7,185.93,306.71,184.6z
		"/>
</g>
</svg>
