<?xml version="1.0" encoding="utf-8"?>
<!-- Generator: Adobe Illustrator 27.6.1, SVG Export Plug-In . SVG Version: 6.00 Build 0)  -->
<svg version="1.1" id="Txt" xmlns="http://www.w3.org/2000/svg" xmlns:xlink="http://www.w3.org/1999/xlink" x="0px" y="0px"
	 viewBox="0 0 101.23 93.82" style="enable-background:new 0 0 101.23 93.82;" xml:space="preserve">
<style type="text/css">
	.st0{fill:#525D7D;}
</style>
<path class="st0" d="M50.83,93.82c-12.65,0.01-25.3,0-37.94,0.01c-8.88,0-12.76-3.82-12.77-12.68C0.1,61.5,0.1,41.86,0.12,22.21
	c0.01-5.53,2.52-9.27,7.09-10.81c5.58-1.87,6.93-1.01,7,4.75c0.04,2.77,0.5,5.26,3.8,5.28c3.35,0.02,3.82-2.6,3.83-5.29
	c0.01-3.83,0.02-7.66,0-11.49c-0.01-2.36,0.42-4.53,3.29-4.62c2.77-0.09,4.07,1.89,3.59,4.28c-1.32,6.63,2.51,6.91,7.29,6.44
	c1.48-0.15,3,0.09,4.49-0.05c2.27-0.22,2.93,0.81,2.74,2.9c-0.12,1.32-0.09,2.67,0.01,3.99c0.16,2.29,1.34,3.81,3.71,3.88
	c2.45,0.07,3.7-1.54,3.79-3.76c0.17-4.32,0.13-8.65,0.11-12.98c-0.01-2.36,0.33-4.57,3.2-4.68c3.08-0.11,4.12,2.11,3.7,4.69
	c-0.84,5.17,1.26,6.84,6.17,6.04c1.62-0.26,3.34,0.11,4.98-0.08c2.68-0.31,3.66,0.77,3.3,3.36c-0.09,0.65,0.01,1.33-0.02,2
	c-0.1,2.74,0.43,5.28,3.71,5.38c3.31,0.1,3.96-2.41,3.96-5.16c-0.01-3.83,0.06-7.66-0.02-11.49C79.8,2.15,80.42-0.12,83.49,0
	c2.64,0.11,3.7,2.21,3.33,4.63c-0.66,4.4,0.46,6.37,5.5,6.46c5.08,0.09,8.78,4.57,8.81,9.77c0.12,20.98,0.14,41.95,0,62.93
	c-0.04,6.1-4.51,9.92-11.36,9.98C76.79,93.9,63.81,93.81,50.83,93.82z M50.28,83.26c12.13,0,24.26-0.07,36.38,0.05
	c2.77,0.03,4.2-0.28,4.16-3.67c-0.18-14.62-0.13-29.25-0.03-43.87c0.02-2.52-0.58-3.46-3.29-3.45c-24.42,0.11-48.84,0.09-73.26,0.06
	c-2.63,0-3.73,0.7-3.7,3.68c0.15,14.46,0.12,28.92-0.05,43.37c-0.03,3.05,0.81,3.95,3.91,3.91C26.36,83.15,38.32,83.26,50.28,83.26z
	"/>
<path class="st0" d="M72.14,42.98c0.1,1.68-0.75,2.68-1.62,3.71c-6.31,7.49-12.56,15.04-18.92,22.49c-3.41,4-5.24,4.03-8.94,0.35
	c-2.71-2.69-5.29-5.52-7.99-8.21c-1.75-1.75-2.45-3.65-0.77-5.69c1.6-1.94,3.41-1.27,5.31-0.12c7.57,4.58,7.59,4.55,13.91-1.73
	c4.13-4.1,8.25-8.19,12.36-12.3c1.26-1.26,2.66-1.9,4.45-1.28C71.37,40.71,71.98,41.79,72.14,42.98z"/>
</svg>
