<?xml version="1.0" encoding="utf-8"?>
<!-- Generator: Adobe Illustrator 27.6.1, SVG Export Plug-In . SVG Version: 6.00 Build 0)  -->
<svg version="1.1" id="Colors" xmlns="http://www.w3.org/2000/svg" xmlns:xlink="http://www.w3.org/1999/xlink" x="0px" y="0px"
	 viewBox="0 0 246.87 337.54" style="enable-background:new 0 0 246.87 337.54;" xml:space="preserve">
<style type="text/css">
	.st0{fill:#FFCC80;}
	.st1{fill:#E0DFE6;}
	.st2{fill:#525D7D;}
</style>
<g id="XMLID_00000070828574940506860890000005957137995508055457_">
	<path id="XMLID_00000126295218913572896310000009727960031993128378_" class="st0" d="M53.58,238.63
		c-4.36-12.78-6.46-25.62-6.1-38.4c5.86,2.96,14.16,0.72,17.25-7.11c3.97-10.08,7.61-16.57,18.01-20.35
		c7.54-2.74,14.64-5.37,16.66-14.22c5.43-23.79-28.46-20.41-42.13-21.05c-10.09-0.48-28.22-4.09-38.17,2.02
		c-1.46-0.13-3.03,0.58-3.31,2.16c-0.04,0.24-0.07,0.49-0.11,0.73c-1.93,2.26-3.2,5.25-3.52,9.19c-0.42,5.05,0.17,10.56,1.07,16.12
		c-0.57,16.64,0.41,33.56,0.72,49.84c0.18,9.66-2.17,24.43,2.11,33.33c3.2,6.65,10.79,7.36,17.35,8.41
		C51.87,262.27,59.89,257.16,53.58,238.63z M35.63,243.96c-5.6,0.01-7.07,0.83-8.54-4.97c-0.26-1-0.45-2.06-0.63-3.12
		c2.02,1.51,4.42,2.39,6.86,2.68c1.03,1.75,2.16,3.62,3.2,5.4C36.16,243.96,35.85,243.96,35.63,243.96z"/>
	<path id="XMLID_00000100349383319934909340000011831937267041566085_" class="st1" d="M98.7,201.23
		c3.19-14.64-16.49-19.35-21.93-6.05c-0.14,0.35-0.25,0.7-0.39,1.05c-9.35,15.14-11.45,33.23-5.93,50.24
		c1.36,4.18,4.85,6.55,8.59,7.19c0.37,0.41,0.75,0.82,1.16,1.19c0.02,0.05,0.03,0.09,0.05,0.14c3.32,8.84,12.4,10.86,19.62,5.18
		c0.59-0.46,1.22-0.81,1.85-1.11c2.98-0.17,5.82-0.38,8.2-0.37c15.73,0.07,14.61-21.74,0-23.69c-2.61-0.35-5.11-0.37-7.51-0.11
		l-3.69-0.06C96.35,223.86,96.18,212.74,98.7,201.23z"/>
	<path id="XMLID_00000025429278805315531870000012147503458827479427_" class="st1" d="M195.89,222.37
		c-2.59-10.78-8.14-20.49-15.59-28.77c-8.11-9.01-15.19-14.01-27.39-13.15c-2.01,0.14-2.8,3.47-0.51,3.79
		c7.35,1.03,15.09,14.74,18.25,20.56c3.66,6.73,5.69,13.69,5.99,21.2c-0.07,0.02-0.14,0.03-0.21,0.05c-3.02,0.73-2.89,5.2,0,5.99
		c0.26,0.07,0.54,0.14,0.8,0.21c2.2,6.83,11.1,7.89,16.15,3.76c11.97,2.34,24.47,3.78,36.01,3.45c4.34-0.12,9.23-3.15,10.12-7.71
		c0.11-0.58,0.23-1.15,0.34-1.73c1.15-5.83-2.53-11.41-8.78-11.53c-8.72-0.17-18.16,1.85-26.87,2.81
		C201.43,221.61,198.66,221.97,195.89,222.37z"/>
	<path id="XMLID_00000083081745760428854570000006261446128767747713_" class="st1" d="M125.93,109.9
		c10.2,7.85,28.88,5.96,41.13,6.53c15.8,0.74,34.14,3.11,49.54-0.68c8.1-1.99,8.24-14.61,0-16.53c-15.52-3.61-33.69-1.04-49.54-0.1
		c-13,0.77-29.35-0.08-41.13,6.15C123.97,106.31,124.45,108.76,125.93,109.9z"/>
	<path id="XMLID_00000009553533472884405070000011936339582209821860_" class="st2" d="M207.85,104.82c-0.38,0-0.75,0-1.13,0
		C207.11,104.88,207.49,104.88,207.85,104.82z"/>
	<path id="XMLID_00000154393236916540607090000000823851951970416044_" class="st2" d="M121.03,99.17c0.25-0.5,0.63-0.97,1.16-1.4
		C121.67,98.2,121.29,98.68,121.03,99.17c-0.22,0.44-0.33,0.89-0.37,1.34l0,0c-0.01,0.06-0.02,0.12-0.03,0.19
		c-0.01,0.19,0.01,0.37,0.03,0.56c0,0.34,0.01,0.69,0.01,1.03c0,2.27,1.85,4.11,4.11,4.11c0,0,36.05-1.38,81.93-1.58
		c-0.72-0.11-1.46-0.41-2.15-1.03c-2.78-2.44-5.45-4.79-8.05-7.08c-20.5,0.16-41.02,0.54-61.37,1.16c-2.59,2.09-5.17,4.18-7.75,6.28
		c12.79-10.42,26.51-21.35,40.43-32.82c19.47,17.46,37.78,33.49,39.46,33.49c0.82,0,1.53-0.25,2.13-0.63
		c-0.47,0.31-1,0.53-1.56,0.63c1.78-0.01,3.56-0.01,5.36-0.02c2.3-0.01,4.14-1.88,4.11-4.18c-0.39-24.84-1.32-50.31-2.15-72.24
		c-0.08-2.13-1.77-3.84-3.9-3.95c-0.17-0.01-0.26-0.02-0.37-0.03c-0.36-0.06-0.72-0.09-1.09-0.04c-29.34-1.47-57.81-1.58-86.58-3.75
		c0.68,0.13,1.37,0.43,2.03,1.01c1.63,1.45,3.57,3.21,5.84,5.29c-4.41-3.89-6.79-5.73-8.3-6.33c0.14,0.01,0.28,0.02,0.43,0.03
		c-0.18-0.03-0.36-0.06-0.53-0.07c-0.64-0.23-1.12-0.24-1.54-0.08c-0.06,0-0.13-0.01-0.19-0.01c-2.49-0.22-4.63,1.9-4.43,4.44
		c1.89,23.24,4.02,49.5,4.12,75.62C120.7,100.06,120.81,99.61,121.03,99.17z M122.78,104.55c-0.65-0.4-1.21-0.98-1.59-1.65
		c-0.22-0.39-0.37-0.81-0.46-1.25c0.09,0.43,0.24,0.86,0.46,1.25C121.58,103.57,122.13,104.15,122.78,104.55
		c1.09,0.67,2.47,0.84,3.81,0.14C125.25,105.39,123.87,105.22,122.78,104.55z M128.8,92.42c-0.38-20.45-1.85-40.77-3.35-59.5
		c7.68,7.01,21.79,19.88,36.18,32.85C152.32,73.43,137.94,85.03,128.8,92.42z M174.28,65.97c10.76-8.98,22.36-19.01,32.99-28.9
		c0.69,18.59,1.39,39.18,1.76,59.51c-0.06,0-0.13,0-0.2,0C195.28,84.69,183.87,74.56,174.28,65.97z M203.45,29.34
		c1.87-1.8,3.08-3,4-3.74C206.14,26.84,204.78,28.09,203.45,29.34z M210,97.61c0.37,0.32,0.63,0.67,0.86,1.03
		C210.64,98.27,210.35,97.92,210,97.61z M211.13,102.14c0.42-1.11,0.38-2.4-0.27-3.5C211.57,99.79,211.58,101.05,211.13,102.14z
		 M210.71,102.9c0.14-0.22,0.28-0.44,0.37-0.68C210.98,102.46,210.86,102.69,210.71,102.9z M214.21,27.06
		c-0.01-0.01-0.01-0.03-0.02-0.04C214.2,27.03,214.2,27.04,214.21,27.06z M213.33,25.65c0.07,0.08,0.1,0.17,0.16,0.25
		c-0.32-0.37-0.69-0.69-1.1-0.94C212.71,25.14,213.04,25.36,213.33,25.65z M200.41,32.19c-10.46,9.68-21.56,19.28-32.31,28.23
		c-16.72-15.04-27.23-24.74-34-30.84C156.77,30.91,175.24,31.13,200.41,32.19z M118.63,23.42c-0.5,1.51-0.1,3.24,1.17,4.36
		C118.31,26.46,118.1,24.81,118.63,23.42z M119.3,22.23c-0.27,0.36-0.52,0.73-0.66,1.13C118.8,22.95,119.03,22.58,119.3,22.23z"/>
	<path id="XMLID_00000176752297907003965840000010318255726520798129_" class="st2" d="M205.54,126.69c5.41-0.44,4.77-8.62-0.66-8.2
		c-13.57,1.1-26.96-0.02-40.75-1.18c-34.35-2.9-37.79-2.27-37.65,2.65c0.06,2.27,1.9,4.1,4.22,4
		C155.06,123.29,179.79,128.77,205.54,126.69z"/>
	<path id="XMLID_00000036243522343535407170000000608000538176730291_" class="st2" d="M135.38,142.44h75.3c5.44,0,5.44-8.23,0-8.23
		h-75.3C129.95,134.22,129.94,142.44,135.38,142.44z"/>
	<path id="XMLID_00000150795588684900136730000014687805290624264598_" class="st2" d="M135.29,149.32
		c-5.39-0.78-6.57,7.36-1.19,8.14c28.52,4.17,56.73,1.41,84.69,2.1c5.32,0.25,5.74-8.09,0.2-8.23
		C191.11,150.63,163.01,153.38,135.29,149.32z"/>
	<path id="XMLID_00000120535459920504738920000011421330441067059335_" class="st2" d="M8.72,266.76c39,4.89,78.7,4.25,117.9,3.01
		c2.71-0.09,4.6-2.72,3.8-5.31c-2.5-8.21-3.24-16.89-3.5-25.5c5.84,0.43,15.35,1.16,37.34,1.6c-10.33,31.33-48.07,49.3-78.46,30.08
		c-6.09,0.04-8.92,0.02-13.48-0.02c2.49,2.37,5.17,4.48,7.99,6.34c-1.19,2.21-2.63,4.86-3.32,6.17c2.2,1.34,4.49,2.59,6.84,3.82
		c-2.25-1.18-4.52-2.4-6.84-3.82c-2.11-1.29-4.16-2.65-6.08-4.22c-1.76-1.44-4.35-1.18-5.79,0.58c-2.97,3.63,1.27,7.17,7.98,11
		c-7.2,13.66-14.67,27.74-23.88,40.55c-1.33,1.84-0.91,4.42,0.94,5.74c1.85,1.33,4.42,0.9,5.74-0.94
		c9.52-13.24,17.11-27.55,24.43-41.43c-1.37-0.71-2.73-1.45-4.1-2.21c4.58,2.44,9.83,5.02,14.64,7.82c4.7,2.73,8.85-4.37,4.15-7.11
		c-3.65-2.13-7.22-3.9-10.84-5.78c1.27-2.38,4.78-8.87,5.2-9.61c1.07-1.93,0.51-3.73-0.7-4.87c1.21,1.14,1.77,2.94,0.7,4.87
		c-0.64,1.15-1.26,2.33-1.89,3.49c35.79,17.01,75.73-5.3,85.51-40.29c25.68,0.34,46.6,0.11,69.53,0.82c2.27,0,4.06-1.64,4.23-3.79
		c1.11-13.98-5.77-162.64-5.95-165.39c-3.47-55.58,2.6-69.75-5.35-70.17c-45.84-2.44-90.99-2.21-140.49-2.14
		c-2.37,0-4.25,2.01-4.1,4.36c2.39,39.43,5.22,79.91,7.44,122.28c-31.14-0.54-62.95,0.41-93.88-1.89c-2.52-0.15-4.49,1.85-4.42,4.23
		c1.34,44.31,4.17,89.41,5.11,133.74C5.16,264.81,6.69,266.51,8.72,266.76z M82.72,272.73c-0.2,0.23-0.38,0.49-0.54,0.79
		C82.34,273.22,82.52,272.96,82.72,272.73z M66.22,262.3c1.28,0.02,2.62,0.03,3.92,0.04C68.83,262.33,67.53,262.32,66.22,262.3z
		 M75.91,262.39c-26.72-28.86-11.97-79.2,26.41-84.84c-0.57,0.09-1.14,0.19-1.8,0.32c0.62,18.55,1.03,37.11,1.06,55.61
		c0.01,2.21,1.75,4.02,3.96,4.1c4.35,0.16,8.75,0.46,13.11,0.78c-0.03-1.28-0.06-2.54-0.08-3.77c0.15,9.2,0.57,18.17,2.61,27.12
		C106.2,262.16,91.05,262.46,75.91,262.39z M105.6,127.94c0.1,0.09,0.18,0.2,0.27,0.31C105.79,128.15,105.7,128.04,105.6,127.94z
		 M126.81,234.46c-0.05-2.79-2.35-4.12-4.51-3.97C124.46,230.33,126.76,231.66,126.81,234.46c0.02,1.42,0.06,2.88,0.1,4.36
		C126.87,237.36,126.83,235.91,126.81,234.46z M166.29,232.38c-0.2,1.21-0.44,2.41-0.72,3.59
		C165.84,234.78,166.09,233.59,166.29,232.38c-34.2-0.63-40.08-2-56.49-2.85c-0.08-17.5-0.48-35.02-1.07-52.53
		C151.53,176.35,171.24,202.11,166.29,232.38z M164.58,239.58c0.17-0.54,0.32-1.08,0.47-1.63
		C164.9,238.5,164.75,239.04,164.58,239.58z M231.24,10.2c1.75,59.09-3.26-42.89,7.8,214.99c0,2.59-0.08,5.23-0.23,8
		c-21.16-0.56-39.6-0.39-64.12-0.69c0.36-2.68,0.55-5.42,0.55-8.2c0-37.18-28.42-56.18-67-55.52c0.07,0,0.13,0,0.19-0.01
		c-0.47-12.6-1.03-25.19-1.67-37.74c-0.02,0.43-0.12,0.84-0.26,1.22c0.21-0.63,0.27-1.3,0.19-1.96c0.01,0.06,0.03,0.1,0.04,0.16
		c-2.14-41.88-4.94-82.05-7.4-122.2C145.31,8.19,188.17,8.04,231.24,10.2z M104.53,168.97c0.89-0.08,1.73-0.13,2.56-0.16
		C106.23,168.84,105.38,168.9,104.53,168.97z M106.33,132.69c0.03-0.07,0.07-0.13,0.09-0.2
		C106.4,132.57,106.37,132.63,106.33,132.69z M106.24,128.81c0.08,0.15,0.16,0.32,0.22,0.5
		C106.39,129.13,106.32,128.97,106.24,128.81z M102.14,126.75c-1.08-0.02-2.18-0.03-3.26-0.05
		C99.95,126.7,101.08,126.67,102.14,126.75z M102.57,134.98c0.33,0,0.64-0.03,0.93-0.09c-0.27,0.06-0.55,0.09-0.83,0.09
		c-1.37-0.03-2.66-0.03-3.94-0.05c0.57,11.49,1.08,23.01,1.5,34.54c-40.79,6.42-60.02,57.68-35.15,92.81
		c-17.4-0.32-34.76-1.25-51.81-3.25c-0.98-41.71-3.56-84.34-4.89-125.7C39.72,135.34,71.4,134.29,102.57,134.98z"/>
</g>
</svg>
