<?xml version="1.0" encoding="utf-8"?>
<!-- Generator: Adobe Illustrator 27.6.1, SVG Export Plug-In . SVG Version: 6.00 Build 0)  -->
<svg version="1.1" id="Colors" xmlns="http://www.w3.org/2000/svg" xmlns:xlink="http://www.w3.org/1999/xlink" x="0px" y="0px"
	 viewBox="0 0 300.84 208.94" style="enable-background:new 0 0 300.84 208.94;" xml:space="preserve">
<style type="text/css">
	.st0{fill:#FFCC80;}
	.st1{fill:#E0DFE6;}
	.st2{fill:#525D7D;}
</style>
<g id="XMLID_00000014619614608427008320000003213073535003900570_">
	<path id="XMLID_00000058578669192450714000000000701243185604398477_" class="st0" d="M219.16,132.76
		c-11.48-0.53-18.74,11.75-15.84,22.07c2.96,10.53,14.56,15.36,24.26,10.52c10.12-5.04,11.28-18.45,3.89-26
		C228.82,135.62,224.56,133.02,219.16,132.76z M221.49,155.33c-1.55,0.01-3.19-0.66-4.19-1.8c-0.33-0.38-0.62-0.88-0.87-1.44
		c-0.07-3.56,3.81-7.69,6.95-4.29c0.42,0.45,0.72,0.93,0.95,1.41C224.42,151.58,223.38,154.1,221.49,155.33z"/>
	<path id="XMLID_00000181789993255833207010000015583106593189066163_" class="st1" d="M104.1,188.13
		c13.41,2.55,26.57,3.67,40.2,3.98c13.32,0.31,28.11,2.28,41.23-0.07c4.4-0.79,4.28-7.9,0-8.77c-13.06-2.66-27.92-1.01-41.23-1.02
		c-13.61-0.01-26.72,0.97-40.2,2.91C102.6,185.37,102.66,187.85,104.1,188.13z"/>
	<path id="XMLID_00000089531601607619006450000004299248822196172688_" class="st1" d="M58.55,129.63
		c9.31,3.16,22.32,6.36,31.44,1.28c6.05-3.37,1.71-11.7-4.47-10.59c-4.51,0.81-8.36,1.82-13.05,1.62
		c-4.29-0.18-8.47-0.74-12.78-0.68C54.76,121.32,54.05,128.1,58.55,129.63z"/>
	<path id="XMLID_00000128448023570366080550000009710805084768382625_" class="st1" d="M83.09,86.97c5.24-0.47,7.2-8.5,1.33-9.8
		c-4.78-1.06-9.77-0.41-14.64-0.29c-4.64,0.11-9.38-0.16-13.96,0.64c-2.66,0.47-2.07,4.05,0,4.81c4.36,1.61,9.27,2.1,13.85,2.91
		C74.05,86.02,78.65,87.36,83.09,86.97z"/>
	<path id="XMLID_00000118376192353802397310000005522933334726569658_" class="st1" d="M74.46,207.28
		c24.32-0.83,48.63-1.56,72.95-2.19c48.58-1.27,97.35-3.16,145.95-2.54c6.15,0.08,6.14-9.75,0-9.54
		c-48.61,1.67-97.32,1.56-145.95,2.83c-23.8,0.62-47.6,1.34-71.4,2.14c-23.58,0.8-48.87-0.37-71.75,5.96c-1.26,0.35-1.4,2.42,0,2.69
		C27.06,210.94,51.39,208.06,74.46,207.28z"/>
	<path id="XMLID_00000160184026357237983650000010876669920610903686_" class="st2" d="M53.46,77.7
		c10.23,0.13,20.38-0.46,30.38,0.17c0.65,0.04,1.28-0.19,1.75-0.63c1.42-1.33,0.72-2.4,0.12-29.98c-0.03-1.2-0.96-2.19-2.16-2.29
		c-9.89-0.79-19.76-0.97-31.54-0.99c-1.29-0.07-2.47,1.13-2.34,2.55C51.82,71.12,49.25,77.64,53.46,77.7z M81.07,49.49
		c0.2,7.76,0.52,15.75,0.56,23.56c-8.65-0.38-17.28,0-25.94-0.03c-0.48-8.12-0.54-16.15-1.13-24.34
		C64.29,48.72,72.74,48.9,81.07,49.49z"/>
	<path id="XMLID_00000097466010147284624140000008254345609123677602_" class="st2" d="M57.55,57.97c4.47,3.61,8.1,10.59,10.8,10.59
		c1.35,0,1.85-0.88,4.47-3.37c2.35-2.23,4.78-4.55,7.09-6.95c2.15-2.24-1.23-5.49-3.39-3.25c-2.55,2.65-5.3,5.23-8.13,7.93
		c-4.3-4.7-8.5-11.6-11.19-8.26C56.39,55.68,56.55,57.16,57.55,57.97z"/>
	<path id="XMLID_00000113331686954955779170000009196909437452068505_" class="st2" d="M87.08,102.8c-0.09-3.14-0.19-6.27-0.26-9.39
		c-0.03-1.2-0.96-2.19-2.16-2.29c-9.89-0.79-19.76-0.97-31.54-0.99c-0.66,0-1.29,0.28-1.73,0.76c-0.45,0.49-0.67,1.14-0.61,1.79
		c0.46,5.32,0.66,10.7,0.85,15.91c0.16,4.27,0.32,8.69,0.62,13.07c0.09,1.22,1.09,2.17,2.31,2.18c6.42,0.09,12.9-0.13,19.45-0.13
		c6.97,0,11.08,0.3,11.08,0.3c1.3,0,2.34-1.05,2.35-2.34C87.45,115.27,87.31,110.3,87.08,102.8z M56.8,119.18
		c-0.48-8.09-0.54-16.12-1.13-24.34c9.73,0.04,18.18,0.22,26.51,0.81c0.2,7.86,0.52,15.77,0.56,23.56
		C74.25,118.83,66.18,119.19,56.8,119.18z"/>
	<path id="XMLID_00000072237945483114813070000006428814046460072607_" class="st2" d="M77.64,101.15c-2.24,2.33-4.63,4.6-6.94,6.8
		c-0.4,0.38-0.8,0.76-1.19,1.14c-2.5-2.74-4.71-6.04-7.89-8.61c-2.42-1.95-5.36,1.71-2.95,3.65c4.48,3.62,8.09,10.59,10.8,10.59
		c1.35,0,1.86-0.89,4.47-3.37c2.35-2.23,4.78-4.54,7.09-6.94c0.9-0.93,0.87-2.42-0.06-3.32C80.03,100.19,78.54,100.22,77.64,101.15z
		"/>
	<path id="XMLID_00000139279955012920002230000005370175006305980848_" class="st2" d="M212.68,57.55l0.06-0.07
		c2.47,2.06,6.21-1.68,3.75-4.37C214.82,49.28,208.06,53.87,212.68,57.55z"/>
	<path id="XMLID_00000017487154534496045170000012287656484114466736_" class="st2" d="M233.58,51.51c-2.1-0.01-3.28,1.37-3.28,3
		c0,3.84,5.63,3.99,5.33,0.48C236.49,53.44,235.36,51.52,233.58,51.51z"/>
	<path id="XMLID_00000183248067411916122300000017926990301619464372_" class="st2" d="M251.46,51.1c-1.7,0-3.03,1.29-3.03,2.93
		c0,3.54,4.26,3.88,4.86,1.1C254.75,53.66,253.73,51.1,251.46,51.1z"/>
	<path id="XMLID_00000126313803879657036980000007420839555304946320_" class="st2" d="M240.41,99.23c-0.78-3.13-5.4-1.77-5.4,1.55
		c0,1.83,1.7,3.18,3.27,3.18c1.76,0,2.89-1.88,2.08-3.43C240.5,100.12,240.52,99.67,240.41,99.23z"/>
	<path id="XMLID_00000007426175488289683010000006138057954916404876_" class="st2" d="M255.71,103.2c0.71,0,1.42-0.32,1.88-0.94
		c0.27-0.36,0.42-0.78,0.46-1.2c1.43-1.48,0.39-3.98-1.69-3.98c-1.76,0-3.31,1.51-3.31,3.22
		C253.05,101.77,254.23,103.2,255.71,103.2z"/>
	<path id="XMLID_00000150817300434564060770000008699569737237656766_" class="st2" d="M101.92,147.09
		c-2.02,0.7-4.04,1.51-6.01,2.42c-2.82,1.29-0.88,5.56,1.95,4.27c1.84-0.84,3.73-1.6,5.6-2.25
		C106.4,150.51,104.85,146.07,101.92,147.09z"/>
	<path id="XMLID_00000003099029542159056610000001298007622737438089_" class="st2" d="M194.49,166.29c2.2-0.37,4.36-0.91,6.42-1.6
		c1.04-0.35,1.67-1.36,1.59-2.41c3.74,5.16,10.04,8.99,17.93,8.99c13.34,0,20.32-14.78,20.32-22.71c0-9.35-12.11-20.16-23.14-18.65
		c-12.99,1.77-24.12,17.38-16.16,30.75c-0.06-0.09-0.12-0.18-0.18-0.27c-0.55-0.29-1.21-0.37-1.85-0.16
		c-1.84,0.61-3.76,1.09-5.72,1.42C190.65,162.17,191.42,166.8,194.49,166.29z M219.86,134.46c7.27,0,16.19,7.78,16.19,14.11
		c0,6.11-5.51,18.01-15.62,18.01c-8.05,0-17.01-6.28-17.01-15.3C203.42,142.73,211.64,134.46,219.86,134.46z"/>
	<path id="XMLID_00000146491735750112545950000017453258223546613398_" class="st2" d="M116.13,143.83
		c-3.1,0.35-2.54,5.03,0.53,4.67c1.99-0.23,4.01-0.35,6-0.37c3.14-0.03,3.02-4.75-0.04-4.7
		C120.47,143.45,118.29,143.58,116.13,143.83z"/>
	<path id="XMLID_00000175309086031350677280000005588257110048240565_" class="st2" d="M137.14,145.09
		c-1.26-0.31-2.53,0.45-2.85,1.71c-0.31,1.26,0.45,2.53,1.71,2.85c1.91,0.47,3.78,1.06,5.71,1.78c2.9,1.09,4.56-3.31,1.65-4.4
		C141.26,146.24,139.23,145.61,137.14,145.09z"/>
	<path id="XMLID_00000063629352653092694080000015999579321083244972_" class="st2" d="M156.36,153.21
		c-1.15-0.61-2.57-0.18-3.18,0.96c-0.61,1.14-0.17,2.57,0.97,3.18c1.85,0.99,3.7,1.98,5.6,2.92c2.77,1.39,4.88-2.82,2.09-4.2
		C159.98,155.15,158.17,154.18,156.36,153.21z"/>
	<path id="XMLID_00000093153407537719454260000017402333987998322087_" class="st2" d="M68.34,171.45c-1.32,1.71-2.57,3.5-3.71,5.3
		c-1.66,2.62,2.31,5.13,3.97,2.51c1.07-1.69,2.23-3.35,3.46-4.95C73.96,171.85,70.23,168.99,68.34,171.45z"/>
	<path id="XMLID_00000023988828037102113750000009958584739791739303_" class="st2" d="M174.46,160.88
		c-1.25-0.3-2.53,0.47-2.83,1.73c-0.3,1.26,0.47,2.53,1.73,2.83c2.1,0.51,4.26,0.89,6.44,1.14c3.07,0.36,3.62-4.31,0.53-4.67
		C178.35,161.69,176.37,161.34,174.46,160.88z"/>
	<path id="XMLID_00000101792270328998738920000004553300084784220850_" class="st2" d="M83.37,156.85
		c-1.73,1.26-3.43,2.61-5.06,4.03c-2.34,2.03,0.74,5.58,3.08,3.54c1.52-1.32,3.12-2.59,4.74-3.77c1.05-0.76,1.28-2.23,0.52-3.28
		C85.89,156.32,84.42,156.09,83.37,156.85z"/>
	<path id="XMLID_00000077319314405540635810000004603529735211188369_" class="st2" d="M280.67,147.96
		c-0.27,0.29-0.45,0.64-0.54,1.02C280.23,148.55,280.41,148.2,280.67,147.96z"/>
	<path id="XMLID_00000102522919430721966390000015010598987145322927_" class="st2" d="M280.08,149.28
		c-0.05,0.35-0.02,0.71,0.08,1.06c-0.08-0.26-0.13-0.53-0.12-0.82C280.04,149.43,280.07,149.37,280.08,149.28z"/>
	<path id="XMLID_00000152244776754853580700000014530464592900130233_" class="st2" d="M280.2,150.49
		c-0.01-0.02-0.02-0.05-0.03-0.07C280.18,150.45,280.2,150.47,280.2,150.49z"/>
	<path id="XMLID_00000025431941378842581540000002964099339649556658_" class="st2" d="M165,15.42c-0.24,0.11-0.51,0.18-0.79,0.2
		c-0.29,0.02-0.56-0.02-0.82-0.1C163.92,15.66,164.49,15.62,165,15.42z"/>
	<path id="XMLID_00000170978210203208986560000012185334996949734559_" class="st2" d="M165.17,15.34
		c-0.03,0.02-0.06,0.03-0.09,0.05C165.11,15.38,165.14,15.36,165.17,15.34z"/>
	<path id="XMLID_00000109751213528057687140000014247202956084687773_" class="st2" d="M163.24,15.47c0.03,0.01,0.05,0.02,0.08,0.03
		C163.29,15.49,163.27,15.48,163.24,15.47z"/>
	<path id="XMLID_00000151529120458467237290000017260242230168274569_" class="st2" d="M161.49,6.07c0.01,1.51,0.06,3.35,0.12,4.91
		c-10.34,0.18-20.65,0.37-30.88,0.58c-0.06-2.03-0.17-4.71-0.32-6.75C140.51,5.27,151,6.18,161.49,6.07z"/>
	<path id="XMLID_00000054975019210572606550000012940818640870206639_" class="st2" d="M130.79,13.92c0.02,1.58-1.18,2.36-2.37,2.35
		C129.61,16.27,130.8,15.49,130.79,13.92z"/>
	<path id="XMLID_00000076570375421682635300000008210526747376694917_" class="st2" d="M180.49,177.75
		c2.17-0.05,4.02-0.56,4.02,6.83c0,1.56-0.09,3.53-0.06,5.17c-0.03-0.6-0.01-1.23,0-1.83c-26.34,0.27-52.53,0.35-78.42,0.39
		l0.04,0.57c-0.06-1.01-0.16-2.53-0.8-12.85C140.28,175.77,180.49,177.75,180.49,177.75z"/>
	<path id="XMLID_00000080192773018019270660000012332459039782396338_" class="st2" d="M106.17,190.52c0.01,0.17,0,0.34-0.02,0.5
		C106.17,190.86,106.18,190.69,106.17,190.52c-0.04-0.64-0.06-1-0.08-1.31L106.17,190.52z"/>
	<path id="XMLID_00000083050403382708393520000006094328770950642054_" class="st2" d="M106.11,191.17
		c-0.02,0.11-0.05,0.22-0.09,0.32C106.06,191.39,106.09,191.28,106.11,191.17z"/>
	<path id="XMLID_00000024681159361218969000000002012573033332232341_" class="st2" d="M105.96,191.62c-0.05,0.1-0.1,0.21-0.16,0.3
		C105.86,191.83,105.91,191.73,105.96,191.62z"/>
	<path id="XMLID_00000082335656851538801730000014463108185612778887_" class="st2" d="M105.73,192.02
		c-0.07,0.1-0.14,0.19-0.22,0.27C105.59,192.21,105.66,192.12,105.73,192.02z"/>
	<path id="XMLID_00000110464135708464561370000009490621171634416531_" class="st2" d="M105.42,192.38
		c-0.08,0.07-0.16,0.14-0.25,0.2C105.26,192.52,105.34,192.45,105.42,192.38z"/>
	<path id="XMLID_00000083082096745908861790000016987512152090593447_" class="st2" d="M129.84,202.56
		c0.11-0.01,0.21-0.04,0.33-0.04L5.05,204.14c-0.06-3.33-0.14-7.01-0.27-10.81c32.37-0.28,64.78-0.28,99.02-0.32
		c-1.04-0.01-1.61-0.47-1.95-1.14c0.41,0.67,1.12,1.13,1.95,1.14c0.09,0,0.18-0.01,0.27-0.02c-0.03,0-0.07,0.01-0.1,0.02
		c27.25-0.03,54.9-0.11,82.73-0.41c-0.07,0-0.12-0.03-0.19-0.03c0.4,0.04,0.81-0.01,1.19-0.15c-0.22,0.09-0.45,0.16-0.7,0.18
		c30.57-0.33,64.93-1.05,96.21-2.28c0.05,0,0.11,0,0.16-0.01c3.89-0.15,7.74-0.31,11.52-0.48c0.67,6.94,0.77,7.96,1.02,10.54
		l-139.64,1.81c0,0,0,0,0.01,0c-0.03,0-0.06,0.01-0.09,0.01c0.03,0,0.04-0.01,0.07-0.01l-26.1,0.34
		C130.04,202.52,129.95,202.55,129.84,202.56z"/>
	<path id="XMLID_00000036238818209060580920000000388103976689875640_" class="st2" d="M128.27,203.61c0.1-0.15,0.19-0.29,0.3-0.41
		C128.46,203.31,128.36,203.46,128.27,203.61z"/>
	<path id="XMLID_00000005953750788910988740000009881886086582548116_" class="st2" d="M128.7,203.08c0.1-0.09,0.19-0.19,0.3-0.25
		C128.89,202.89,128.8,202.99,128.7,203.08z"/>
	<path id="XMLID_00000163056530832748080710000015285991768698295686_" class="st2" d="M129.14,202.76
		c0.12-0.06,0.24-0.12,0.38-0.16C129.38,202.64,129.26,202.7,129.14,202.76z"/>
	<path id="XMLID_00000121999840973138036500000010438115228465517224_" class="st2" d="M105,192.69c-0.07,0.04-0.13,0.08-0.2,0.11
		C104.87,192.76,104.94,192.72,105,192.69z"/>
	<path id="XMLID_00000145745942120159734350000007491609427257435531_" class="st2" d="M104.53,192.9
		c-0.04,0.01-0.09,0.03-0.13,0.04C104.44,192.93,104.48,192.91,104.53,192.9z"/>
	<path id="XMLID_00000136376595815929754770000002433638191439740602_" class="st2" d="M185.21,192c0.13,0.11,0.27,0.22,0.42,0.3
		C185.47,192.21,185.32,192.12,185.21,192z"/>
	<path id="XMLID_00000165937594202445876950000001935482058660167075_" class="st2" d="M185.65,192.31c0.19,0.1,0.39,0.16,0.59,0.2
		C186.02,192.47,185.82,192.4,185.65,192.31z"/>
	<path id="XMLID_00000173144575703026939270000012218851035442843037_" class="st2" d="M187.94,192.31
		c-0.04,0.02-0.09,0.05-0.13,0.07C187.86,192.35,187.9,192.33,187.94,192.31z"/>
	<path id="XMLID_00000142866846150293053640000006683834966727863220_" class="st2" d="M158.67,204.85
		c0.01-0.06,0.01-0.13,0.01-0.19C158.67,204.72,158.67,204.79,158.67,204.85z"/>
	<path id="XMLID_00000092452060753671304100000007721969009719581865_" class="st2" d="M158.67,204.32
		c-0.01-0.07-0.01-0.13-0.03-0.2C158.66,204.19,158.67,204.25,158.67,204.32z"/>
	<path id="XMLID_00000090291007223054991220000011637480470769527187_" class="st2" d="M158.56,203.78
		c-0.02-0.05-0.03-0.1-0.05-0.15C158.53,203.68,158.54,203.73,158.56,203.78z"/>
	<path id="XMLID_00000090258320148075624330000006094832866454710717_" class="st2" d="M158.26,203.18c0,0-0.01-0.01-0.01-0.01
		C158.26,203.17,158.26,203.17,158.26,203.18z"/>
	<path id="XMLID_00000183941684083100206500000015221512986426628008_" class="st2" d="M157.92,202.8c-0.04-0.04-0.09-0.07-0.13-0.1
		C157.84,202.73,157.88,202.76,157.92,202.8z"/>
	<path id="XMLID_00000124131300179821501960000013777382444591076780_" class="st2" d="M157.51,202.5c-0.06-0.04-0.13-0.07-0.2-0.1
		C157.38,202.43,157.45,202.47,157.51,202.5z"/>
	<path id="XMLID_00000032644487369047588830000012109267690325656452_" class="st2" d="M157.01,202.29
		c-0.07-0.02-0.13-0.04-0.2-0.05C156.88,202.25,156.95,202.27,157.01,202.29z"/>
	<path id="XMLID_00000075843112866919151790000008375992699224256931_" class="st2" d="M155.79,202.25
		c-0.31,0.08-0.61,0.22-0.87,0.42C155.16,202.47,155.45,202.32,155.79,202.25z"/>
	<path id="XMLID_00000152959476217060110160000003776205283608803224_" class="st2" d="M154.05,203.97
		c-0.22,0.56-0.57,1.47-1.01,2.63C153.44,205.52,153.74,204.64,154.05,203.97z"/>
	<path id="XMLID_00000175292556371134079330000017440856913455779478_" class="st2" d="M175.42,206.63l123.11-1.59
		c0.66-0.01,1.28-0.29,1.71-0.78c0.44-0.49,0.65-1.13,0.59-1.79c-0.28-2.99-0.57-5.98-0.86-8.97l-0.61-6.34
		c-0.12-1.25-1.22-2.17-2.44-2.12c-34.3,1.56-73.57,2.45-107.77,2.84c-0.01,0.28-0.01,0.51-0.01,0.75c0-0.6,0.02-1.23,0.03-1.83
		c0.31-12.73-3.55-13.86-9.55-13.73c-3.31-0.19-39.74-2.06-76.87-1.72c-1.35,0.01-2.41,1.15-2.32,2.49
		c1.06,16.97,0.87,13.89,1.03,16.5c-0.08-0.68-0.09-1.39-0.13-2.04c-40.31,0.05-64.29,0.01-78.63,0.04
		c-1.15-56.81-3.51-112.99-6.06-170.29c87.02-0.4,173.68-4.43,260.55-2.56c0.39,56.14,2.49,113.19,3.68,170.18
		c1.56-0.06,3.13-0.12,4.69-0.19c-0.23-11.08-0.5-22.28-0.78-33.44c1.55,0.06,3.33,0.12,3.77,0.13c3.18,0,3.18-4.6,0.15-4.69
		c-0.85-0.03-4.32-0.15-5.68-0.2c0.58,0,1.16,0.04,1.64,0.06c-1.16-45.15-2.52-90.22-2.79-134.15c-0.01-1.27-1.02-2.3-2.29-2.33
		c-38.07-0.87-75.51-0.59-113.29,0.03c0.03,0.76,0.07,1.51,0.11,2.24c-0.2-3.32-0.23-6.32-0.22-9.45c0.01-1.37-1.17-2.43-2.41-2.36
		C151.91,1.65,139.86,0.45,127.93,0c-1.46-0.04-2.56,1.18-2.42,2.57c0.37,3.88,0.57,9.75,0.59,11.4c-0.01-0.79-0.05-1.55-0.07-2.32
		c-36.75,0.75-74.49,1.59-111.84,1.73c-1.33,0-2.4,1.12-2.34,2.45c2.59,58.08,5,115,6.16,172.53c-17.37,0.06-16.65,0.26-17.36,1.01
		c-0.44,0.46-0.67,1.08-0.65,1.71c0.22,5.54,0.32,10.93,0.4,15.47c0.02,1.28,1.07,2.31,2.35,2.31c0.03,0,150.17-1.94,150.17-1.94
		L175.42,206.63z"/>
	<path id="XMLID_00000012440772983385130330000007653871536871612039_" class="st2" d="M165.63,55.96c-1.71-0.02-3.41-0.05-5.1-0.05
		l-29.52-0.27c-3.21-0.01-6.46,0.05-9.6,0.12c-1.74,0.04-3.47,0.07-5.22,0.1L110,55.97c-1.3,0.02-2.33,1.09-2.3,2.39
		c0.02,1.28,1.07,2.3,2.35,2.3c0.01,0,0.03,0,0.04,0l6.18-0.11c1.75-0.02,3.5-0.06,5.24-0.1c3.11-0.07,6.32-0.13,9.46-0.12
		l29.53,0.27c1.69,0,3.37,0.02,5.06,0.05c1.74,0.02,3.51,0.05,5.28,0.05c1.49,0,2.98-0.02,4.45-0.06l8.84-0.16
		c-1.6,1.58-3.11,3.29-4.31,5.34c-0.65,1.12-0.28,2.56,0.84,3.21c0.37,0.22,0.78,0.32,1.18,0.32c0.81,0,1.59-0.42,2.03-1.17
		c1.59-2.72,3.97-4.85,6.5-7.11c0.49-0.44,0.98-0.87,1.46-1.31c1.04-0.95,1.02-2.62-0.08-3.53c-3.5-2.93-6.36-4.97-9.52-7.97
		c-0.94-0.89-2.43-0.85-3.32,0.09c-1.85,1.95-0.02,3.57,4.82,7.44l-8.56,0.16C172.02,56.05,168.77,56,165.63,55.96z"/>
	<path id="XMLID_00000023995472661358609660000017982618884578559627_" class="st2" d="M206.86,105.7
		c-1.58,1.61-3.06,3.35-4.23,5.41c-1.52,2.71,2.57,5.01,4.09,2.3c3.09-5.49,8.68-7.99,8.57-10.41c-0.07-1.55-1.38-2.15-4.16-4.29
		c-2.15-1.65-4.17-3.21-6.34-5.2c-0.95-0.88-2.44-0.81-3.32,0.14c-1.79,1.94,0.1,3.64,4.92,7.35c-9.96,0.37-19.93,0.51-29.93,0.52
		l-53.81-0.3l-16.95,0.16c-1.3,0.01-2.34,1.07-2.33,2.37c0.01,1.29,1.06,2.33,2.35,2.33c0,0,16.85-0.16,16.94-0.16l53.78,0.3
		c8.02-0.01,15.07-0.09,21.55-0.25C201.09,105.9,204.01,105.8,206.86,105.7z"/>
</g>
</svg>
