<?xml version="1.0" encoding="utf-8"?>
<!-- Generator: Adobe Illustrator 27.5.0, SVG Export Plug-In . SVG Version: 6.00 Build 0)  -->
<svg version="1.1" id="Logo" xmlns="http://www.w3.org/2000/svg" xmlns:xlink="http://www.w3.org/1999/xlink" x="0px" y="0px"
	 viewBox="0 0 194.74 198.26" style="enable-background:new 0 0 194.74 198.26;" xml:space="preserve">
<style type="text/css">
	.st0{fill:#E0DFE6;}
	.st1{fill:#525D7D;stroke:#525D7D;stroke-width:3;stroke-miterlimit:10;}
</style>
<g id="XMLID_00000040545143416837219910000005870160224545542308_">
	<path id="XMLID_00000078734055609566314080000004798378503013030538_" class="st0" d="M52.76,152.63
		c7.64,4.14,17.48,2.21,25.77,0.84c9.19-1.51,18.78-3.32,27.16-7.52c1.12-0.56,2.04-1.62,2.67-2.85c0.19,1.3,1.1,2.43,2.7,2.49
		c0.11,0.16,0.2,0.32,0.33,0.47c2.44,2.68,7.02,3.15,10.49,3.32c3.6,0.18,8.63-0.04,11.57-2.28c1.23-0.94,1.94-2.33,2.14-3.74
		c2.46-0.4,4.84-1.07,6.89-2.48c5.99-4.11,8.25-16.26,1.24-20.11c4.08-2.01,2.45-8.39-2.25-8.77c-10.75-0.87-23.21,2.73-33.77,4.68
		c-0.17,0.03-0.32,0.08-0.47,0.14c0.02-2.71-0.02-5.34-0.27-7.79c-0.18-1.75-2.57-2.24-3.15-0.43c-1.42,4.4-2.63,8.76-3.68,13.27
		c-0.79,3.41-1.28,7.6-2.52,11.17c-7.15,0.51-14.37,2.03-21.43,2.91c-7.44,0.93-17.29,0.88-23.4,5.46
		C49.1,144.16,48.07,150.09,52.76,152.63z M107.15,122.17c0.38,0.21,0.83,0.35,1.33,0.36c8.81,0.07,18.89,0.94,28.01-0.21
		c-0.92,1.25-1.31,2.84-0.72,4.38c2.43,6.35-3.63,6.88-8.25,8.04c-5.73,1.44-11.38,2.93-17.01,4.71c-0.55,0.17-0.98,0.48-1.32,0.85
		c0.06-0.79-0.01-1.58-0.27-2.28C107.24,133.33,107.1,127.75,107.15,122.17z"/>
	<path id="XMLID_00000105394343903445330070000009022622605275089323_" class="st0" d="M113.57,106c7.61-1.17,15.29-2.62,22.36-5.72
		c4.42-1.94,1.25-8.95-3.24-7.68c-7.07,1.99-13.88,4.71-21.03,6.48C107.07,100.21,109.11,106.68,113.57,106z"/>
	<path id="XMLID_00000153675463137252939800000005112028947991229103_" class="st0" d="M107.72,91.52
		c1.81-6.49,5.63-12.4,10.75-16.77c1.65-1.41-0.5-4.16-2.31-3c-6.87,4.39-11.44,10.49-13.74,18.31
		C101.41,93.46,106.77,94.93,107.72,91.52z"/>
	<path id="XMLID_00000030475153255664068140000005455676505464096640_" class="st0" d="M119.16,173.06c-6.89,1.78-14,2.28-21.9,1.36
		c-8.24-0.97-16.3-3.2-24.38-5c-6.93-1.55-14.04-2.98-20.51-6.03c-23.79-11.23-33.3-36.25-41.34-59.38c-0.4-1.16-2.16-1.31-2.51,0
		c-7.72,29.4,15.76,57.65,39.31,71.9c16.86,10.21,45.81,20.08,69.21,16.53c21.48-0.97,40.09-18.56,51.44-35.43
		c13.57-20.18,17.47-46.1,19.8-69.78c0.14-1.44-1.98-1.56-2.4-0.33c-7.11,20.95-15.49,41.33-29.31,58.81
		C146.06,158.99,133.55,166.48,119.16,173.06z"/>
	<path id="XMLID_00000150780948790887998550000010436957122286630056_" class="st1" d="M29.12,167.2
		c59.67,61.92,163.93,22.83,163.93-79.04c0-64.04-49.5-91.68-114.42-85.78C9.12,8.69-27.26,108.69,29.12,167.2z M188.16,88.15
		c0,97.42-98.86,134.44-155.52,75.65C-20.85,108.29,13.56,13.2,79.07,7.24C141.07,1.62,188.16,27.66,188.16,88.15z"/>
	<path id="XMLID_00000062186751592499943110000000260413689305333669_" class="st1" d="M42.1,92.72c5.05,1.34,10.28,2.01,15.54,2.01
		c37.11,0,39.47-22.29,41.03-37.05c1.17-11.05,2.18-15.23,8.18-15.23c10.9,0,11.55,1.32,11.55,23.55c0,3.13-0.12,6.02-0.36,8.76
		c0.59-0.14,1.17-0.29,1.81-0.41c-13.5,2.59-15.08,10.26-15.18,26.87c0.01-0.28,0.07-0.54,0.16-0.78c-0.19,0.6-0.16,1.27,0.08,1.86
		c-0.44-0.91-0.25-1.55-0.25,0.69c0,14.35,1.55,26.45,1.41,42.03c-25.2,0.22-26.53,0.6-35.12,2.29c-6.21,1.22-12.29,2.44-18.46,1.14
		c-3.16-0.67-4.17,4.12-1.01,4.79c7.06,1.49,13.72,0.19,20.41-1.13c8.66-1.71,9.12-1.97,36.53-2.22c0.07,0,0.14,0,0.2,0
		c27.53-0.25,38.12-1.02,38.39-29.53c-0.06,0.94-0.47,1.49-1.08,1.85c0.65-0.44,1.09-1.17,1.09-2.02c0-0.13,0-0.26-0.03-0.39
		c0.06,0.35,0.04,0.9,0.04-0.55c0-8.18-0.4-14.85-1.12-20.31l0,0c0-0.09,0.01-0.17,0-0.26c-0.02-0.15-0.05-0.3-0.09-0.44
		c-0.09-0.29-0.2-0.53-0.33-0.73c0.13,0.2,0.24,0.44,0.33,0.73c-2.95-21.02-10.65-24.01-22.85-23.54c0.22-2.73,0.33-5.6,0.33-8.68
		c0-20.69,0-28.44-16.44-28.44c-26.94,0,6.67,52.27-49.21,52.27c-12.83,0-16.23-4.05-17.28-0.11C40.02,91.03,40.8,92.37,42.1,92.72z
		 M122.71,77.24c-0.12,0.74-0.56,1.41-1.38,1.75C122.14,78.66,122.59,77.98,122.71,77.24z M144.75,122.64
		c-0.65,0.15-1.39,0.24-2.14,0.34C143.33,122.87,144.05,122.76,144.75,122.64z M144.94,100.88c0.03-0.02,0.07-0.04,0.1-0.07
		C145.01,100.83,144.98,100.86,144.94,100.88z M142.14,118.1c-10.6,1.68-21.26,2.59-31.93,3.27c-0.32-5.82-0.62-11.78-0.64-17.64
		c-0.4,0-0.61,0.01-0.73,0.01c0.12,0,0.33,0,0.73-0.01c11.33-0.08,22.51-1.08,33.72-2.31c-0.64,0.1-1.31,0.14-1.93,0.21
		C141.84,106.13,142.11,111.56,142.14,118.1z M108.26,103.74c0.05,0,0.08,0,0.12,0C108.34,103.74,108.32,103.74,108.26,103.74z
		 M107.13,98.85c-0.1,0-0.19,0.02-0.29,0.03c0.09-0.01,0.18-0.03,0.28-0.03C107.12,98.85,107.13,98.85,107.13,98.85z M104.92,100.23
		c-0.02,0.04-0.04,0.08-0.05,0.12C104.89,100.31,104.9,100.27,104.92,100.23z M107.11,103.74c-0.19,0-0.37-0.02-0.53-0.05
		C106.74,103.71,106.92,103.74,107.11,103.74z M107.75,121.53c-1.99,0.12-2.66,2.06-2.08,3.45
		C105.1,123.59,105.76,121.65,107.75,121.53z M106.07,145.78c0,0.25,0,0.49-0.01,0.73C106.06,146.26,106.07,146.02,106.07,145.78z
		 M106.41,148.53c0.2,0.42,0.46,0.74,0.77,0.96C106.83,149.25,106.57,148.93,106.41,148.53z M107.37,149.6
		c0.09,0.05,0.18,0.11,0.28,0.14C107.54,149.71,107.46,149.65,107.37,149.6z M109.04,149.82c0.41-0.1,0.8-0.3,1.12-0.58
		C109.84,149.52,109.46,149.73,109.04,149.82z M110.29,149.12c0.03-0.04,0.06-0.08,0.1-0.11
		C110.35,149.05,110.32,149.09,110.29,149.12z M110.94,147.82c0.02-0.16,0.04-0.33,0.03-0.51
		C110.97,147.48,110.96,147.65,110.94,147.82z M111.01,144.96c0.02-3.01-0.03-9.04-0.54-18.67c5.73-0.34,19.62-1.4,31.62-3.23
		C141.46,143.5,135.2,144.69,111.01,144.96z M145.38,122.46c0.01,0,0.02-0.01,0.02-0.01C145.4,122.46,145.39,122.46,145.38,122.46z
		 M145.82,99.63c-0.12,0.49-0.36,0.84-0.69,1.1C145.45,100.43,145.69,100.05,145.82,99.63z M145.41,97.41
		c-0.12-0.16-0.24-0.3-0.38-0.41C145.17,97.11,145.29,97.26,145.41,97.41z M143.83,96.56c0.02,0,0.04,0.01,0.07,0.01
		C143.88,96.57,143.85,96.56,143.83,96.56z M144.47,96.7c0.13,0.04,0.24,0.12,0.35,0.19C144.71,96.82,144.59,96.75,144.47,96.7z
		 M140.72,96.77c-10.61,1.14-20.68,1.94-31.13,2.03c0.27-14.94,2.31-17.95,11.18-19.65c-0.55,0.11-1.07,0.22-1.57,0.34
		c0.38,0.18,0.8,0.28,1.23,0.24C131.69,78.89,137.88,79.34,140.72,96.77z"/>
</g>
</svg>
