<?xml version="1.0" encoding="utf-8"?>
<!-- Generator: Adobe Illustrator 27.5.0, SVG Export Plug-In . SVG Version: 6.00 Build 0)  -->
<svg version="1.1" id="Txt" xmlns="http://www.w3.org/2000/svg" xmlns:xlink="http://www.w3.org/1999/xlink" x="0px" y="0px"
	 viewBox="0 0 121.53 121.6" style="enable-background:new 0 0 121.53 121.6;" xml:space="preserve">
<style type="text/css">
	.st0{fill:#FF4E00;}
	.st1{fill:#1D1D1B;}
</style>
<g id="XMLID_00000168093138588989140150000014747692499644367792_">
	<path id="XMLID_00000059999224577741594690000011616292556419326360_" class="st0" d="M53.96,69.24c0-18.76,0-36.06,0-53.35
		c0-2.53-0.01-5.07,0.01-7.6c0.02-4.62,1.5-8.3,6.82-8.29c5.29,0.01,6.8,3.58,6.79,8.27c-0.03,17.92-0.01,35.85,0,53.77
		c0,1.93,0,3.86,0,7.31c5.77-5.75,10.62-10.6,15.48-15.44c1.65-1.65,3.23-3.39,4.97-4.94c3.27-2.89,6.83-3.18,9.81,0.14
		c2.95,3.29,2.26,6.82-0.75,9.88c-7.92,8.06-15.86,16.09-23.8,24.14c-2.33,2.36-4.62,4.75-7,7.05c-3.52,3.4-7.25,3.7-10.79,0.16
		C45.04,79.86,34.64,69.32,24.3,58.73c-3-3.07-3.49-6.72-0.32-9.86c3.43-3.4,7.03-2.49,10.25,0.73
		C40.41,55.76,46.6,61.92,53.96,69.24z"/>
	<path id="XMLID_00000024717946183928991140000007300328652272216733_" class="st1" d="M60.71,121.64
		c-10.72,0-21.44,0.16-32.16-0.04c-14.53-0.27-26.5-11.11-28.4-25.39c-0.78-5.88,1.43-10.12,5.82-10.33
		c5.48-0.26,7.19,3.28,7.75,8.18c0.95,8.39,6.86,13.85,15.29,13.91c21.05,0.16,42.1,0.15,63.15,0.03
		c8.82-0.05,14.52-5.24,15.71-14.12c0.57-4.3,1.94-7.67,6.77-8.07c4.18-0.35,6.97,3.12,6.9,8.23c-0.21,14.7-13.24,27.35-28.66,27.57
		C82.15,121.78,71.43,121.65,60.71,121.64z"/>
</g>
</svg>
