<?xml version="1.0" encoding="utf-8"?>
<!-- Generator: Adobe Illustrator 27.5.0, SVG Export Plug-In . SVG Version: 6.00 Build 0)  -->
<svg version="1.1" id="Logo" xmlns="http://www.w3.org/2000/svg" xmlns:xlink="http://www.w3.org/1999/xlink" x="0px" y="0px"
	 viewBox="0 0 159.75 96.17" style="enable-background:new 0 0 159.75 96.17;" xml:space="preserve">
<style type="text/css">
	.st0{fill:#E0DFE6;}
	.st1{fill:#525D7D;}
</style>
<g id="XMLID_00000061450404296037957960000006391413718961044106_">
	<path id="XMLID_00000012438333737159928870000003980634258759499962_" class="st0" d="M79.16,91.02
		c25.77-2.24,60.64-6.87,75.58-31.21c3.86-6.28-5.01-13.09-10.17-7.85c-5.74,5.83-11.38,10.6-18.05,14.25
		c-0.06-8.59-3.39-20.18-8.95-26.84c-1.43-1.71-3.82-0.14-3.92,1.63c-0.01,0.24,0.02,0.45,0.08,0.67c0.1,0.81,0.22,1.61,0.38,2.41
		c-0.91-0.03-1.84,0.67-1.82,1.68c0.11,4.92,0.17,10.96-2.47,15.32c-2.41,3.99-7.33,6.52-10.94,9.32c-1.72,1.33-2.24,3.11-1.99,4.85
		c-6.49,1.1-13.05,1.85-19.47,2.39c-4,0.33-7.84,0.04-11.59-0.64c-0.2-0.33-0.43-0.66-0.69-0.99c-4.41-5.45-10.66-8.6-14.46-14.78
		c-3.02-4.92-4-11.22-7.46-15.76c1.02-2.23,2.34-4.36,3.72-6.42c0.54-0.8-0.62-1.6-1.29-0.99c-5.5,5.03-12.18,9.62-15.32,16.6
		c-0.96,2.15-1.56,4.74-1.66,7.37c-1.5-0.93-2.98-1.9-4.44-2.92c-4.24-2.97-7.67-6.87-12.89-7.57c-1.43-0.19-2.38,0.75-2.18,2.18
		c1.57,11.42,18.92,21.29,28.21,26.3C50.51,87.12,64.04,92.33,79.16,91.02z"/>
	<path id="XMLID_00000034055551388589441130000015482118490311256988_" class="st1" d="M73.18,54.72c0.5,0.57,1.04,1.11,1.67,1.53
		c1.88,1.24,4.12,1.74,6.34,1.44c1.61-0.22,3.01-0.78,4.19-1.97c1.36-1.36,1.66-3.03,1.88-4.82c0.39-3.1-2.82-5.32-5.68-5.14
		c-0.13-4.22-2.89-8.34-8.34-8.34C62.14,37.41,62.1,54.64,73.18,54.72z"/>
	<path id="XMLID_00000152254725241930055060000002987711622843397549_" class="st1" d="M0.31,55.52c-0.99,2.12,0.57,3.27,2.16,4.88
		c14.36,14.51,33.82,34.16,68.46,35.68l5.82,0.09c45.88-0.32,65.06-15.13,82.49-40.54c0.68-1,0.68-2.31-0.01-3.31
		C143.63,29.86,118.2,0,77.49,0C45.38,0,16.52,20.75,0.31,55.52z M70.86,93.33c-0.04-1.8,1.2-2.77,2.55-2.92
		C72.06,90.56,70.81,91.54,70.86,93.33z M77.49,5.82c37.01,0,60.87,27,75.8,48.17c-16.23,23.07-34.65,36.37-78.04,36.37
		c-32.31,0-50.89-16.08-68.79-34.21C21.83,24.59,48.26,5.82,77.49,5.82z"/>
	<path id="XMLID_00000065757131980805952930000015100330717246296450_" class="st1" d="M77.97,81.07c38.26,0,55.44-63.25,0.27-67.49
		c-19.76-1.49-33.64,17.94-33.64,35.34C44.59,66.05,60.19,81.07,77.97,81.07z M77.79,19.38c11.97,0.92,19.53,3.99,24.5,9.95
		c13.57,16.29-0.47,45.92-24.31,45.92c-14.42,0-27.56-12.55-27.56-26.33C50.41,34.43,61.7,18.15,77.79,19.38z"/>
	<path id="XMLID_00000109022026327321081860000013413943624967420295_" class="st1" d="M78.62,61.03c15.98,0,21.92-25.78,0.24-27.45
		c-8.13-0.65-13.84,7.1-13.84,14.29C65.03,54.87,71.38,61.03,78.62,61.03z M78.41,39.37c14.34,1.1,8.7,15.83,0.21,15.83
		c-4.38,0-7.78-3.95-7.78-7.35C70.84,43.72,74.09,39.03,78.41,39.37z"/>
</g>
</svg>
