<?xml version="1.0" encoding="utf-8"?>
<!-- Generator: Adobe Illustrator 27.6.1, SVG Export Plug-In . SVG Version: 6.00 Build 0)  -->
<svg version="1.1" id="Colors" xmlns="http://www.w3.org/2000/svg" xmlns:xlink="http://www.w3.org/1999/xlink" x="0px" y="0px"
	 viewBox="0 0 239.58 233.82" style="enable-background:new 0 0 239.58 233.82;" xml:space="preserve">
<style type="text/css">
	.st0{fill:#FFCC80;}
	.st1{fill:#E0DFE6;}
	.st2{fill:#525D7D;}
</style>
<g id="XMLID_00000097463362253631237930000012622607688250857144_">
	<path id="XMLID_00000181055428914959564400000017530170424934319016_" class="st0" d="M7.85,39.54c0.93-0.88,1.85-1.78,2.77-2.68
		c0.99,2.56,4.34,4.13,6.71,1.61c1.84-1.96,3.58-3.99,5.29-6.05c1.32,0.58,2.84,0.43,4.09-1.07c4.39-5.29,8.12-10.83,11.21-16.98
		c2.17-4.3-3.23-8.72-6.84-5.21c-0.51,0.49-1.02,1-1.54,1.5c-1.33-0.63-2.97-0.54-4.32,0.86c-2.26,2.34-4.6,4.55-7,6.71
		c-4.66,2.4-8.7,5.75-12.19,9.95c-1.99,2.39-0.37,6.26,2.28,6.51c-0.79,0.98-1.6,1.94-2.38,2.93C4.87,38.96,6.54,40.77,7.85,39.54z"
		/>
	<path id="XMLID_00000047027339758725382230000010207590610238383747_" class="st0" d="M214.75,208.6c-0.89,1.2-1.22,2.87-0.46,4.54
		c2.12,4.66,5.58,10.31,10.24,12.78c4.6,2.44,8.72-3.02,5.9-6.94c0.06-0.65-0.07-1.32-0.5-1.94c-1.81-2.58-3.43-5.3-5.11-7.96
		c-0.8-1.26-2.45-1.28-3.42-0.51c-0.16-0.16-0.33-0.31-0.49-0.46c-0.39-0.37-0.79-0.64-1.2-0.84
		C218.31,208.23,216.52,208.69,214.75,208.6z"/>
	<path id="XMLID_00000174581700830827899850000007800257286854021775_" class="st1" d="M193.81,170.71
		c-1.92,1.43-2.95,3.74-1.66,6.02c0.92,1.64-1.53,4.87-3.37,6.71c0.82-1.69,0.79-3.78-0.77-5.08c-6.53-5.42-13.8,0.43-19.97,3.21
		c-2.74,1.23-0.69,4.91,1.84,4.52c2.63-0.4,5.16-1.38,7.79-1.71c2.22-0.27,3.67,0.48,5.58,1.27c-1.08,0.1-2.16,0.18-3.16,0.48
		c-2.87,0.84-4.45,2.17-5.41,4.95c-0.37,1.06,1.1,1.43,1.67,0.68c2.89-3.84,8.86-0.19,12.56-0.7c2.75-0.38,4.82-1.99,6.67-3.97
		c1.11-1.19,2.16-2.52,3.03-3.94c1.25,3.87,3.52,8.79,3.84,9.58c2.05,4.95,3.5,10.43,7.61,14.04c1.32,1.16,3,1.75,4.69,1.83
		c1.78,0.09,3.56-0.37,4.96-1.35c1.67-1.17,2.78-3.05,2.63-5.57c-0.52-8.83-7.46-17.79-12.24-25.04
		C206.53,171.25,200.22,165.97,193.81,170.71z"/>
	<path id="XMLID_00000041981064994736853590000004124760967573477784_" class="st1" d="M61.44,38.66
		c8.45,11.72,18.66,21.62,28.87,31.77c10.77,10.71,20.36,22.09,30.14,33.68c9.88,11.72,20.37,22.76,31.59,33.19
		c11.25,10.46,23.89,20.49,32.94,33c2.98,4.12,9.84,1.97,8.57-3.49c-3.22-13.79-17.91-23.93-27.75-33.11
		c-11.28-10.52-22.65-20.87-33.03-32.3c-10.07-11.09-20.19-22.02-31.75-31.6C88.11,59.11,74.18,49.7,61.65,38.51
		C61.54,38.41,61.35,38.54,61.44,38.66z"/>
	<path id="XMLID_00000012455295404745105330000016168024258455102372_" class="st2" d="M9.11,46.45c0.22,0.39,0.54,0.73,0.91,0.99
		c-0.07-0.05-0.15-0.06-0.22-0.12c40.29,34.3,133.08,131.35,157.46,152.65c0.55,0.47,1.26,0.72,2.02,0.67
		c-0.76,0.06-1.47-0.2-2-0.65c1.16,1.01,2.37,2.06,3.71,3.21c0.18,0.16,0.39,0.29,0.6,0.39c68.7,32.87,65.37,31.12,67.09,29.54
		c0.85-0.81,1.07-1.93,0.75-2.9c-2.99-8.99-6.6-17.71-10.43-25.95c-0.06-0.33-0.21-0.66-0.46-1.01
		c-5.21-11.1-16.57-32.22-17.96-33.43c-58.61-50.91-43.89-33.37-111.51-103.39C78.86,45.51,58.02,23.94,42.75,9.75
		c-0.23-0.2-0.44-0.32-0.66-0.44c0.22,0.11,0.44,0.24,0.63,0.41C29.1-2.92,30.14-1.05,26.31,3.18C21.63,8.37,14.46,14.02,8.81,20.27
		C1.38,28.49-1.73,37.33,0.95,39.68c2.89,2.54,5.85,5.08,8.79,7.58C9.47,47.03,9.26,46.75,9.11,46.45z M10.82,47.83
		c-0.07-0.02-0.14-0.04-0.21-0.07C10.68,47.79,10.75,47.81,10.82,47.83z M9.09,46.42c-0.01-0.01-0.01-0.03-0.02-0.04
		C9.08,46.39,9.08,46.4,9.09,46.42z M41.06,15.74c14.95,14.07,34.78,34.6,54.03,54.54c56.51,58.52,51.32,52.27,101.86,95.15
		c-4.16,0.55-8.19,1.7-10.61,3.93c-0.03,0.28-0.09,0.54-0.18,0.78c0.09-0.24,0.16-0.5,0.18-0.78c0.07-0.83-0.21-1.68-0.87-2.28
		C89.82,78.85,49.73,34.35,49.73,34.35c-2.91-2.63-5.94-5.25-9.01-7.78c-2.81-2.31-6.34,1.93-3.52,4.27
		c2.97,2.45,5.9,4.98,8.72,7.52c2.28,2.52,42.71,46.92,135.8,132.79c0.98,0.9,2.31,0.91,3.29,0.31c-0.12,0.07-0.23,0.16-0.36,0.21
		c-1.21,2.64-0.27,5.34,0.42,7.25c0.72,1.99,0.81,2.56,0.48,2.93c-2.22,2.45-6.46-2.07-11.89,0.02c-0.03,0.24-0.11,0.47-0.19,0.68
		c0.09-0.21,0.16-0.44,0.19-0.68c0.31-2.23-0.94-2.12-7.37-7.93c-9.62-8.69-18.22-18.95-27.09-28.57
		C104.62,107.88,65.08,76.1,29.9,40.6c-2.58-2.6-6.49,1.3-3.93,3.89c38.77,39.12,75.86,67.55,116.05,112.21
		c8.55,9.51,17.14,19.03,27.2,26.94c0.34,0.27,0.72,0.42,1.11,0.5c-2.19,2.3-3.34,5.05-3.82,8.02c0.01-0.08,0.02-0.17,0.03-0.25
		C141.87,169.23,49.19,73.5,15.47,44.88C29.8,28.05,37.46,20.01,41.06,15.74z M41.15,15.63c1.45-1.73,2.22-2.83,2.48-3.64
		c-0.04,0.59-0.26,1.18-0.69,1.65C42.36,14.29,41.75,14.96,41.15,15.63z M185.99,170.44c-0.07,0.12-0.13,0.25-0.21,0.36
		C185.86,170.69,185.92,170.56,185.99,170.44z M185.56,171.02c-0.1,0.1-0.2,0.21-0.31,0.3
		C185.36,171.24,185.46,171.13,185.56,171.02z M173.38,182.73c-0.08,0.15-0.16,0.29-0.26,0.43
		C173.22,183.02,173.3,182.88,173.38,182.73z M173.01,183.28c-0.29,0.33-0.65,0.59-1.06,0.75
		C172.36,183.87,172.72,183.62,173.01,183.28z M171.81,184.07c-0.14,0.04-0.27,0.08-0.42,0.1
		C171.53,184.15,171.67,184.12,171.81,184.07z M171.01,184.21c-0.05,0-0.1,0-0.14,0C170.91,184.21,170.96,184.21,171.01,184.21z
		 M166.42,192.81c-0.04,0.34-0.08,0.68-0.11,1.03C166.35,193.49,166.38,193.15,166.42,192.81z M166.27,194.56
		c-0.02,0.37-0.02,0.74-0.03,1.11C166.24,195.3,166.25,194.92,166.27,194.56z M166.32,198.09c-0.05-0.61-0.07-1.2-0.08-1.79
		C166.25,196.89,166.27,197.49,166.32,198.09z M209.82,221.5c0.08,0.09,0.17,0.17,0.26,0.25
		C209.99,221.67,209.91,221.59,209.82,221.5z M211.61,222.4c0.1,0.01,0.2,0.02,0.3,0.02C211.81,222.42,211.71,222.41,211.61,222.4z
		 M210.16,221.8c0.11,0.09,0.23,0.17,0.36,0.24C210.39,221.97,210.27,221.89,210.16,221.8z M210.57,222.08
		c0.13,0.07,0.27,0.13,0.4,0.18C210.84,222.21,210.7,222.15,210.57,222.08z M211.06,222.28c0.12,0.04,0.25,0.07,0.38,0.1
		C211.31,222.36,211.19,222.33,211.06,222.28z M209.7,221.37c-0.06-0.07-0.1-0.14-0.15-0.21
		C209.6,221.23,209.65,221.31,209.7,221.37z M209.39,220.93c-0.02-0.04-0.04-0.09-0.06-0.13
		C209.35,220.85,209.37,220.89,209.39,220.93z M209.17,220.46c-0.01-0.01-0.01-0.03-0.01-0.05
		C209.17,220.43,209.17,220.44,209.17,220.46z M212.19,222.4c0.06-0.01,0.13-0.02,0.19-0.03
		C212.31,222.38,212.25,222.39,212.19,222.4z M212.75,222.26c0.04-0.01,0.07-0.03,0.11-0.04
		C212.82,222.24,212.78,222.25,212.75,222.26z M213.25,222.01c0.04-0.02,0.07-0.05,0.11-0.07
		C213.32,221.97,213.28,221.99,213.25,222.01z M213.68,221.67c0.07-0.07,0.14-0.13,0.2-0.21c-0.06,0.07-0.1,0.12-0.1,0.12
		C213.75,221.62,213.71,221.64,213.68,221.67z M232.1,225.99c-4.22-1.91-9.78-4.49-15.85-7.33c-0.3,0.34-0.64,0.74-0.97,1.14
		c4.15-4.97,7.58-8.16,9.98-10.4C227.69,214.77,230.02,220.3,232.1,225.99z M226.55,208.18c1.28-1.23,2.1-2.15,2.38-2.98
		C228.73,206.22,227.82,207.05,226.55,208.18z M226.47,201.99c0.09,0.01,0.17,0.02,0.25,0.04
		C226.63,202.01,226.55,201.99,226.47,201.99z M227.01,202.1c0.08,0.03,0.16,0.05,0.24,0.09
		C227.18,202.15,227.1,202.12,227.01,202.1z M227.54,202.33c0.07,0.04,0.15,0.08,0.22,0.13
		C227.69,202.41,227.61,202.37,227.54,202.33z M228.2,202.83c-0.05-0.05-0.1-0.1-0.16-0.14
		C228.09,202.73,228.15,202.77,228.2,202.83z M222.82,204.08c0.51-0.47,1-0.93,1.53-1.41c-5.26,4.74-10.32,9.81-14.68,15.23
		c-0.14,0.17-0.25,0.35-0.34,0.52c0.09-0.18,0.2-0.35,0.34-0.52c0.45-0.56,0.92-1.12,1.4-1.68c-40.3-18.98-36.35-17.1-39.28-19.65
		c-0.13-3.8,0.63-6.51,2.39-8.46c1.52-1.72,2.75-1.48,5.52-0.7c2.63,0.74,6.57,1.88,9.96-1.85c2.64-2.93,1.42-6.29,0.62-8.52
		c-0.82-2.26-0.88-2.87-0.36-3.44c0.03-0.04,0.07-0.07,0.1-0.11c1.68-1.68,6.67-2.8,12.92-2.94c1.23,1.05,2.46,2.11,3.67,3.16
		C211.68,182.44,217.44,192.78,222.82,204.08z M226.15,201.98c-0.08,0-0.16,0-0.24,0.01C225.99,201.98,226.07,201.98,226.15,201.98z
		 M225.58,202.05c-0.07,0.02-0.15,0.03-0.22,0.05C225.43,202.08,225.5,202.06,225.58,202.05z M225.01,202.25
		c-0.06,0.03-0.12,0.05-0.18,0.08C224.89,202.3,224.95,202.27,225.01,202.25z M209.12,218.94c0.01-0.03,0.02-0.05,0.03-0.08
		C209.15,218.89,209.13,218.92,209.12,218.94z M205.02,170.29c0.12-0.05,0.2-0.14,0.31-0.21
		C205.22,170.15,205.14,170.24,205.02,170.29z M205.89,169.7c0.15-0.15,0.25-0.35,0.36-0.54
		C206.14,169.35,206.05,169.55,205.89,169.7z M206.49,168.82c0.14-0.33,0.22-0.7,0.21-1.08
		C206.7,168.12,206.62,168.48,206.49,168.82z M40.23,9.11c-0.67,0.23-1.28,0.75-1.84,1.32c0.15-0.16,0.3-0.33,0.44-0.49
		C39.22,9.51,39.71,9.24,40.23,9.11z M5.68,36.48C7.49,25.8,22.38,15.89,30.7,6.57c2.92,2.27,4.94,4.16,6.3,5.41
		C27.92,22.09,18.42,32.82,9.46,43.41c0.6-0.71,1.2-1.41,1.8-2.11C9.39,39.7,7.52,38.09,5.68,36.48z"/>
</g>
</svg>
