<?xml version="1.0" encoding="utf-8"?>
<!-- Generator: Adobe Illustrator 27.6.1, SVG Export Plug-In . SVG Version: 6.00 Build 0)  -->
<svg version="1.1" id="Txt" xmlns="http://www.w3.org/2000/svg" xmlns:xlink="http://www.w3.org/1999/xlink" x="0px" y="0px"
	 viewBox="0 0 141.2 141.96" style="enable-background:new 0 0 141.2 141.96;" xml:space="preserve">
<style type="text/css">
	.st0{fill:#525D7D;}
</style>
<path class="st0" d="M0,77.83C-0.33,38.9,34.77,8.16,74.02,14.39c3.5,0.56,6.54,1.81,5.91,5.81c-0.66,4.21-3.86,4.52-7.69,3.94
	c-29.79-4.54-57.7,16.44-61.8,46.3c-4.06,29.57,17.18,57.39,46.68,61.14c29.8,3.79,57.36-17.32,60.86-46.92
	c0.62-5.23,0.11-10.64-0.37-15.92c-0.32-3.53,0.42-6.21,4.01-6.82c3.7-0.63,5.15,1.85,5.85,5.26c6.56,32.37-16.39,66.21-49.83,73.34
	C37.64,149.05,0.04,118.69,0,77.83z"/>
<path class="st0" d="M84.6,50.39C101.51,33.38,117.93,16.87,134.69,0c2.4,2.61,4.41,4.8,6.5,7.08
	c-16.42,16.39-32.87,32.8-49.96,49.85c4.21,4.01,8.06,7.2,11.26,10.95c1.5,1.76,2.76,4.87,2.22,6.85c-0.4,1.45-3.87,2.83-6.02,2.9
	c-9.16,0.32-18.33,0.17-27.49,0.12c-5.38-0.03-6.92-1.51-6.95-6.74c-0.06-9.33-0.2-18.67,0.13-27.99c0.07-2.09,1.55-5.26,3.16-5.85
	c1.68-0.62,4.77,0.71,6.4,2.14C77.67,42.59,80.89,46.46,84.6,50.39z"/>
</svg>
