<?xml version="1.0" encoding="utf-8"?>
<!-- Generator: Adobe Illustrator 27.5.0, SVG Export Plug-In . SVG Version: 6.00 Build 0)  -->
<svg version="1.1" id="Layer_1" xmlns="http://www.w3.org/2000/svg" xmlns:xlink="http://www.w3.org/1999/xlink" x="0px" y="0px"
	 viewBox="0 0 380.2 380" style="enable-background:new 0 0 380.2 380;" xml:space="preserve">
<style type="text/css">
	.st0{fill:none;stroke:#231F20;stroke-width:5;stroke-miterlimit:10;stroke-dasharray:15.1669,15.1669;}
	.st1{fill-rule:evenodd;clip-rule:evenodd;fill:#231F20;}
	.st2{fill:none;stroke:#525D7D;stroke-width:5;stroke-miterlimit:10;stroke-dasharray:15.1669,15.1669;}
	.st3{fill-rule:evenodd;clip-rule:evenodd;fill:#525D7D;}
</style>
<g>
	<g id="XMLID_00000070089208204792300820000002407768381971730566_">
		<g id="XMLID_00000118372694492897872250000001447309926847690898_">
			<circle id="XMLID_00000047048735344817711940000010711151681523393940_" class="st0" cx="190.1" cy="190" r="186.7"/>
		</g>
	</g>
	<path id="XMLID_00000065051045558483331570000000872313604712106635_" class="st1" d="M140.1,82.2h100c32.1,0,58.6,26.4,58.6,58.6
		v99.5c0,32.1-26.4,58.6-58.6,58.6h-100c-32.1,0-58.6-26.4-58.6-58.6v-99.5C81.5,108.7,108,82.2,140.1,82.2L140.1,82.2z
		 M248.4,120.1L248.4,120.1c6.7,0,12.4,5.7,12.4,12.4l0,0c0,6.7-5.7,12.4-12.4,12.4l0,0c-7.3,0-12.4-5.7-12.4-12.4l0,0
		C236,125.8,241.2,120.1,248.4,120.1L248.4,120.1z M189.9,131.5h0.5c32.1,0,59.1,26.9,59.1,59.1l0,0c0,32.6-26.9,59.1-59.1,59.1
		h-0.5c-32.1,0-58.6-26.4-58.6-59.1l0,0C131.3,158.4,157.7,131.5,189.9,131.5L189.9,131.5z M189.9,151.7h0.5
		c21.2,0,38.9,17.6,38.9,38.9l0,0c0,21.8-17.6,39.4-38.9,39.4h-0.5c-21.2,0-38.9-17.6-38.9-39.4l0,0
		C151,169.3,168.6,151.7,189.9,151.7L189.9,151.7z M140.6,100.9h99c22.3,0,40.4,18.1,40.4,40.4v98.5c0,22.3-18.1,40.4-40.4,40.4h-99
		c-22.3,0-40.4-18.1-40.4-40.4v-98.5C100.2,119,118.3,100.9,140.6,100.9L140.6,100.9z"/>
	<g id="XMLID_4_">
		<g id="XMLID_50_">
			<circle id="XMLID_51_" class="st2" cx="190.1" cy="190" r="186.7"/>
		</g>
	</g>
	<path id="XMLID_205_" class="st3" d="M140.1,82.2h100c32.1,0,58.6,26.4,58.6,58.6v99.5c0,32.1-26.4,58.6-58.6,58.6h-100
		c-32.1,0-58.6-26.4-58.6-58.6v-99.5C81.5,108.7,108,82.2,140.1,82.2L140.1,82.2z M248.4,120.1L248.4,120.1
		c6.7,0,12.4,5.7,12.4,12.4l0,0c0,6.7-5.7,12.4-12.4,12.4l0,0c-7.3,0-12.4-5.7-12.4-12.4l0,0C236,125.8,241.2,120.1,248.4,120.1
		L248.4,120.1z M189.9,131.5h0.5c32.1,0,59.1,26.9,59.1,59.1l0,0c0,32.6-26.9,59.1-59.1,59.1h-0.5c-32.1,0-58.6-26.4-58.6-59.1l0,0
		C131.3,158.4,157.7,131.5,189.9,131.5L189.9,131.5z M189.9,151.7h0.5c21.2,0,38.9,17.6,38.9,38.9l0,0c0,21.8-17.6,39.4-38.9,39.4
		h-0.5c-21.2,0-38.9-17.6-38.9-39.4l0,0C151,169.3,168.6,151.7,189.9,151.7L189.9,151.7z M140.6,100.9h99
		c22.3,0,40.4,18.1,40.4,40.4v98.5c0,22.3-18.1,40.4-40.4,40.4h-99c-22.3,0-40.4-18.1-40.4-40.4v-98.5
		C100.2,119,118.3,100.9,140.6,100.9L140.6,100.9z"/>
</g>
</svg>
