<?xml version="1.0" encoding="utf-8"?>
<!-- Generator: Adobe Illustrator 27.5.0, SVG Export Plug-In . SVG Version: 6.00 Build 0)  -->
<svg version="1.1" id="Layer_1" xmlns="http://www.w3.org/2000/svg" xmlns:xlink="http://www.w3.org/1999/xlink" x="0px" y="0px"
	 viewBox="0 0 380.2 380" style="enable-background:new 0 0 380.2 380;" xml:space="preserve">
<style type="text/css">
	.st0{fill:none;stroke:#525D7D;stroke-width:5;stroke-miterlimit:9.9999;stroke-dasharray:15.1668,15.1668;}
	.st1{fill-rule:evenodd;clip-rule:evenodd;fill:#525D7D;}
</style>
<g>
	<g id="XMLID_29_">
		<g id="XMLID_42_">
			<ellipse id="XMLID_43_" class="st0" cx="190.1" cy="190" rx="186.7" ry="186.7"/>
		</g>
	</g>
	<path id="XMLID_162_" class="st1" d="M97.4,156.7h37.1v124.6H97.4C97.4,281.2,97.4,156.7,97.4,156.7z M115.8,93.5
		c12.4,0,22.4,10.1,22.4,22.4c0,12.4-10.1,22.4-22.4,22.4c-12.4,0-22-10.1-22-22.4C93.8,103.6,103.4,93.5,115.8,93.5L115.8,93.5z
		 M156.5,156.7h36.6v17.4c7.8-11.4,20.6-18.8,35.3-18.8h10.1c23.4,0,42.1,19.2,42.1,42.1v18.8v22.4v42.6H244v-0.5v-11l0,0v-55.9l0,0
		c-0.5-14.2-10.1-25.2-24.3-25.2l0,0c-14.2,0-26.1,11-26.6,25.2l0,0v48.5v18.8h-36.6L156.5,156.7L156.5,156.7z"/>
</g>
</svg>
