<?xml version="1.0" encoding="utf-8"?>
<!-- Generator: Adobe Illustrator 27.5.0, SVG Export Plug-In . SVG Version: 6.00 Build 0)  -->
<svg version="1.1" id="Layer_1" xmlns="http://www.w3.org/2000/svg" xmlns:xlink="http://www.w3.org/1999/xlink" x="0px" y="0px"
	 viewBox="0 0 14 20.17" style="enable-background:new 0 0 14 20.17;" xml:space="preserve">
<style type="text/css">
	.st0{fill:#F05123;}
</style>
<path class="st0" d="M6.92,20.17c-1.25-1.69-2.42-3.43-3.52-5.22c-1.04-1.7-2.03-3.43-2.76-5.29C0.35,8.93,0.09,8.18,0.02,7.38
	C-0.06,6.5,0.08,5.64,0.35,4.8C0.77,3.55,1.49,2.49,2.5,1.64c1-0.84,2.15-1.36,3.45-1.56c1.49-0.22,2.91,0.01,4.25,0.7
	c1.31,0.68,2.3,1.68,3,2.97c0.42,0.78,0.66,1.62,0.77,2.5c0.1,0.85-0.02,1.68-0.29,2.5c-0.63,1.93-1.6,3.7-2.63,5.44
	c-1.18,2-2.48,3.93-3.84,5.8c-0.04,0.06-0.09,0.11-0.13,0.17C7.02,20.17,6.97,20.17,6.92,20.17z M9.5,7c0-1.38-1.12-2.51-2.5-2.51
	C5.62,4.49,4.5,5.62,4.5,7c0,1.38,1.12,2.5,2.5,2.5C8.38,9.5,9.5,8.38,9.5,7z"/>
</svg>
