<?xml version="1.0" encoding="utf-8"?>
<!-- Generator: Adobe Illustrator 27.6.1, SVG Export Plug-In . SVG Version: 6.00 Build 0)  -->
<svg version="1.1" id="Colors" xmlns="http://www.w3.org/2000/svg" xmlns:xlink="http://www.w3.org/1999/xlink" x="0px" y="0px"
	 viewBox="0 0 225.66 202.27" style="enable-background:new 0 0 225.66 202.27;" xml:space="preserve">
<style type="text/css">
	.st0{fill:#E0DFE6;}
	.st1{fill:#525D7D;}
</style>
<g id="XMLID_00000029045087912352621700000011421964723470640812_">
	<path id="XMLID_00000088820657244301844890000012760281345586590092_" class="st0" d="M35.35,200.77
		c20.34,1.69,41.06,1.63,61.46,1.35c19.83-0.28,39.5-1.02,59.24-2.92c9.84-0.95,19.69-1.81,29.54-2.76c9.19-0.88,18.59-0.85,26.93-5
		c1.96-0.98,3.07-2.74,3.46-4.68c3.9,0.93,8.14-0.54,9.06-5.5c1.7-9.13-0.5-18.26-1.7-27.4c-1.19-9.03-2.54-18.04-3.87-27.05
		c-2.84-19.29-6.81-38.28-10.24-57.47c-0.27-1.49-2.58-1.1-2.59,0.35c-0.15,18.97-0.93,37.84-0.51,56.81
		c0.2,9.12,0.37,18.24,0.69,27.35c0.27,7.6-0.28,15.91,1.43,23.42c-14.44-2.34-31.35,2.29-45.87,2.78
		c-17.61,0.59-35.26,0.74-52.87,1.06c-16.95,0.31-33.9,0.49-50.85,0.69c-8.51,0.1-16.94,0.22-25.43,0.77
		c-3.59,0.23-7.08,0.47-10.62,1.13c-2.91,0.54-10.53,0.47-9.31,3.85c-0.19-0.52-0.6-1.12-1.2-1.2c-0.17-0.02-0.33-0.05-0.5-0.07
		c-1.61-0.22-2.82,0.38-3.42,1.94C3.65,200.02,29.32,200.27,35.35,200.77z"/>
	<path id="XMLID_00000160889597802820576010000012000974197463457677_" class="st0" d="M5.67,53.53
		c31.29,4.85,63.49,2.11,95.04,0.99c15.76-0.56,31.52-1.12,47.28-1.67c16.03-0.55,32.65,0.17,48.52-2.2
		c5.55-0.83,3.6-8.72-1.24-9.16c-15.51-1.39-31.7,0.38-47.28,0.77c-16.48,0.41-32.95,0.79-49.43,1.19
		c-30.91,0.74-62.58-0.04-92.89,6.55C3.98,50.38,3.87,53.25,5.67,53.53z"/>
	<path id="XMLID_00000050663572938309018260000015315344354351062698_" class="st1" d="M201.54,0.08
		C135.36,0.29,71.2,5.33,3.13,5.22c-1.86,0-3.31,1.53-3.25,3.35c0.39,11.57,0.8,23.2,1.22,34.8c0-0.38,0.07-0.73,0.19-1.07
		c-0.25,0.83-0.18,1.75,0.19,2.54c-0.22-0.43-0.36-0.9-0.38-1.41c0.64,17.61,1.3,35.16,1.95,52.35c1.08,28.47,2.19,57.91,3.17,86.98
		c0.06,1.75,1.5,3.13,3.24,3.13c200.97-3.25,199.24-0.53,199.14-6.43C205.43-9.39,205.62,0.08,201.54,0.08z M6.47,11.72
		c63.93,0,128.2-4.78,191.94-5.14c0.34,10.38,0.65,20.79,0.93,31.21c1.16,0.05,2.32,0.12,3.48,0.17c0.36,0.02,0.68,0.09,0.98,0.19
		c-0.3-0.1-0.62-0.17-0.98-0.19c-21.34-0.92-42.7-2.79-64.16-1.07C93.87,40.5,48.9,39.44,4.29,40.1c1.06-0.02,2.12-0.03,3.18-0.04
		C7.13,30.61,6.79,21.15,6.47,11.72z M1.36,42.08c-0.01,0.02-0.02,0.04-0.02,0.06C1.34,42.12,1.35,42.1,1.36,42.08z M4.38,46.59
		c0.09,0,0.18,0,0.27,0C4.56,46.59,4.48,46.59,4.38,46.59C4.39,46.59,4.39,46.59,4.38,46.59z M12.6,179.36
		C11.1,135.38,9.42,93.55,7.7,46.56c44.57-0.57,87.84,0.31,131.47-3.19c19.98-1.6,40.01-0.01,60.34,0.94
		c1.09,42.15,1.74,83.85,2.55,132.09C139.04,178.57,75.15,178.38,12.6,179.36z M202.54,44.45c2.97,0.1,4-2.92,2.97-4.87
		C206.54,41.53,205.52,44.54,202.54,44.45z"/>
	<path id="XMLID_00000046310888435860323150000011684762465983101061_" class="st1" d="M91.7,76.89c0,4.29,6.49,4.29,6.49,0
		c0-10.44,14.14-10.59,14.14,0.44c0,14.24-23.78,24.45-14.83,44.13c1.77,3.9,7.68,1.22,5.9-2.69
		c-6.98-15.36,15.42-23.99,15.42-41.44C118.82,57.92,91.7,57.65,91.7,76.89z"/>
	<path id="XMLID_00000125565019703401207300000009118510493048672160_" class="st1" d="M104.92,143.67
		c-2.21-3.61-8.43-0.32-8.43,4.03c0,3.16,3.07,6.97,6.89,6.97C111.1,154.67,110.5,142.19,104.92,143.67z"/>
	<path id="XMLID_00000069379728040399784530000001088812199147311781_" class="st1" d="M25.88,35.12c7.54,0,14.9-7.84,6.46-14.37
		c-7.23-5.63-13.3,0.46-13.3,6.32C19.05,30.95,21.8,35.12,25.88,35.12z M27.06,24.83c0.14,0.1,2.45,1.91,2.57,2.1
		c-0.21,0.54-1.85,1.6-3.52,1.69C25.03,27.44,25.62,25.09,27.06,24.83z"/>
	<path id="XMLID_00000134229896504921001280000015078546950438014618_" class="st1" d="M49.44,33.47c3.45,0,7.66-3.17,7.66-6.87
		c0-6.63-8.99-11.02-13.77-6.7C37.29,21.93,38.89,33.47,49.44,33.47z M47.68,24.72c0.68-0.29,2.49,0.51,2.87,1.59
		c-1.32,1.37-3.9,0.38-4.16-0.65C46.79,25.45,47.24,25.15,47.68,24.72z"/>
	<path id="XMLID_00000008839294239362788800000006829416671741141410_" class="st1" d="M69.63,34.66c4.61,0,8.45-3.26,8.75-7.43
		c0.74-9.84-16.51-12.86-16.51-1.34C61.86,30.65,65.42,34.66,69.63,34.66z M71.9,26.78c-0.06,0.8-1.25,1.4-2.25,1.4
		c-0.31-0.05-1.3-0.82-1.3-2.28C68.35,23.87,71.91,25.25,71.9,26.78z"/>
	<path id="XMLID_00000181791127804117564610000012113978806400571268_" class="st1" d="M169.86,71.33c1.79,0,3.24-1.45,3.24-3.24
		c0-4.83-4.79-2.88-25.67-2.88c-1.79,0-3.24,1.45-3.24,3.24C144.19,73.29,148.98,71.33,169.86,71.33z"/>
	<path id="XMLID_00000012454504520317816980000006592482549353141182_" class="st1" d="M172.2,86.77c4.31-0.18,3.99-6.69-0.27-6.48
		c-8.66,0.36-17.79,0.73-26.43,0.01c-4.24-0.41-4.85,6.1-0.54,6.46C153.94,87.51,163.26,87.14,172.2,86.77z"/>
	<path id="XMLID_00000026881032321341006960000001366930167401482670_" class="st1" d="M174.03,100.37
		c4.23-0.17,4.09-6.59-0.26-6.48c-9.27,0.37-18.45,1.11-27.57,1.47c-1.79,0.07-3.18,1.58-3.11,3.37
		C143.29,103.56,147.35,101.44,174.03,100.37z"/>
	<path id="XMLID_00000048482071576469635460000015406697543472336266_" class="st1" d="M148.54,108.22c-4.29,0-4.29,6.49,0,6.49
		c9.13,0,17.52-2.56,25.96-2.21c1.8,0.05,3.3-1.32,3.37-3.11C178.17,102.26,161.1,108.22,148.54,108.22z"/>
	<path id="XMLID_00000179628765018118881580000017683827392972030119_" class="st1" d="M174.03,128.68c4.22-0.17,4.1-6.57-0.26-6.48
		c-9.38,0.38-17.91,1.1-26.94,0.74c-1.81-0.03-3.3,1.32-3.37,3.11C143.27,130.89,148.74,129.68,174.03,128.68z"/>
	<path id="XMLID_00000143598437449257987740000004542457179088967092_" class="st1" d="M147.33,136.9c-4.26-0.36-4.8,6.12-0.52,6.47
		c8.98,0.72,18.68-1.35,26.95-0.03c1.77,0.29,3.43-0.92,3.71-2.69C178.66,133.24,158.92,137.83,147.33,136.9z"/>
	<path id="XMLID_00000123423633909480644570000014018555922821542540_" class="st1" d="M40.51,70.21c1.3,0.13,2.66,0.19,4.16,0.19
		c5.98,0,12.78-1.11,18.26-0.56c4.29,0.42,4.89-6.03,0.64-6.46c-7.49-0.75-15.61,1.05-22.42,0.37c-1.77-0.16-3.37,1.12-3.55,2.9
		C37.43,68.45,38.73,70.04,40.51,70.21z"/>
	<path id="XMLID_00000074422037926767726790000016550214251010281891_" class="st1" d="M40.1,83.1c22.64,0,27.72,1.48,27.5-3.39
		c-0.08-1.79-1.6-3.17-3.39-3.09c-20.68,0.94-27.36-2.14-27.36,3.24C36.86,81.65,38.31,83.1,40.1,83.1z"/>
	<path id="XMLID_00000005238362008968532780000010440157901201307521_" class="st1" d="M41.17,89.5c-4.25,0.53-3.45,6.96,0.8,6.44
		c8.88-1.11,17.16-2.19,25.83-2.55c4.33-0.18,3.96-6.72-0.27-6.48C58.58,87.28,50.17,88.38,41.17,89.5z"/>
	<path id="XMLID_00000131339180244555523870000016531232836308982164_" class="st1" d="M67.3,101.24c-8.42,0-18.44,1.42-26.56,0.75
		c-4.25-0.4-4.83,6.11-0.54,6.46c9.12,0.76,18.41-0.72,27.1-0.72C71.59,107.73,71.59,101.24,67.3,101.24z"/>
	<path id="XMLID_00000145743244751590919750000001241597009817887120_" class="st1" d="M39.97,120.96c9.59,0.38,18.34-1.48,27.2-1.1
		c4.42,0.03,4.44-6.32,0.26-6.48c-9.44-0.38-18.26,1.47-27.2,1.1C35.9,114.33,35.71,120.79,39.97,120.96z"/>
	<path id="XMLID_00000031207974197209869990000018192703511010667695_" class="st1" d="M40.22,125.5c-4.34-0.1-4.48,6.32-0.25,6.48
		c9.83,0.37,19.42-0.37,28.92-0.73c1.79-0.07,3.19-1.58,3.12-3.37C71.79,122.07,63.45,126.39,40.22,125.5z"/>
	<path id="XMLID_00000029740354944641453780000006216146334589875599_" class="st1" d="M64.46,137.33
		c-6.83,1.37-14.43-0.07-21.95,0.31c-4.34,0.22-3.9,6.75,0.32,6.48c9.83-0.49,26.83,2.71,25.44-4.24
		C67.92,138.11,66.22,136.96,64.46,137.33z"/>
</g>
</svg>
