<?xml version="1.0" encoding="utf-8"?>
<!-- Generator: Adobe Illustrator 27.6.1, SVG Export Plug-In . SVG Version: 6.00 Build 0)  -->
<svg version="1.1" id="Colors" xmlns="http://www.w3.org/2000/svg" xmlns:xlink="http://www.w3.org/1999/xlink" x="0px" y="0px"
	 viewBox="0 0 313.88 255.06" style="enable-background:new 0 0 313.88 255.06;" xml:space="preserve">
<style type="text/css">
	.st0{fill:#FFCC80;}
	.st1{fill:#E0DFE6;}
	.st2{fill:#525D7D;}
</style>
<g id="XMLID_00000173140473982099098200000009930356569271297983_">
	<path id="XMLID_00000081620330722195739660000011915227522539753405_" class="st0" d="M30.05,151.45c-0.02-0.83-0.18-1.67-0.5-2.47
		c-0.24-0.61-0.95-2-2.45-2c-2.08,0.06-3.85,1.45-4.46,3.48c-0.61,2-0.02,4.71,2.27,5.78c1.1,0.52,1.98,0.64,2.85,0.4
		c0.87-0.24,1.77-0.92,2.14-1.62c0.5-0.95,0.58-2.23,0.21-3.28L30.05,151.45z"/>
	<path id="XMLID_00000074429532697133050670000000615351540563030457_" class="st1" d="M27.68,157.04c2.28-0.92,3.15-2.15,4.44-4.06
		c-0.01-0.58-0.08-1.16-0.26-1.7c-0.04-1-0.25-2-0.63-2.96c-0.8-2.02-2.33-3.23-4.25-3.15c-2.8,0.08-5.25,1.99-6.09,4.77
		c-0.93,3.08,0.32,6.33,2.91,7.76C25.1,157.66,26.4,157.55,27.68,157.04z M29.89,155.02c-0.37,0.7-1.27,1.39-2.14,1.62
		c-0.87,0.24-1.75,0.12-2.85-0.4c-2.29-1.07-2.87-3.78-2.27-5.78c0.61-2.03,2.38-3.43,4.4-3.48c1.56,0,2.27,1.39,2.51,2
		c0.32,0.81,0.49,1.64,0.5,2.47l0.05,0.29C30.47,152.78,30.39,154.07,29.89,155.02z"/>
	<path id="XMLID_00000101063134859775248580000002212281739393728444_" class="st1" d="M156.54,239.96
		c2.68-7.11-6.78-10.78-11.51-6.52c-5.54,1.11-12.37-0.16-17.82-0.2c-4.5-0.04-8.99-0.04-13.49-0.05c2.45-2.03,4.61-4.32,6.32-6.63
		c7.02-9.52,7.56-19.39,9.03-30.68c0.34-2.66-3.56-3.28-4.77-1.29c-4.13,6.81-9.78,13.75-15.5,19.29
		c-5.69,5.51-12.44,6.86-18.92,10.85c-0.43,0.26-0.8,0.55-1.15,0.85c-6.77,0.41-13.18,1.06-20.45-1.67
		c-11.31-4.26-18.56-13.62-25.71-22.9c-0.84-1.09-2.43-0.47-2.21,0.93c2.01,12.77,7.16,24.86,17.54,32.52
		c-9.65,0.38-19.31,0.8-28.95,1.39c-1.79,0.11-7.33,1.65-8.92,0.78c-1.15-0.63-2.2-4.52-2.9-7.02c-1.46-5.2-2.63-10.29-4.79-15.25
		c-0.31-0.71-1.56-0.53-1.69,0.22c-1.37,7.93-0.87,16-1.64,23.99c-0.47,4.92-0.26,9.22,4.86,11.78c5.65,2.83,14.36,1.03,20.43,0.74
		c9.52-0.47,19.04-0.87,28.57-1.2c17.86-0.62,35.74-1.03,53.6-1.42c9.47-0.21,19.16,0.29,28.6-0.44
		C150.95,247.58,154.46,245.49,156.54,239.96z"/>
	<path id="XMLID_00000049919946611441515280000013844853993736234932_" class="st1" d="M102.92,180.23
		c5.42,1.87,10.7-3.96,9.18-9.18c-4.14-14.2-24.47-14.28-35.34-8.41c-7.61,4.12-23.61,19.84-15.65,28.84
		c0.68,0.77,2.1,0.57,2.57-0.33c3.69-7.08,12.25-13.52,19.84-15.89C91.81,172.68,95.75,177.75,102.92,180.23z"/>
	<path id="XMLID_00000085945098814286672130000008698880497438316956_" class="st1" d="M114.29,189.68
		c0.5-5.76-6.99-9.78-11.65-6.69c-1.65,1.1-3.65,2.92-5.85,4.79c-3.39-4.52-10.22-7.27-15.71-6.19c-2.48,0.49-2.26,4.18,0,4.79
		c2.06,0.56,3.63,1.93,4.87,3.64c0.46,0.63,0.89,1.31,1.08,2.07c-0.55-2.09,0.1,0.28,0.16,0.36c0.04,0.55-0.74,2.45,0.05,0.69
		c-0.15,0.33-0.26,0.66-0.37,1c-3.36,1.03-6.71,0.45-9.65-3.46c-1.02-1.35-3.62-1.53-4.03,0.53
		C68.52,214.98,112.42,211.2,114.29,189.68z"/>
	<path id="XMLID_00000165945571294267591650000003850271594936249274_" class="st1" d="M19.17,161.39
		c6.31,4.72,20.08,4.84,22.11-4.69c1.18-5.56-5.91-8.56-9.09-3.83c-0.02,0.04-0.05,0.07-0.07,0.1c-1.29,1.91-2.16,3.14-4.44,4.06
		c-1.28,0.52-2.58,0.62-3.88,0.66c-1.39,0.04-2.79,0.01-4.19,0.33C17.91,158.41,18,160.52,19.17,161.39z"/>
	<path id="XMLID_00000046302875853698264090000014597975034524833153_" class="st1" d="M303.84,22.97
		c-8.4,5.41-16.26,11.1-23.94,17.5c-4.32,3.61-9.76,7.48-14.31,11.88c-5.78-3.14-11.48-6.42-17.19-9.76
		c-8.32-4.88-25.17-12.03-28.16-21.8c-0.56-1.82-3.06-1.38-3.21,0.43c-0.84,10.61,8.34,19.27,15.14,26.32
		c7.52,7.8,16.56,16.48,26.19,22.38c1.71,3.55,5.52,5.84,9.75,3.92c2.51,0.08,5.03-0.67,6.71-2.66c0.25-0.29,0.49-0.58,0.74-0.87
		c1.19-1.4,1.97-3.17,2.27-4.98c4.12-4.99,7.64-10.8,11.36-15.55c6.08-7.77,12.06-15.56,18.03-23.41
		C308.77,24.36,305.83,21.69,303.84,22.97z"/>
	<path id="XMLID_00000120555858620283917980000015466137808129887156_" class="st2" d="M155.49,250.21c0.77,0,1.49-0.31,2-0.85
		c0.52-0.55,0.79-1.29,0.74-2.05c-1.61-26.06-2.57-52.67-3.51-78.41c-0.54-14.77-1.09-30.05-1.76-45.04
		c-0.06-1.46-1.27-2.61-2.72-2.61c-4.98,0.09-7.95,0.07-10.81,0.05c-5.5-0.03-10.64-0.06-28.36,0.63c-0.22-3.17-0.55-7.97-0.62-9.01
		c-0.1-1.43-1.29-2.54-2.72-2.54c-1.82,0-4.7,0.02-12.17-0.11c-0.04,0.9-0.08,1.8-0.09,2.71c0.02-1.66,0.17-4.83,0.39-7
		c0.37-3.58-5.06-4.14-5.43-0.55c-0.14,1.38-0.25,3.15-0.32,4.73c-18.63-0.39-23.23-1.51-23.07,2.53l0.47,11.19
		c-16.81,0.81-38,1.87-64.92,3.25c-1.5,0.08-2.65,1.35-2.58,2.85c1.85,39.41,3.99,81.32,7.87,122.39c0.13,1.4,1.31,2.47,2.71,2.47
		c21.04-0.55,40.86-1.63,60.03-2.67c20.99-1.14,40.82-2.22,57.01-2.22c6.19,0,12.37,0.07,18.56,0.14
		C149.28,250.14,152.38,250.18,155.49,250.21z M109.6,127.25c-0.28,0.12-0.58,0.21-0.91,0.23c-0.33,0.02-0.64-0.03-0.93-0.11
		C108.37,127.52,109.02,127.48,109.6,127.25z M109.79,127.16c-0.03,0.02-0.06,0.03-0.09,0.05
		C109.74,127.2,109.76,127.18,109.79,127.16z M107.65,127.34c-0.04-0.01-0.09-0.03-0.13-0.05
		C107.57,127.31,107.61,127.33,107.65,127.34z M91.25,115.25c-0.14-0.09-0.29-0.17-0.4-0.29C90.97,115.07,91.1,115.17,91.25,115.25z
		 M90.09,110.4c-0.03,0.64-0.05,1.23-0.06,1.74C90.02,111.53,90.06,110.93,90.09,110.4z M92.66,115.67c-0.16,0-0.26-0.05-0.4-0.07
		c0.63,0.09,1.29-0.01,1.85-0.3c-0.39,0.23-0.84,0.37-1.33,0.38c4.11,0.08,8.26,0.15,12.41,0.16c0.21,3.06,0.59,8.73,0.62,9.1
		c-0.06-0.93-0.13-1.86-0.19-2.78c-8.28,0.34-18.87,0.82-32.65,1.47c-0.04-1.05-0.13-2.96-0.35-8.3
		C78.47,115.36,83.09,115.48,92.66,115.67z M91.26,115.26c0.27,0.16,0.57,0.26,0.88,0.32C91.79,115.51,91.5,115.41,91.26,115.26z
		 M94.33,115.15c-0.04,0.03-0.07,0.05-0.11,0.08C94.26,115.21,94.29,115.18,94.33,115.15z M73.07,126.36
		c-0.02-0.51-0.04-0.87-0.05-1.17L73.07,126.36c0.07,1.64-1.01,2.57-2.23,2.77C72.06,128.92,73.14,127.99,73.07,126.36z M73,124.64
		l0.01,0.24C73.01,124.79,73,124.71,73,124.64z M70.32,246.73c-18.35,1-37.31,2.03-57.26,2.59c-3.64-39.21-5.71-79.15-7.49-116.88
		c113.32-5.81,122.82-5.74,133.81-5.68c2.34,0.02,4.76,0.03,8.24-0.01c0.62,14.12,1.14,28.46,1.64,42.35
		c0.9,24.81,1.83,50.43,3.34,75.62c-2.12-0.02-4.24-0.05-6.36-0.07c-6.21-0.07-12.41-0.15-18.62-0.15
		C111.29,244.51,91.39,245.59,70.32,246.73z"/>
	<path id="XMLID_00000070104773512780405490000001429907920573700797_" class="st2" d="M39.82,185.41
		c0,21.75,16.58,45.23,43.37,45.23c17.17,0,27.86-8.24,33.8-15.15c7.52-8.75,11.84-20.68,11.84-32.73c0-9.95-4.49-20.01-12.31-27.61
		C90.51,129.89,39.82,143.44,39.82,185.41z M83.19,225.18c-23.42,0-37.91-20.65-37.91-39.77c0-20.46,14.25-37.41,39.45-37.41
		c23.11,0,38.64,17.97,38.64,34.76C123.37,203.33,109.29,225.18,83.19,225.18z"/>
	<path id="XMLID_00000092456691284932623710000017583329904839205045_" class="st2" d="M84.6,155.87c-1.48,0-3.05,0.08-4.8,0.23
		c-15.11,1.34-26.5,14.11-26.5,29.69c0,15.16,11.57,31.52,30.26,31.52c20.65,0,31.8-17.17,31.8-33.32
		C115.35,170.41,102.99,155.87,84.6,155.87z M83.55,211.86c-15.32,0-24.81-13.53-24.81-26.07c0-14.67,10.83-23.3,21.53-24.25
		c1.59-0.14,3-0.21,4.32-0.21c15.13,0,25.3,11.72,25.3,22.67C109.9,197.5,100.66,211.86,83.55,211.86z"/>
	<path id="XMLID_00000082357364750321606370000002677207796454817437_" class="st2" d="M26.26,138.74c-2.65,0-5.85,0.92-6.88,3.5
		c-0.18,0.45-0.36,0.86-0.52,1.25c-0.49,1.15-0.96,2.24-1.33,3.73c-0.17,0.69-0.26,1.4-0.26,2.11c0,5.13,4.59,9.47,10.03,9.47
		c4.9,0,10.14-3.81,10.14-9.48C37.43,143.58,32.31,138.74,26.26,138.74z M27.29,153.34c-2.4,0-4.58-1.91-4.58-4.01
		c0-0.26,0.03-0.52,0.1-0.78c0.27-1.08,0.61-1.89,1.05-2.91c0.15-0.35,0.3-0.71,0.46-1.09c0.34-0.16,1.12-0.35,1.93-0.35
		c3.05,0,5.72,2.39,5.72,5.12C31.98,151.8,29.25,153.34,27.29,153.34z"/>
	<path id="XMLID_00000023268093495747763410000002731105859083102384_" class="st2" d="M175.75,31.48
		c-2.43,0.47-4.85,0.98-7.22,1.54c-3.14,0.74-2.6,5.38,0.62,5.38c0.16,0,7.35-1.51,7.63-1.56
		C180.31,36.16,179.29,30.81,175.75,31.48z"/>
	<path id="XMLID_00000072963436492894958020000008785981717306659237_" class="st2" d="M127.2,55.9c1.91-1.29,3.94-2.54,6.01-3.73
		c1.31-0.75,1.76-2.41,1.01-3.72c-0.75-1.31-2.41-1.76-3.72-1.01c-2.19,1.25-4.32,2.58-6.35,3.93
		C121.18,53.37,124.2,57.92,127.2,55.9z"/>
	<path id="XMLID_00000116948935856949001790000001269231921051240868_" class="st2" d="M110.25,71.06c1.46-1.77,3.04-3.51,4.7-5.17
		c1.07-1.06,1.07-2.79,0.01-3.86c-1.06-1.07-2.79-1.07-3.86-0.01c-1.79,1.78-3.49,3.66-5.06,5.57
		C103.73,70.4,107.99,73.81,110.25,71.06z"/>
	<path id="XMLID_00000086687054279534492070000012241936044785246901_" class="st2" d="M101.83,84.24c1.56-3.26-3.38-5.6-4.92-2.35
		c-1.08,2.26-2.04,4.61-2.87,7c-0.62,1.78,0.71,3.62,2.58,3.62C99.32,92.51,98.91,90.37,101.83,84.24z"/>
	<path id="XMLID_00000116222651253570165870000016856011146441414077_" class="st2" d="M192.75,34.45c2.35-0.26,4.76-0.48,7.16-0.66
		c3.59-0.27,3.2-5.7-0.41-5.44c-2.46,0.18-4.93,0.41-7.35,0.68c-1.5,0.16-2.58,1.51-2.42,3.01
		C189.91,33.51,191.23,34.61,192.75,34.45z"/>
	<path id="XMLID_00000105401136161647100960000011325452837587111092_" class="st2" d="M147.62,45.25c2.16-0.87,4.41-1.71,6.69-2.49
		c1.42-0.49,2.18-2.04,1.69-3.47c-0.49-1.42-2.04-2.19-3.47-1.69c-2.37,0.81-4.7,1.68-6.95,2.59
		C142.27,41.52,144.24,46.6,147.62,45.25z"/>
	<path id="XMLID_00000148628653285925318980000010737973929106780578_" class="st2" d="M213.79,31.93
		c5.76,17.05,31.42,35.83,46.82,51.47c1.02,1.04,2.67,1.09,3.75,0.13c8.27-7.34,49.51-44.76,49.51-60.51
		c0-11.22-8.78-16.24-17.49-16.24c-9.36,0-18.45,6.25-25.04,11.75C261.08,6.23,250.64,0,240.31,0c-15.35,0-31.62,14.4-26.9,30.81
		C213.46,31.25,213.59,31.62,213.79,31.93z M215.64,33.1c0.81,0.13,1.67-0.07,2.3-0.58c-0.44,0.39-1.04,0.65-1.81,0.65
		C215.97,33.17,215.81,33.13,215.64,33.1z M215.25,33.01c0.11,0.03,0.22,0.07,0.34,0.09C215.48,33.07,215.36,33.04,215.25,33.01z
		 M218.08,32.39c0.04-0.04,0.08-0.09,0.12-0.13C218.17,32.3,218.13,32.35,218.08,32.39z M240.31,5.46c9.18,0,18.78,6.28,28.55,18.66
		c0.95,1.2,2.73,1.42,3.94,0.36c9.43-8.24,17.15-12.24,23.6-12.24c2.01,0,12.03,0.52,12.03,10.78c0,9.42-23.37,34.59-45.77,54.72
		c-14.93-14.68-39.21-33.27-43.86-47.89c-0.04-0.19-0.09-0.36-0.16-0.52c-0.41-1.42-0.64-2.8-0.64-4.13
		C218.02,14.08,230,5.46,240.31,5.46z M218.17,28.59c-0.01-0.01-0.02-0.03-0.04-0.04C218.15,28.56,218.16,28.57,218.17,28.59z
		 M217.54,28.09c-0.73-0.4-1.63-0.46-2.42-0.19c0.3-0.11,0.61-0.18,0.94-0.18C216.66,27.71,217.14,27.86,217.54,28.09z
		 M217.88,28.32c-0.08-0.06-0.16-0.13-0.25-0.18C217.71,28.19,217.8,28.25,217.88,28.32z M214.81,28.04c0.1-0.05,0.19-0.1,0.3-0.13
		C215,27.94,214.9,27.99,214.81,28.04z M213.41,30.14c0,0.04-0.01,0.08-0.01,0.12C213.4,30.21,213.4,30.18,213.41,30.14z"/>
</g>
</svg>
