<?xml version="1.0" encoding="utf-8"?>
<!-- Generator: Adobe Illustrator 27.5.0, SVG Export Plug-In . SVG Version: 6.00 Build 0)  -->
<svg version="1.1" id="Mexico_Flag" xmlns="http://www.w3.org/2000/svg" xmlns:xlink="http://www.w3.org/1999/xlink" x="0px"
	 y="0px" viewBox="0 0 3000 1800" style="enable-background:new 0 0 3000 1800;" xml:space="preserve">
<style type="text/css">
	.st0{fill:#FFFFFF;}
	.st1{fill:#303030;}
</style>
<g id="Mexico_Flag_1_">
	<g id="Left_stripe">
		<path class="st0" d="M960,40v1720H40V40H960 M1000,0H0v1800h1000V0L1000,0z"/>
	</g>
	<g id="Right_stripe">
		<path class="st0" d="M2960,40v1720h-920V40H2960 M3000,0H2000v1800h1000V0L3000,0z"/>
	</g>
	<g id="XMLID_00000036934928921351370530000006168290908792559774_">
		<g id="XMLID_00000183931295338394424730000006469470659717291667_">
			<path class="st1" d="M1662.74,613.81c-0.01,0.07-0.04,0.14-0.08,0.22c0.82,0.5,2.19,1.36,3.9,2.53
				C1664.71,615.18,1663.4,614.26,1662.74,613.81z"/>
		</g>
		<g id="XMLID_00000109028111603694845390000018032128539123816844_">
			<path class="st1" d="M1341.93,893.99v-0.02c-0.03,0.01-0.05,0.02-0.08,0.03C1341.88,894,1341.9,893.99,1341.93,893.99z"/>
		</g>
		<g id="XMLID_00000136379524961337529190000012653740050358185918_">
			<path class="st1" d="M1563.63,953.64c-0.01-0.02-0.03-0.04-0.04-0.06c0.01,0.03,0.02,0.05,0.03,0.08L1563.63,953.64z"/>
		</g>
		<g id="XMLID_00000165230154421539859960000007199177726271308695_">
			<path class="st0" d="M1429.6,851.13c-3.71-7.65-3.02-17.38-2.41-21.95c0.04-0.27-0.02-0.54-0.17-0.77
				c-2.14-3.34-3.89-6.26-5.19-8.51c-0.32-0.55-1.02-0.73-1.57-0.41c-2.15,1.26-3.98,2.04-5.03,2.44c-0.2,0.08-0.41,0.05-0.58-0.04
				c-0.74,1.07-1.85,1.84-2,0.89c-0.19-1.34-2.03-16.86-5.37-27.38c-3.35-10.49-5.28-7.92-5.59-19.54
				c-0.25-10.04,10.6-27.21,13.56-31.71c0.13-0.19,0.19-0.41,0.19-0.64c-0.01-1.12,0.13-2.09,0.23-2.68
				c0.03-0.13,0.09-0.24,0.17-0.33c-0.95-0.09-1.62-0.17-1.62-0.17l-0.01-0.02c-0.21-0.01-2.97-0.11-4.39-0.3
				c-1.47-0.21,4.56-9.58,8.67-16.06c3.21-5.06,7.42-11.71,9.12-14.39c-0.29-0.05-0.57-0.11-0.84-0.19
				c-0.03-0.01-0.06-0.02-0.09-0.02c-0.05-0.02-0.1-0.03-0.16-0.05c-0.75-0.22-1.36-0.51-1.79-0.8c-1.26-0.74-2.07-1.62-2.35-1.99
				c-0.54-0.69,3.79-5.25,6.4-10.71c1.33-2.79,2.21-5.31,2.75-7.1c0.23-0.75-0.34-1.49-1.12-1.48h-0.22c-0.17,0.01-0.28,0-0.28,0
				s-0.31-6.01-2.51-8.18c-1.56-1.52-3.73-1.25-5.59-1.36c0.04,0.24,0.08,0.49,0.09,0.74l0.77,1.03h0.01l0.05,0.08l0.04,0.08
				c0.17,0.38,0.26,0.79,0.26,1.19c-0.02,1.23-0.7,2.29-1.67,3.33c-0.98,1.04-2.32,2.07-3.91,3.1c-3.18,2.07-7.36,4.12-11.53,5.98
				c-4.33,1.93-8.64,3.62-11.79,4.8c-0.71,0.27-0.99,1.13-0.54,1.75c3.84,5.32,6.98,11.59,6.99,18c0,0.71-0.04,1.42-0.12,2.12
				c-1.6,13.89-11.17,25.05-22.37,35.17c-11.19,10.11-24.09,19.24-32.54,28.89c-5.63,6.43-9.25,13.04-9.25,20.28
				c0,0.25,0,0.49,0.01,0.73c0.17,5.07,1.83,10.67,4.98,15.12c1.55,2.19,3.46,4.1,5.73,5.55c0.04,0.03,0.08,0.05,0.13,0.08
				l3.02,1.51c0.04,0.02,0.08,0.04,0.13,0.06c1.49,0.57,3.09,0.97,4.82,1.14c1.03,0.1,2.09,0.15,3.16,0.15
				c8.14,0.01,17.35-2.68,26.39-2.68c7.6-0.03,15.17,1.96,21.68,9.11c6.11,6.73,8,16.96,8.15,26.83c0.01,0.01,0.03,0.01,0.04,0.02
				c2.02,0.97,4.09,3.36,6.01,6.1c1.91,2.75,3.62,5.86,4.68,8.28c0.14,0.31,0.26,0.6,0.37,0.87c0.14,0.34,0.42,0.58,0.78,0.67
				c0.52,0.14,1.05,0.41,1.52,0.88c0.78,0.75,1.38,1.95,1.78,3.79c0.05,0.23,0.07,0.48,0.07,0.72c-0.01,1.45-0.79,2.94-1.87,4.44
				c-0.14,0.2-0.3,0.4-0.45,0.6c-0.35,0.44-0.32,1.05,0.04,1.47c0.37,0.4,0.79,0.84,1.28,1.28c0.58,0.52,1.25,1.05,2,1.53
				c0.49,0.32,1.14,0.25,1.52-0.19c0.8-0.92,1.6-1.75,2.34-2.34c1.69-1.36,5.28-2.14,8.26-2.58c1.12-0.16,1.37-1.65,0.37-2.17
				c-3.67-1.88-7.48-4.05-8.76-5.5c-1.56-1.75-3.11-5.22-4.16-7.9c-0.15-0.39,0.04-0.74,0.32-0.9l-0.24-0.64l-1.41-2.13
				c0,0-0.38-0.51,0.72-1.32c1.1-0.8,3.96-1.08,7.83,0.69c3.34,1.53,4.76,3.31,5.1,3.78c0.06,0.09,0.13,0.16,0.22,0.23l4.97,3.9
				c-0.04-0.15-0.08-0.29-0.12-0.44C1443.46,870.37,1433.5,859.16,1429.6,851.13z"/>
		</g>
		<g id="XMLID_00000054965548427957934220000014468221557307985302_">
			<path class="st1" d="M1440.06,933.85c0.14,0.06,0.41,0.16,0.81,0.28c-0.08-0.07-0.13-0.15-0.17-0.24L1440.06,933.85z"/>
		</g>
		<g id="XMLID_00000167371113884166182050000009488665260615051696_">
			<path class="st0" d="M1000,0v1800h1000V0H1000z M1225.19,851.89c1.2-1.01,2.66-1.51,4.13-1.51c2,0,4,0.91,5.4,2.63
				c1.11,1.35,1.66,2.98,1.66,4.6c0,1.56-0.53,3.09-1.54,4.31c-0.33,0.39-0.36,0.95-0.07,1.37l6.45,9.52
				c0.29,0.42,0.82,0.59,1.31,0.45c0.76-0.23,1.31-0.26,1.49,0c0.91,1.33-0.07,2.61,0.54,3.34c0.59,0.69,1.11,0.87,2.27,1.07
				c0-0.11,0.01-0.21,0.02-0.29c0.2-1.03,2.14-2.06,2.24-2.89c0.1-0.81-1.93-0.1-2.74-1.42c-0.81-1.36,11.25-2.99,11.25-1.77
				c0,1.24-1.41,1.56-1.32,2.27c0.1,0.73,1.93,0.82,3.05,1.95c1.11,1.14,1.31,6.5,0.71,8.14c-0.61,1.64-1.02,1.43-1.61,1.94
				c-0.18,0.15-0.7,0.28-1.38,0.37c-1.07,0.14-1.39,1.53-0.48,2.11c3.63,2.31,7.03,6.01,9.5,10.72c2.04,3.89,3.15,7.93,3.4,11.67
				c0.04,0.65,0.64,1.13,1.28,1.04c1.05-0.13,2.13-0.21,3.25-0.21c3.37,0,7.09,0.66,11.14,2.16c0.7,0.26,1.47-0.21,1.54-0.95
				c0.03-0.31,0.07-0.59,0.11-0.82c0.12-0.63,0.1-1.75,0.02-2.86c-0.07-1.13,1.36-1.69,2.05-0.8c1.16,1.48,2.27,3.41,2.04,5.19
				c-0.08,0.63-0.19,1.18-0.32,1.66c-0.13,0.53,0.09,1.07,0.56,1.33c4.21,2.27,8.73,5.42,13.59,9.66
				c5.77,5.04,9.87,10.59,12.77,16.1c0.32-0.07,0.63-0.18,0.88-0.4c0.35-0.3,0.91-0.68,1.51-1.06c0.94-0.6,2.1,0.35,1.69,1.39
				c-0.44,1.14-1.03,2.36-1.77,3.12c-0.33,0.34-0.44,0.83-0.25,1.27c2.81,6.64,4.02,13,4.5,18.09c0.08,0.92,1.14,1.36,1.86,0.79
				c3.49-2.76,7.76-5.01,12.85-6.32c-0.34-0.42-0.61-0.86-0.77-1.24c-0.26-0.62-0.48-1.67-0.66-2.69c-0.19-1.04,0.99-1.77,1.83-1.13
				c1.53,1.17,3.33,2.74,3.62,3.82c0.05,0.15,0.08,0.29,0.12,0.43c1.89-0.27,3.87-0.43,5.97-0.43c0.78,0,1.57,0.03,2.37,0.07
				c3.39,0.17,6.67,0.62,9.83,1.28c0.6,0.12,1.18-0.24,1.34-0.83c1.08-3.89,2.88-7.24,5.1-9.73c-0.23-0.05-0.47-0.12-0.73-0.22
				c-1.85-0.69-3.56-3.27-4.03-4.03c-0.09-0.14-0.15-0.29-0.16-0.46c-0.1-0.83-0.36-3.49,0.29-4.09c0.76-0.72,2.7-2.21,3.09-3.08
				c0.4-0.85-1.15-0.22-1.11-1.72c0.05-1.49,8.75-1.72,9.34-0.7c0.58,1.02-0.89,1.08-0.91,1.84c-0.01,0.46,0.87,1.39,1.61,2.24
				c0.43,0.49,1.15,0.53,1.64,0.11c0.4-0.35,0.84-0.7,1.24-1.03c0.15-0.13,0.27-0.28,0.34-0.46l0.33-0.84
				c0.13-0.32,0.09-0.7-0.14-0.97c-0.17-0.19-0.28-0.46-0.18-0.88c0.04-0.16,0.23-0.24,0.54-0.27c0.41-0.04,0.76-0.33,0.92-0.72
				l1.48-3.71c0.14-0.35,0.11-0.76-0.11-1.07c-0.75-1.02-1.18-2.29-1.18-3.65c0-0.26,0.01-0.53,0.04-0.79
				c0.38-3.08,2.86-5.38,5.76-5.38c0.23,0,0.46,0.02,0.68,0.04c2.93,0.37,5.02,2.98,5.02,5.97c0,0.26-0.01,0.54-0.05,0.8
				c-0.38,3.08-2.86,5.37-5.76,5.38c-0.14,0-0.28-0.01-0.41-0.03l-0.71,3.31c-0.12,0.55,0.19,1.12,0.73,1.32
				c1.9,0.7,3.43,1.51,3.32,2.05c-0.29,1.36-1.66,1.47-1.74,2.3c-0.09,0.78,0.12,1.21,0.68,2.06c0.07-0.06,0.14-0.13,0.19-0.16
				c0.75-0.49,2.51,0.13,3.08-0.28c0.56-0.42-1.07-1.28-0.72-2.58c0.35-1.29,8.42,5.38,7.67,6.09c-0.77,0.72-1.79,0.01-2.17,0.5
				c-0.38,0.47,0.62,1.69,0.58,3.06c-0.04,1.37-3.21,4.63-4.58,5.2c-1.36,0.59-1.47,0.22-2.15,0.13c-0.38-0.05-1.49-1-2.47-2.01
				c1.67,3.91,2.3,8.89,1.48,14.14c-0.2,1.24-0.47,2.44-0.8,3.59c-0.14,0.49,0.04,1,0.46,1.28c2.81,1.9,5.4,3.89,7.76,5.85
				c5.47,4.58,9.7,9.08,12.51,12.37c0.5,0.59,1.41,0.51,1.83-0.13c1.71-2.58,3.66-5.1,5.83-7.44c-0.04-0.03-0.07-0.05-0.1-0.09
				c-1.53-1.71-1.83-1.71-3.5-4.02c-0.57-0.79-1.11-1.65-1.59-2.46c-0.57-0.97,0.46-2.1,1.48-1.63c1.8,0.83,3.81,1.9,4.37,2.7
				c0.75,1.08,1.64,2.08,2.11,2.59c0.02,0.03,0.04,0.07,0.06,0.1c1.84-1.7,3.77-3.25,5.82-4.56c2.16-1.37,4.42-2.5,6.77-3.27
				c0.76-0.25,1.02-1.17,0.54-1.8c-0.18-0.23-0.31-0.44-0.39-0.62c-0.28-0.64-1.02-2.13-1.74-3.53c-0.52-1.01,0.6-2.09,1.59-1.53
				c0.69,0.39,1.43,0.84,2.14,1.33c0.76,0.53,1.77-0.21,1.5-1.1c-0.01-0.02-0.02-0.05-0.03-0.08c-0.28-0.93,0.81-1.66,1.56-1.05
				c1.64,1.35,3.6,3.09,4.11,4.11c0.42,0.86,1.04,1.85,1.4,2.72c0.16,0.38,0.5,0.64,0.9,0.69c3.51,0.45,7.7,1.34,12.17,2.56
				c4.07,1.1,8.36,2.47,12.56,4.05c-0.06-0.12-0.1-0.22-0.1-0.31c0-0.76,0.46-1.38,0-3.07c-0.18-0.66-0.42-1.58-0.66-2.45
				c-0.28-1.07,0.95-1.9,1.82-1.22c1.07,0.85,2.13,2.1,2.34,3.82c0.18,1.43,0.15,2.69,0.05,3.71c-0.05,0.5,0.23,0.97,0.7,1.17
				c0.99,0.41,3.23,1.4,3.39,1.47c-0.43-0.76-0.65-1.73-0.65-2.63c0-0.83,0.03-1.99,0.06-3.08c0.03-1.08,1.4-1.53,2.06-0.67
				c0.88,1.13,1.77,2.49,1.99,3.58c0.29,1.49,0.57,2.65,0.21,3.38c-0.27,0.55-0.07,1.21,0.46,1.51c2.89,1.62,5.17,3.21,7.18,4.6
				c2.71,1.88,4.93,3.35,7.69,4.2c0.65-0.44,0.83-0.56,1.48-0.99c0.62-4.74,5.4-6.82,9.68-7.73c2.09-0.62,4.06-0.88,5.34-0.89
				c0.48-0.01,0.9-0.31,1.06-0.76c0.54-1.51,1.79-2.95,3.38-4.14c1.89-1.43,4.29-2.52,6.65-2.78c0.47-0.05,0.88-0.08,1.29-0.08
				c3.17-0.01,4.72,1.42,5.2,1.97c0.09,0.01,0.21,0.03,0.4,0.04c0.63,0.05,1.91,0.1,4.4,0.15l0.45,0.02
				c1.48-0.02,2.49-0.19,3.2-0.42c0.71-0.22,1.14-0.48,1.52-0.69c0.26-0.13,0.51-0.27,0.9-0.27l0.16,0.03
				c0.33-0.14,1.22-0.52,2.35-1.03c1.45-0.65,3.25-1.51,4.69-2.3c1.48-0.79,3.81-2.25,5.78-3.49c0.57-0.36,1.11-0.71,1.58-1.01
				c0.09-0.72,0.13-1.05,0.21-1.77c-1.93-2.01-3.83-3.95-5.43-5.45l-0.02-0.02c-0.64-0.6-1.72-0.28-1.91,0.58
				c-0.05,0.26-0.11,0.51-0.18,0.76c0.18-0.23,0.27-0.35,0.24-0.25c-0.2,0.62-1.42,5.98-4.88,7.62c-3.44,1.65-7.29-5.77-11.35-12.96
				c-3.76-6.66-7.85-14.91-8.44-16.11c-0.03-0.06-0.03-0.12-0.05-0.18c-0.01,0-0.02,0.02-0.03,0.02c-2.24,0.62-6.09-4.02-6.09-4.02
				s-8.9-9.89-18.22-20.51c-0.7-0.81-2.03-0.3-2.02,0.77c0.08,8.76-0.6,23.06-5.77,23.62c-3.5,0.38-8.76-10.65-9.03-11.45
				c-0.01-0.01-0.02-0.04-0.03-0.05l-0.01,0.01c-0.02,0-0.86,0-2.97,0.45c-2.12,0.46-0.67,1.47-16.58,6.09
				c-15.26,4.46-20.7,0.87-21.1,0.58c0.02,0.01,0.04,0.02,0.07,0.03c-0.5-1.09-1.07-4.51,1.82-8.12l-0.02-0.18
				c-0.04,0.13-0.06,0.21-0.06,0.21s-6.17-1.69-17.65-4.62c-11.13-2.84-15.83-6.77-16.12-7.01c0.14,0.09,0.52-0.82,1.13-1.43
				c1.2-1.21,3.37-2.84,6.69-3.36l-0.41-0.66c-2.26-0.03-3.9-1.65-4.98-3.17c-0.04-0.05-0.08-0.11-0.12-0.16
				c-0.43-0.63-1.32-0.68-1.82-0.1c-2.2,2.57-4.92,5.51-7.45,7.56c-1.84,1.45-3.57,2.49-5.16,2.51l-0.47-0.02
				c-0.04-0.01-0.08-0.03-0.12-0.04c-1.08-0.11-2.3-0.65-3.63-1.43c-1.39-0.83-2.89-1.93-4.33-3.17c-0.16-0.13-0.31-0.26-0.46-0.39
				c-0.35-0.31-0.85-0.38-1.27-0.16c-1.22,0.63-2.83,1.16-4.96,1.43c-0.15,0.02-0.28,0.01-0.42,0.03c-2.09,1.35-4.82,2.73-7.94,3.34
				c-0.19,0.04-0.35,0.12-0.5,0.23c-2.37,1.98-5.9,4.24-9.7,4.26l-0.56-0.02c-3.21-0.19-5.39-1.94-6.79-3.74
				c-0.03,0.18-0.14,0.35-0.3,0.46c-1.12,0.73-3.72,2.31-7.31,3.79c-2.76,1.31-6.21,2.34-10.5,2.84c-1.54,0.2-3.14,0.33-4.79,0.33
				c-0.82,0-1.66-0.04-2.51-0.1c-0.11-0.01-0.22-0.02-0.33-0.03c-4.52-0.38-9.31-1.69-14.09-4.52c-3.58-2.13-6.01-5.32-7.74-9.03
				c-1.73-3.7-2.78-7.94-3.62-12.24c-1.69-8.64-2.62-17.61-6.13-23.21c-3.48-5.64-10.57-9.48-17.19-15.01
				c-2.48-2.08-4.89-4.4-6.99-7.17c-0.02-0.02-0.03-0.04-0.05-0.05c-3.2-3.48-4.77-6.62-5.53-11.04c-0.01-0.03-0.02-0.06-0.02-0.09
				c-0.64-2.2-1.11-4.59-1.37-7.21c-0.12-1.29-0.19-2.56-0.19-3.81c0.01-8.4,2.71-15.63,5.35-21.85c2.66-6.2,5.24-11.41,5.22-15.56
				c0-0.68-0.07-1.36-0.22-2c-0.59-2.62-2.89-5.25-5.34-7.3c-0.9-0.76-1.81-1.44-2.66-2.02c-0.5-0.35-1.18-0.26-1.55,0.21
				c-0.18,0.22-0.39,0.46-0.63,0.7c-0.96,0.97-2.51,1.95-4.65,1.95c-0.45,0-0.93-0.05-1.44-0.14c-1.19-0.22-2.1-0.81-2.72-1.58
				c-0.63-0.78-0.99-1.7-1.21-2.64c-0.07-0.31-0.12-0.62-0.17-0.94l-0.02,0.06l-0.21,0.1c-0.04,0.02-3.18,1.69-6.1,1.7
				c-1.38,0.01-2.83-0.43-3.67-1.76c-0.15-0.25-0.28-0.49-0.39-0.75c-0.22-0.5-0.76-0.79-1.3-0.67c-1.04,0.22-2.29,0.42-3.51,0.42
				c-0.92-0.01-1.83-0.11-2.64-0.43c-0.8-0.31-1.52-0.88-1.93-1.72c-0.98-2.08-1.16-3.93-1.16-5.28c0-0.81,0.07-1.45,0.07-1.8
				l-0.01-0.04l-0.42-0.22c-0.41-0.2-0.98-0.44-1.58-0.8c-1.18-0.72-2.47-2.06-2.46-4.33c0-0.21,0.01-0.44,0.04-0.67
				c0.21-2.3,1.73-3.61,3.32-4.21c1.58-0.62,3.29-0.67,4.28-0.67h0.5l0.17-0.29c0.17-0.32,0.36-0.86,0.57-1.46
				c0.44-1.2,0.99-2.7,2-3.79c0.67-0.74,1.59-1.26,2.74-1.26l0.31,0.01c2.28,0.19,3.94,1.59,5,2.89c0.52,0.63,0.91,1.25,1.17,1.73
				c0.22-0.26,0.46-0.5,0.73-0.72c0.67-0.56,1.54-0.95,2.55-0.94c0.37,0,0.74,0.04,1.13,0.14c2.27,0.57,3.66,1.79,4.45,2.88
				c0.79,1.08,1.01,2,1.01,2.06l0.04,0.13c0,0-0.13,0.59-0.29,1.37c0.03-0.06,0.06-0.1,0.09-0.16c0.67-1.14,1.42-2.48,2.36-3.43
				c0.64-0.63,1.41-1.12,2.33-1.12c0.29,0,0.57,0.05,0.86,0.14c1.61,0.54,3.1,1.71,4.21,3.01c1.12,1.31,1.9,2.71,1.91,3.99
				c0,0.14-0.03,0.26-0.06,0.4c2.52,1.1,6.6,3.08,10.79,5.94c6.76,4.62,13.86,11.55,14.83,20.87c0.13,1.28,0.19,2.54,0.19,3.76
				c0,1.19-0.08,2.34-0.18,3.46c0,0.03-0.01,0.05-0.01,0.07c-0.02,4.84-1.2,8.29-2.66,11.42c-0.01,0.03-0.02,0.06-0.03,0.09
				c-0.44,1.23-0.89,2.43-1.34,3.59c-2.09,5.38-4.12,10.14-4.11,14.83c0,1.04,0.1,2.09,0.31,3.13c1.09,5.56,7.15,10.67,13.76,15.87
				c6.58,5.23,13.64,10.56,16.52,17.22c2.77,6.47,3.45,11.4,4.33,15.5c0.89,4.1,1.92,7.33,5.44,10.81c2.89,2.84,5.74,3.62,8.16,3.64
				c1.4,0,2.64-0.29,3.63-0.62c-0.02-0.36-0.03-0.72-0.03-1.08c0.02-2.4,0.4-4.79,1.71-6.17c0.64-0.65,1.5-0.9,2.33-0.89
				c0.23,0,0.47,0.02,0.7,0.05c0.11-2.35,1.02-4.32,2.3-5.85c1.36-1.65,3.13-2.82,4.81-3.53c0.89-0.37,1.7-0.53,2.42-0.53
				c0.16,0,0.31,0.03,0.46,0.04c0.58-2.13,1.88-4.84,3.74-7.24c2.13-2.73,5.03-5.07,8.47-5.32c0.52-0.04,1.01-0.05,1.47-0.05
				c2.28,0,4.12,0.4,5.52,0.88c0.36,0.12,0.74,0.06,1.06-0.14c0.6-0.4,1.22-0.71,1.84-0.89c0.84-0.25,1.73-0.36,2.6-0.38
				c0.93-0.08,1.82-0.03,2.6,0.07c0.93,0.12,1.37,1.22,0.74,1.91c-0.65,0.7-1.26,1.79-1.53,3.48c0.6-0.49,1.25-1.07,1.86-1.71
				c1.61-1.66,2.93-3.74,2.92-5.54c-0.01-0.82-0.25-1.61-0.89-2.41c-0.5-0.7-2.15-1.37-4.43-1.72c-2.28-0.38-5.17-0.53-8.23-0.53
				c-4.78,0-9.96,0.37-13.94,0.72c-3.99,0.36-6.76,0.71-6.76,0.71h-0.03l-0.02,0.02c-0.01,0-0.62,0.04-1.68,0.04
				c-4.04-0.01-14.76-0.69-24.68-7.42c-9.92-6.71-18.93-19.53-19.45-43.36c-0.02-0.68-0.03-1.35-0.03-2
				c0-12.97,2.97-22.62,7.66-30.25c4.7-7.61,11.08-13.19,17.89-18.13c13.6-9.86,28.76-17.26,35.92-33.06l0.02-0.08l0.07-0.4
				c0.06-0.35,0.11-0.83,0.11-1.38c0.01-1-0.19-2.17-0.81-3.04c-0.17-0.24-0.38-0.46-0.63-0.67l-0.62,0.69
				c-1.85,2.04-4.36,2.93-7.02,2.93c-5.38-0.02-11.55-3.4-16.5-8.05c-2.31-2.2-4.36-4.68-5.89-7.28l-0.07,0.01
				c-0.19,0.01-18.17,1.53-30.56-0.63c-11.22-1.94-10.68-25.64-10.51-33.43c0.02-0.56,0.03-1.11,0.03-1.47
				c0-0.24-0.07-0.47-0.2-0.66c-0.16-0.22-0.37-0.51-0.58-0.8c-1.99-2.67-6.64-8.95-5.63-14.9c1.28-7.47,24.7-26.29,27.76-27.29
				c1.68-0.54,4.57,0.33,6.08,0.87c0.41,0.15,0.85,0.05,1.17-0.24c1.78-1.67,5.61-5.08,7.16-5.08c1.34,0,2.77,1.35,3.54,2.6
				c0.39,0.66,0.98,1.9,0.5,2.86c-0.14,0.29-0.45,0.62-0.94,1.06c0.26,0.06,0.48,0.25,0.54,0.55c0.68,3.66,2.39,14.69-0.83,19.31
				c-0.71,1.03-2.33,0.39-2.09-0.85c0.3-1.58,0.59-3.69,0.59-5.97c0-3.75-2.12-7.29-3.01-8.6c-0.08-0.13-0.11-0.27-0.11-0.41
				c-1.63,1.45-3.08,3.03-3.3,4.33c-0.18,1.04-0.25,2.12-0.31,3.17c-0.15,2.49-0.31,5.06-1.98,7.61c-0.75,1.13-1.67,2.36-2.66,3.64
				c-1.95,2.54-4.14,5.4-4.48,7.27c-0.12,0.64-0.27,1.26-0.41,1.85c-0.56,2.27-0.78,3.48,0.49,4.11c1.84,0.89,9.06,0.24,15.74-2.8
				c3.78-1.71,6.21-3.74,7.81-5.1c1.33-1.1,1.99-1.66,2.66-1.38c0.28,0.12,0.46,0.4,0.46,0.77c-0.01,1.64-4.58,8.53-11.33,11.37
				c-2.32,0.97-4.41,2.02-6.25,2.93c-3.26,1.62-5.93,2.93-8.23,3.07c-0.51,0.04-0.92,0.4-1.03,0.89c-0.27,1.25-0.42,3.21,0.6,4.85
				c1.21,1.93,3.75,3,7.57,3.16c8.27,0.37,14.03-1.02,16.83-1.92c0.17-0.06,0.32-0.16,0.45-0.29c0.21-0.21,0.42-0.42,0.64-0.63
				c3.66-3.51,7.02-5.36,7.06-5.38l0.12-0.07c0.44-0.17,0.59-0.19,0.85-0.19c-0.14-0.29-0.24-0.6-0.29-0.94l-0.03-0.43
				c0.03-1.15,0.55-2.05,1.11-2.94c0.56-0.87,1.22-1.67,1.72-2.25c0.3-0.36,0.55-0.63,0.63-0.73l0.02-0.02h0.01
				c0.13-0.19,0.29-0.35,0.51-0.44c0.04-0.02,0.11-0.08,0.48-0.1c0.11,0,0.27,0.02,0.44,0.08c0.43-0.41,0.85-0.8,1.25-1.15
				c0.19-0.17,0.37-0.32,0.54-0.46c0.43-0.36,0.54-0.96,0.26-1.45c-0.28-0.48-0.52-1.08-0.69-1.82c-1.14-4.94,3.5-5.01,14.08-16.66
				c5.66-6.24,7.67-9.73,11.4-19.53c2.12-5.57,2.59-8.3,2.6-9.64c0-0.07,0-0.15-0.02-0.22c-0.1-0.54-0.18-0.88-0.19-0.96
				c0.01,0.01,0.02,0.03,0.03,0.05c-0.01-0.02-0.01-0.03-0.01-0.04l0.8,0.8c0.23-0.3,0.68-0.44,1.05-0.15
				c1.31,1.04,2.85,3.61,3.08,9.91c0.06,1.77,0.05,3.28-0.02,4.57c-0.06,1.16,1.43,1.69,2.1,0.74c2.08-2.97,4.48-7.27,5.33-12.21
				c1.03-5.94,1.01-10.25,0.86-12.61c-0.03-0.48,0.37-0.79,0.78-0.76c-0.59-0.83-1-1.31-1-1.31s5.63,1.08,6.08,11.19
				c0.32,7.13-0.45,9.27-2.04,11.1c-0.25,0.3-0.61,0.32-0.89,0.18c0.11,0.3,0.4,0.51,0.76,0.47c1.65-0.19,4.99-0.9,6.92-3.53
				c2.33-3.19,5.87-16.17,5.64-25.96c-0.12-1.93-0.26-3.4-0.27-3.54l-0.02-0.01c0,0,0.01-0.01,0.02-0.01
				c0.31-0.14,3.94-1.54,5.1,6.45l0.02-0.17c0.02,0.06,1.3,5.06,1.91,11.1c0.1,0.99,1.32,1.39,1.99,0.66
				c2.06-2.24,5.05-5.77,6.37-8.66c2.14-4.63,2.54-8.34,2.54-8.34s0.01,0.02,0.01,0.06v-0.07c0,0,0.45,0.67,1.04,1.98
				c0.14,0.31,0.42,0.54,0.74,0.63c0.16,0.04,0.3,0.14,0.41,0.3c2.03,3.05,4.83,8.3,5.54,14.83c0.06,0.56,0.49,1,1.05,1.05
				c0.7,0.05,1.53,0.06,2.32-0.07c0.84-0.15,1.58-0.45,2.14-0.74c0.52-0.27,1.12,0.17,1.05,0.75c0,0.04-0.01,0.07-0.02,0.11
				c4.01-0.04,10.34,0.33,16.16,2.52c9.44,3.55,13.5,5.96,18.26,5.86c3.77-0.08,5.85-0.89,6.97-1.64c0.7-0.47,1.64-0.05,1.77,0.78
				c0.21,1.29,0.3,3.07-0.21,4.94c-0.12,0.45,0.06,0.93,0.44,1.21c2.78,1.97,10.59,7.92,13.73,14.3c2.42,4.92,4.21,8.61,6.36,12.57
				c0.22-0.55,0.48-1.24,0.74-2.02c0.72-2.18,1.44-5.14,1.44-8.17c-0.01-3.13-0.22-6.49-1.85-10.39c-1.62-3.9-4.7-8.38-10.53-13.61
				c-5.79-5.17-12.08-7.94-17.83-9.66c-5.76-1.72-10.91-2.37-14.5-3.37c-3.56-0.99-6.03-2.32-7.58-4.65
				c-1.54-2.34-2.03-5.43-2.13-9.8c0-0.23-0.01-0.46-0.01-0.69c-0.02-9.38,4-15.07,9.25-18.19c5.22-3.12,11.56-3.84,16.43-3.84
				c1.88,0,3.54,0.11,4.83,0.24c0.5,0.05,0.98-0.23,1.16-0.7c0.21-0.51,0.45-1.04,0.73-1.59c0.01-0.03,0.03-0.05,0.04-0.07
				c1.11-4.03,10.66-11.54,31.83-10.31c66.08,3.83,109.16,33.21,110.63,34.23c0.03,0.02,0.05,0.04,0.08,0.06
				c13.66,11.31,16.78,10.16,21.49,10.54c4.72,0.39,12.17-2,14.37-0.69c2.22,1.31-3.65,7.79-5.09,9.34c-1.11,1.17-1.82,3.2-2.09,4.1
				c0.04,0,0.08-0.01,0.11-0.01h0.03c0.35,0.03,0.5,0.13,0.5,0.3c4.33,2.62,35.4,22.14,59.88,57.87
				c19.27,28.16,28.03,51.94,34.22,66.04c0.03,0.06,0.06,0.11,0.09,0.16l9.1,14.12c0.06,0.09,0.13,0.18,0.22,0.25
				c6.39,5.63,11.88,6.97,11.53,8.95c-0.41,2.26-1.63,3.91-4.47,4.32c-1.34,0.19-3.57,0.43-5.57,0.63c-0.77,0.08-1.25,0.88-0.94,1.6
				c3.04,6.98,8.19,23.66,8.42,44.36c0.32,26.56-4.56,24.09-8.67,46.94c-4.08,22.76-4.26,68.97-6.81,76.31
				c-0.02,0.05-0.04,0.1-0.07,0.15c-1.21,2.57-2.56,3.67-3.92,8.11c-1.37,4.46,1.05,12.96-3.05,13.11
				c-4.1,0.15-4.56-6.48-4.56-10.03s4.27-16.2,4.27-28.86s-2.75-14.2-4.57-29.33c-1.64-13.54-1.93-53.54-3.17-65.1l-0.29-2.06
				c-0.06-0.31-0.12-0.56-0.19-0.75c-0.93-2.55-3.87-6.76-6.31-10.01c-0.18-0.24-0.18-0.49-0.09-0.7c-0.43-0.56-0.72-0.95-0.8-1.06
				c-0.02-0.02-0.03-0.04-0.05-0.06l-1.2-1.24c-0.01-0.02-0.03-0.04-0.05-0.06c-0.42-0.38-0.79-0.71-1.08-0.96
				c-0.1-0.09-0.21-0.13-0.33-0.15c0.29,4.99,1.84,49.33,2.92,64.72c1.11,15.95,2.32,69.45-4.27,69.45
				c-6.59,0-0.61-39.52-3.85-48.77c-3.26-9.27-3.14-6.59-6.28-13.98c-3.16-7.42-3.11-36.71-8.12-54.03
				c-2.97-10.27-6.01-13.69-7.14-14.68c-0.13-0.04-0.26-0.05-0.39-0.02c0.29,1.4,1.48,8.12,3.59,31.57
				c2.44,27.18,2.53,27.68,3.24,38.59c0.71,10.91,1.05,49.55-0.51,48.37c-5.88-4.54-1.01-25.53-3.95-34.16
				c-2.94-8.65-7.6-10.1-13.29-34.57c-5.68-24.5-2.04-30.06-6.08-39.21c-2.92-6.58-6.5-8.85-8.3-9.61
				c-0.23-0.04-0.45,0.02-0.61,0.16c0.17,4.97,1.14,23.28,6.36,36.51c6.1,15.43,7.3,34.11,5.93,37.03
				c-1.37,2.94-6.54-9.1-9.88-19.75c-3.35-10.65-6.55-22.21-8.83-29.32c-2.28-7.1-8.52-17.76-12.01-20.69
				c-0.63-0.52-1.05-0.94-1.31-1.26c-0.09-0.12-0.2-0.22-0.33-0.3c-1.06-0.59-2.48-1.51-3.84-2.42c-0.08-0.06-0.16-0.1-0.25-0.13
				c-0.61-0.21-1.29-0.49-2.01-0.84c-0.03,0.03-0.07,0.05-0.1,0.08c1.29,1.2,2.29,2.12,2.83,2.63c2.64,2.46,4.87,16.04,8.83,27.36
				c3.94,11.31,4.87,20.59,6.58,23.77c1.73,3.18,5.27,8.32,2.64,7.81c-2.64-0.51-5.08-3.6-6.7-7.71c-0.02-0.05-0.03-0.09-0.05-0.13
				c-0.07-0.04-0.13-0.08-0.18-0.15c-0.81-1.02-3.83-5.22-9.31-17.12c-6.49-14.1-5.07-15.74-6.38-19.96
				c-1.34-4.22-16.84-18.52-20.61-18.32c-2.97,0.16-4.91,0.53-6.06,0.66c0.42,0.46,0.79,0.9,1.1,1.24
				c4.87,5.57,8.81,20.38,11.87,28.4c3.34,8.81,9.12,15.6,10.2,16.36c1.06,0.78,0.34,2.12-2.49,2.12c-1.46,0-2.92-0.68-4.05-1.96
				c-0.01-0.01-2.65-3.05-5.1-6.73c0,0-0.02,0-0.02-0.01c-0.92-1.02-18.72-27.52-23.59-31.42c-4.88-3.92-7.71-3.1-13.18-5.36
				c-5.48-2.26-11.99-13.37-14-15.43c-0.29-0.3-0.59-0.55-0.9-0.77c-0.7-0.49-1.67-0.03-1.78,0.81c-0.53,3.94-1.77,7.87-4.71,10.62
				c-0.4,0.38-0.44,1.01-0.13,1.47c1.91,2.78,4.89,8.06,8.19,17.36c2.88,8.17,3.48,18.69,3.38,27c0,0.36,0.16,0.7,0.46,0.92
				c12.2,9.23,40.92,30.89,65.26,48.98c31.84,23.63,56.34,42.96,56.38,42.99c0.02,0.02,6.94,5.07,8.13,6.19
				c1.79,1.67-12.17,16.46-29.21,13.16c-0.81-0.15-1.78-0.49-2.9-0.98c-0.04,0.16-0.12,0.3-0.27,0.41
				c-3.74,2.5-17.77,11.21-28.08,8.2c-0.51-0.15-1.55-0.88-3.04-2.08c-0.47-0.39-1.17-0.35-1.58,0.11c-2.31,2.58-7.28,7-13.42,5.66
				c-6.16-1.33-10.41-4.93-12.28-6.82c-0.51-0.51-1.36-0.41-1.77,0.18c-1.39,1.99-4.03,4.39-8.45,3.77
				c-7.31-1.03-9.54-3.91-9.54-3.91l-24.96-29.67c0.16,0.92,0.32,1.87,0.43,2.7c0.33,2.27,0.23,4.95,0.19,5.74
				c-0.01,0.15,0.02,0.3,0.08,0.44c0.79,2.21,1.65,9.91-0.69,10.9c-1.24,0.52-3.97-1.42-6.35-3.45c-0.75-0.65-1.92-0.1-1.89,0.9
				c0.05,2.31-0.04,5.09-0.3,7.3c-0.05,0.38,0.09,0.75,0.38,1c1.18,1.03,2.26,1.98,3.03,2.64c2.24,1.96,3.63,3.85,4.15,4.62
				c0.11-0.01,0.22-0.03,0.34-0.03c1.27,0.02,3.23,0.74,4.94,2.64c0.98,1.11,1.89,2.05,2.54,2.71c0.4,0.39,0.69,0.68,0.86,0.85
				l0.12-0.01c1.62,0.02,3.77,0.99,5.57,2.65c0.96,0.9,1.67,1.82,2.14,2.52c0.28,0.42,0.78,0.6,1.26,0.46
				c1.18-0.35,3.08-0.77,5.4-0.77c1.39,0,2.98,0.16,4.62,0.58c2.12,0.53,3.46,1.75,4.18,3.15c0.72,1.37,0.91,2.88,0.91,4.09
				c0,0.31-0.02,0.59-0.03,0.86c-0.04,0.45,0.23,0.86,0.63,1.09c0.55,0.32,0.92,0.79,1.12,1.23c0.23,0.49,0.3,0.93,0.33,1.2
				c0.15,0,0.31,0.02,0.5,0.06c0.61,0.05,2.91,0.47,5.39,3.77c3.54,4.74,4.52,7.6,3.75,12.26c-0.22,1.79-0.64,3.28-1.2,4.5
				c-0.04,0.1-0.08,0.2-0.13,0.29c-0.05,0.1-0.1,0.21-0.15,0.31c-1.04,2.04-2.52,3.22-4.14,3.91c-1.27,0.56-2.64,0.82-3.98,0.87
				c-0.26,0.02-0.51,0.04-0.76,0.05c-0.94,0.03-1.86-0.04-2.7-0.17c-1.11-0.17-1.35-1.67-0.34-2.16c2.11-1.03,3.89-3.23,1.96-7.97
				c-1.46-3.58-4.2-3.42-6.17-3.38c-0.73,0.01-1.27,0.68-1.1,1.4c0.42,1.81,0.88,4.36,1.17,7.63c0.31,3.44,0.02,6.4-0.73,9.1
				c-0.06,0.21-0.12,0.41-0.18,0.62c-0.23,0.71,0.28,1.44,1.03,1.49c1.9,0.1,4.27,0.23,7.26,0.39c0.58,0.02,1.15,0.04,1.69,0.04
				c2.95,0,5.01-0.47,6.65-1.28c1.64-0.79,2.88-1.95,4.14-3.48c2.5-3.01,4.88-7.53,9.88-12.38c0.22-0.21,0.44-0.42,0.66-0.63
				c-0.71-1.57,0-4.77,0.8-6.49c0.47-1.03,1.53-2.1,2.57-2.99c0.84-0.72,2.1,0.07,1.86,1.14c-0.28,1.28-0.56,2.66-0.63,3.54
				c-0.01,0.19-0.03,0.39-0.06,0.6c3.46-3.08,6.89-5.88,10.13-8.17c2.39-1.69,4.66-3.1,6.76-4.16c0.35-0.17,0.59-0.5,0.63-0.89
				c0.08-0.91,0.44-1.96,1.1-2.96c0.8-1.24,2.33-2.26,3.78-3.01c1.03-0.54,2.11,0.65,1.5,1.64c-0.78,1.25-1.48,2.5-1.48,2.91
				c0,0.1-0.01,0.24-0.02,0.39c0.17-0.02,0.34-0.07,0.51-0.09l0.57-0.03c1.52,0.02,3.17,0.51,4.99,1.28
				c1.81,0.77,3.77,1.84,5.74,3.08c1.91,1.2,3.84,2.56,5.67,3.97c0.51,0.4,1.23,0.3,1.62-0.22c1.52-1.97,3.33-3.92,5.42-5.74
				c3.08-2.7,6.32-4.74,9.38-6.05c0.81-0.35,0.9-1.42,0.22-1.97c-0.25-0.2-0.5-0.44-0.75-0.73c-1.25-1.46-1.56-4.42-1.63-5.29
				c-0.01-0.17,0.01-0.33,0.07-0.48c0.28-0.76,1.23-3.1,2.03-3.32c0.94-0.24,3.24-0.57,3.94-1.11s-0.87-0.73-0.18-1.97
				c0.68-1.24,8.09,2.68,8.14,3.82c0.04,1.12-1.22,0.5-1.56,1.11c-0.23,0.39,0.13,1.66,0.39,2.74c0.13,0.58,0.68,0.96,1.27,0.88
				c0.53-0.07,1.07-0.14,1.54-0.2c0.22-0.04,0.43-0.14,0.6-0.3l0.62-0.59c-0.13-0.34-0.37-0.75,0.15-1.23
				c0.08-0.08,0.21-0.08,0.38-0.03c0.38,0.12,0.81,0.01,1.1-0.26l8.89-8.33c0.3-0.28,0.44-0.7,0.34-1.1
				c-0.14-0.53-0.22-1.08-0.22-1.64c0-1.33,0.39-2.68,1.15-3.92c1.49-2.37,4.08-3.71,6.66-3.71c1.17,0,2.35,0.28,3.42,0.88
				c2.2,1.2,3.43,3.45,3.42,5.83c0,1.3-0.36,2.66-1.16,3.89c-1.48,2.38-4.06,3.72-6.64,3.72c-0.85,0-1.7-0.15-2.52-0.46
				c-0.46-0.18-0.99-0.01-1.29,0.38l-7.19,9.44c-0.27,0.35-0.32,0.84-0.1,1.23c0.31,0.56,0.43,0.98,0.25,1.16
				c-0.91,0.89-2.06,0.36-2.53,0.92c-0.47,0.55-0.53,0.98-0.51,1.9c0.01,0.28-0.24,0.5-0.6,0.69c0.8,0.19,1.57,1.64,2.22,1.74
				c0.64,0.1,0.14-1.45,1.23-2.03c1.08-0.57,2.07,8.54,1.08,8.51c-0.99-0.03-1.2-1.1-1.77-1.04c-0.58,0.04-0.7,1.41-1.63,2.22
				c-0.94,0.81-5.2,0.83-6.5,0.33c-0.03-0.01-0.04-0.02-0.06-0.02c-1.79,3.65-4.78,7.52-8.69,10.94c-2.35,2.05-4.78,3.72-7.16,4.98
				c-0.46,0.24-0.7,0.74-0.59,1.24c0.14,0.66,0.26,1.34,0.38,2.03c0.63,3.65,0.99,7.65,0.99,10.99c0,1.42-0.07,2.72-0.21,3.84
				c-0.03,0.22-0.06,0.43-0.1,0.63c1.76-0.28,3.67-0.4,4.21-0.32c0.45,0.07,1.52,0.19,2.61,0.3c1.11,0.12,1.42,1.59,0.46,2.15
				c-1.03,0.6-2.2,1.11-3.22,1.11c-1.1,0-2.72-0.2-4.15-0.51c-0.42-0.09-0.86,0.06-1.13,0.41c-0.38,0.48-0.87,0.97-1.48,1.54
				c-1.02,0.92-2.35,1.98-3.96,3.15c-3.21,2.32-7.56,5.06-12.59,7.68c-1.51,0.79-3.08,1.57-4.7,2.33c0.2,0.2,0.41,0.43,0.64,0.68
				c0.8,0.88,2.51,1.53,4.17,1.97c1.23,0.33,1.09,2.12-0.17,2.26c-1.05,0.12-2.17,0.05-3.23-0.37c-2.15-0.86-4.01-1.95-4.81-3.01
				c-0.21,0.09-0.43,0.18-0.65,0.27c0.89,1.46,1.92,2.99,2.45,3.3c0.39,0.23,1.31,0.67,2.3,1.14c0.75,0.35,0.43,1.49-0.4,1.38
				c-1.89-0.24-3.94-0.71-4.94-1.58c-0.64-0.56-1.35-1.4-2.04-2.3c-0.31-0.4-0.84-0.55-1.31-0.37c-7.18,2.68-14.89,4.62-22.36,4.87
				c-0.54,0.01-1.06,0.03-1.6,0.03c-8.06-0.01-16.71-1.9-24.68-4.4c-0.88-0.27-1.72,0.54-1.46,1.42c0.32,1.03,0.84,2.19,1.39,3.26
				c0.59,1.14-0.83,2.23-1.79,1.39c-0.81-0.71-1.59-1.58-2.17-2.62c-0.92-1.65-1.77-3.49-2.27-5.09c-0.1-0.34-0.36-0.62-0.7-0.75
				c-1.41-0.52-2.79-1.04-4.11-1.57c-5.96-2.39-10.93-4.76-14.1-6.36c-0.31-0.16-0.67-0.16-0.99-0.02
				c-4.18,1.94-8.74,3.11-13.39,3.34c-2.92,0.15-5.77,0.55-8.53,1.12c-0.04,0-9.53,2.74-9.53,2.74c-0.03,0.01-0.06,0.02-0.08,0.03
				c-0.72,0.26-1.42,0.54-2.11,0.82c-0.04,0.01-0.08,0.03-0.12,0.05c-1.07,0.58-11.08,6.02-12.92,7.06
				c-0.06,0.04-0.11,0.07-0.17,0.12c-1.21,0.97-2.3,2.5-3.28,4.35c-0.32,0.6-0.05,1.35,0.58,1.61l3.86,1.6
				c0.05-0.07,0.08-0.14,0.13-0.21c0.81-1.14,1.93-2.07,3.12-2.8c2.44-1.45,5.33-2.19,7.71-2.2c1.34,0.01,2.74,0.45,4.15,1.16
				c1.41,0.73,2.81,1.75,4.08,3.02c2.53,2.53,4.53,6.03,4.56,10.03c-0.01,1.37-0.19,2.66-0.49,3.85c-0.16,0.68,0.28,1.34,0.97,1.42
				c2.8,0.34,6.47,0.59,11.22,0.59c15.92,0,30.71-3.98,40.08-7.05c6.96-2.28,11.84-2.75,14.05-2.83c0.26-0.01,0.5-0.1,0.69-0.26
				c3.19-2.66,7.92-5.47,10.68-5.61c4.07-0.19,10.14-0.61,13.7,4.53c3.54,5.15-5.18,10.19-8.02,13.28
				c-2.83,3.08-13.53,10.35-19.46,2.46c-0.24-0.32-0.44-0.66-0.62-1c-0.04,0.01-0.06,0.01-0.1,0.02c-2.5,0.72-5.94,1.72-9.68,2.89
				c-7.48,2.35-16.19,5.43-20.86,8.15c-1.32,0.76-2.31,1.5-2.78,2.06c-0.25,0.29-0.35,0.51-0.37,0.59l-0.04,0.36
				c-0.02,0.72,0.5,1.75,1.58,2.85c1.03,1.11,2.56,2.23,4.18,3.23c1.06,0.66,2.17,1.28,3.23,1.83c0.59,0.3,1.31,0.06,1.58-0.54
				c1.97-4.31,6.26-7.3,11.25-7.31c6.61,0.01,12.01,5.24,12.41,11.85c0.02,0.42-0.32,0.76-0.73,0.76c0.41,0,0.75,0.34,0.73,0.76
				c-0.39,6.6-5.8,11.84-12.41,11.84c-4.18,0-7.87-2.1-10.12-5.32c-0.25-0.37-0.68-0.58-1.13-0.51c-0.84,0.14-1.91,0.33-3.27,0.6
				c-4.14,0.84-10.83,2.45-20.98,5.52c-6.99,2.13-12.45,5.21-17.17,8.49c-0.13,0.09-0.24,0.22-0.32,0.36
				c-0.63,1.05-1.38,1.94-2.21,2.67c-1.42,1.26-3.03,2.06-4.62,2.51c-0.15,0.04-0.28,0.1-0.4,0.2c-5.2,4.15-9.94,7.96-15.84,9.64
				c-1.53,0.42-3.88,0.79-6.94,1.12c-3.06,0.33-6.82,0.63-11.03,0.86c-8.43,0.5-18.69,0.77-28.95,0.77
				c-15.29,0-30.47-0.63-39.45-2.23c-3.02-0.53-5.32-1.15-6.88-2.04c-5.13-2.95-8.82-6.12-12.18-9.09c-0.32-0.1-0.59-0.18-0.91-0.27
				c-0.72,0.09-1.43,0.14-2.12,0.14c-3.19,0-6.43-1.16-8.93-3.25c-1.89-1.55-3.34-3.68-3.94-6.21c-0.1-0.43-0.42-0.78-0.85-0.88
				c-0.26-0.06-0.52-0.12-0.79-0.18c-2.76-0.58-5.97-1.04-9.28-1.41c-6.59-0.72-13.57-1.04-18.07-1.18
				c-0.6-0.01-1.15-0.03-1.65-0.04c-0.45-0.01-0.87,0.23-1.05,0.64c-1.37,3.12-5.08,5.2-9.46,7.17c-6.54,2.93-19.92,1.23-22.97-4.01
				c-3.04-5.24,4.87-13.73,12.93-15.74c4.25-1.06,8.94-0.65,12.71,0.82c0.21-0.06,0.46-0.14,0.79-0.25c0.75-0.26,1.8-0.64,2.96-1.13
				c2.32-1,5.08-2.48,6.78-4.21c1.15-1.16,1.77-2.35,1.77-3.53v-0.19c-0.09-1.51-0.7-2.9-1.84-4.25c-1.13-1.33-2.79-2.61-4.85-3.78
				c-4.11-2.34-9.78-4.19-15.82-5.61c-12.07-2.87-25.58-4.06-31.37-4.46c-0.46-0.03-0.87-0.06-1.23-0.08
				c-0.83,6-5.9,10.6-12.04,10.62c-6.73-0.02-12.17-5.53-12.17-12.36c0-6.82,5.44-12.33,12.17-12.33c2.96,0,5.66,1.07,7.77,2.85
				c0.24,0.2,0.55,0.31,0.86,0.27c0.54-0.06,1.14-0.15,1.75-0.29c1.6-0.35,3.27-1.03,4.36-2.09c0.72-0.72,1.22-1.59,1.41-2.81
				l0.01-0.13c0.02-0.33-0.24-1.06-0.89-1.95c-0.63-0.89-1.61-1.95-2.82-3.05c-2.44-2.23-5.81-4.71-9.4-7.12
				c-6.79-4.57-14.33-8.84-17.82-10.78c-0.28-0.15-0.61-0.18-0.91-0.08c-2.48,0.79-5.8,0.9-10.02,0.16
				c-8.83-1.54-21.45-15.59-18.25-22.99c3.18-7.4,26.16-1.23,31.79,6.33c0.33,0.45,0.64,0.94,0.91,1.48
				c0.11,0.21,0.26,0.38,0.46,0.48c1.14,0.6,14.46,7.49,20.59,10.51c12.25,6.04,26.75,12.75,35.44,15.39
				c2.48,0.76,4.5,1.16,5.69,1.16c0.35,0,0.63-0.05,0.8-0.09c0.23-0.06,0.4-0.17,0.61-0.43c0.2-0.24,0.4-0.64,0.56-1.16
				c0.33-1.02,0.47-2.48,0.47-3.99c0-0.74-0.03-1.48-0.08-2.21c-0.04-0.48-0.39-0.87-0.85-1.02c-5-1.53-8.63-6.22-8.63-11.79
				c0-6.82,5.44-12.36,12.17-12.36c6.47,0,11.77,5.14,12.15,11.6c0.02,0.42-0.32,0.76-0.73,0.76c0.41,0,0.75,0.34,0.73,0.75
				c-0.17,2.81-1.26,5.35-2.98,7.34c-0.31,0.36-0.39,0.87-0.17,1.3c0.67,1.31,1.53,2.87,2.57,4.59c2.83,4.65,6.95,10.28,11.98,14.12
				c3.36,2.56,7.09,4.33,11.13,4.61c0.82,0.06,1.57,0.11,2.3,0.14c-0.02-0.28-0.05-0.56-0.05-0.85c0.02-3.17,1.33-6.82,3.53-9.81
				c2.19-2.95,5.37-5.31,9.19-5.33l0.54,0.02c3.64,0.22,6.53,1.51,8.48,3.59c0.17,0.18,0.32,0.36,0.47,0.54
				c0.22,0.28,0.55,0.45,0.9,0.46c1.21,0,2.47,0.01,3.63,0.05c1.43,0.05,2.64,0.13,3.44,0.3c0.11,0.01,0.21,0.03,0.31,0.06
				c0.98-0.11,4.2-0.45,8.41-0.59c0.67-0.01,1.32-0.01,1.96-0.01c1.86,0,3.56,0.06,4.95,0.19c1.4,0.12,2.43,0.28,3.1,0.47
				c0.08,0.02,0.15,0.04,0.22,0.07c1.78-0.09,10.88-0.52,15.74-0.6c0.6-0.02,1.23-0.02,1.89-0.02c2.48,0,5.2,0.07,7.37,0.15
				c0.64,0.02,1.16-0.48,1.18-1.12c0.08-3.26,0.21-6.54,0.42-9.62c0.5-7.28,0.7-11.69,1.59-15.75c0.14-0.7,0.32-1.38,0.51-2.07
				c-3.46,2.81-8.02,5.71-13.92,8.02c-0.29,0.12-0.61,0.21-0.92,0.32c-0.12,0.75-0.34,1.58-0.61,2.37
				c-0.34,1.02-1.19,2.38-2.03,3.59c-0.64,0.93-2.09,0.45-2.04-0.68c0.05-1.04-1.2-1.6-1.95-0.88c-0.15,0.15-0.31,0.3-0.48,0.46
				c-0.45,0.43-0.94,0.85-1.43,1.24c-0.95,0.78-2.29-0.3-1.75-1.41c0.29-0.58,0.55-1.16,0.75-1.69c0.1-0.28,0.19-0.54,0.25-0.76
				c-3.7,0.53-7.61,0.75-11.56,0.75c-2.87,0-5.77-0.12-8.63-0.33c-0.37-0.02-0.72,0.13-0.96,0.41c-0.35,0.42-0.74,0.85-1.16,1.3
				c-1.14,1.22-2.49,2.06-3.71,2.62c-1.05,0.49-2.08-0.73-1.43-1.69c0.34-0.51,0.68-1.06,1-1.6c0.41-0.72-0.06-1.62-0.88-1.72
				c-8.08-0.96-15.4-2.43-20.38-3.64c-1.16-0.29-2.33-0.66-3.51-1.08c-0.45-0.17-0.95-0.04-1.27,0.32c-0.8,0.9-1.99,1.72-3.3,2.19
				c-0.59,0.21-1.19,0.31-1.76,0.33c-1.23,0.06-1.64-1.62-0.55-2.18c0.11-0.06,0.23-0.12,0.34-0.17c0.93-0.46,0.9-0.98,1.17-1.78
				c0.19-0.53-0.02-1.11-0.52-1.39c-3.38-1.85-6.64-4.22-9.47-7.03c-4.22-4.2-7.51-9.4-8.75-15.27c-0.17-0.8-1.08-1.17-1.76-0.71
				c-6.09,4.06-15.33,7.47-29.35,7.47c-2.24,0-4.6-0.09-7.1-0.27c-1.23-0.09-2.41-0.2-3.58-0.32c-0.45-0.05-0.87,0.17-1.1,0.56
				c-0.37,0.63-0.89,1.32-1.6,2.08c-1.1,1.19-2.46,2.2-3.63,2.95c-0.91,0.59-2.05-0.3-1.72-1.32c0.5-1.52,1.16-3.29,1.85-4.32
				c0.15-0.23,0.32-0.45,0.5-0.66c-0.11-0.01-0.22-0.03-0.33-0.05c-0.11,0.16-0.22,0.31-0.34,0.45c-0.55,0.65-2.55,1.75-4.21,2.6
				c-0.92,0.47-1.95-0.42-1.61-1.39c0.14-0.43,0.31-0.88,0.48-1.31c0.26-0.66-0.15-1.39-0.85-1.54c-9.91-2.14-17.31-5.37-22.73-8.96
				c-0.38-0.25-0.86-0.27-1.24-0.02c-0.64,0.41-1.32,0.76-1.94,0.99c-1.19,0.44-3.33,1.11-5.13,1.65c-1.07,0.32-1.92-0.92-1.24-1.81
				c1.04-1.37,2.46-2.92,4.09-3.78c0.33-0.18,0.65-0.32,0.96-0.46c-5.75-5.05-8.2-10.34-8.72-14.03c-0.05-0.46-0.09-0.96-0.09-1.49
				c0-0.45,0.03-0.93,0.07-1.43c-0.48,0.01-0.97,0.02-1.48,0.02c-5.01,0-11.29-0.51-18.09-2.26c-0.55-0.14-1.12,0.13-1.34,0.65
				c-0.39,0.87-0.88,1.69-1.29,2.34c-0.24,0.4-0.78,0.77-1.46,1.1c-1.17,0.58-2.25-0.91-1.33-1.85c0.45-0.46,0.81-0.9,0.97-1.27
				c0.12-0.25,0.24-0.56,0.36-0.9c0.23-0.62-0.09-1.29-0.71-1.5c-6.23-2.1-12.73-5.33-18.95-10.2c-0.33-0.26-0.77-0.32-1.15-0.16
				c-0.85,0.37-1.89,0.57-3.11,0.43c-0.68-0.08-1.33-0.24-1.93-0.46c-1.19-0.43-0.86-2.24,0.4-2.23c0.7,0.01,1.3-0.1,1.67-0.4
				c0.13-0.1,0.29-0.2,0.45-0.28c-8.28-7.51-12.84-15.43-14.89-22.87c-0.13-0.48-0.54-0.81-1.04-0.85
				c-0.21-0.01-0.42-0.04-0.65-0.08c-1.83-0.36-3.16-1.67-3.96-2.73c-0.4-0.52,0.06-1.26,0.7-1.15c0.78,0.13,1.72,0.27,2.56,0.37
				c0.57-0.58,0.7-0.72,1.28-1.3c-0.17-1.4-0.25-2.77-0.24-4.1c0-5.03,1.05-9.56,2.64-13.27c0.23-0.55,0.01-1.2-0.52-1.48
				c-4.2-2.19-8.23-6.24-11.04-11.6c-2.25-4.29-3.36-8.75-3.44-12.8c-0.34,0.27-0.73,0.54-1.2,0.78c-2.09,1.07-5.67,0.46-6.64,0.26
				c-0.17-0.03-0.32-0.1-0.45-0.2c-0.74-0.55-3.25-2.5-3.25-3.55c0-1.23,0.3-4.12-0.11-5.13c-0.4-1.03-1.11,0.8-2.33-0.42
				c-1.21-1.23,5.58-8.96,6.9-8.65c1.32,0.31,0.2,1.65,0.82,2.27c0.39,0.41,2.02,0.37,3.38,0.41c0.64,0.02,1.16-0.48,1.18-1.11
				c0.06-1.66,0.38-3.7,0.11-4.24c-0.41-0.82-1.52,0.51-2.33-0.73c-0.24-0.37,0.55-1.19,1.8-2.13c0.44-0.32,0.59-0.91,0.37-1.4
				l-5.07-11.19c-0.17-0.37-0.53-0.59-0.94-0.64c-1.76-0.18-3.46-1.05-4.71-2.57c-1.11-1.36-1.66-3-1.66-4.6
				C1222.86,855.08,1223.65,853.18,1225.19,851.89z M1872.3,895.89c-1.44,17.97-19.17,27.15-28.44,33.87
				c-6.63,4.8-10.8,10.4-12.65,13.22c-0.06,0.11-0.1,0.22-0.16,0.33c-0.22,0.65-0.45,1.34-0.68,2.06c-0.32,1,0.49,2,1.53,1.9
				l14.21-1.38c0.66-0.06,1.17-0.57,1.29-1.21c0.62-3.24,3.42-5.69,6.8-5.69c3.82,0,6.93,3.16,6.93,7.04c0,3.89-3.11,7.04-6.93,7.04
				c-1.92,0-3.64-0.79-4.9-2.06c-0.37-0.37-0.91-0.51-1.42-0.37l-20.15,5.75c-0.48,0.14-0.86,0.52-1,1
				c-0.55,1.91-1.14,4.02-1.26,4.47c-0.02,0.06-0.03,0.12-0.04,0.18c-0.06,0.41-0.26,2.02-0.26,2.02c0.01,0.16,0.03,0.31,0.04,0.47
				c0.6,1.9,1.33,5.07,1.45,9.74c0.19,6.38-0.24,14.87-0.43,18.3c-0.02,0.4,0.26,0.69,0.6,0.75c9.17-9.18,16.13-11.57,20.02-12.07
				c0.41-0.05-6.49,10.04-10.45,20.84c-3.95,10.81-11.26,33.75-24.95,41.15c-9.28,5.03-16.2,5.23-21.11,6.09
				c-0.22,0.04-0.43,0.13-0.61,0.26c-2.4,1.75-4.63,3.45-6.45,5.08c-3.41,3.05-4.98,5.08-6.28,6.98c-0.53,0.77-0.2,1.84,0.67,2.18
				l9.9,3.92c0.6,0.24,1.27,0.04,1.68-0.45c1.33-1.6,3.31-2.62,5.54-2.62c4.01,0,7.24,3.29,7.24,7.34s-3.23,7.36-7.24,7.36
				c-3.6,0-6.59-2.68-7.14-6.18c-0.1-0.62-0.56-1.11-1.18-1.22l-14.48-2.62c-0.51-0.09-1.03,0.09-1.37,0.49
				c-2.3,2.69-3.28,3.81-5.36,4.35c-0.37,0.1-0.66,0.18-0.9,0.24c-0.2,0.05-0.37,0.15-0.53,0.27l-0.85,0.69
				c-0.32,0.26-0.52,0.64-0.54,1.06c-0.12,2.12-0.4,4.71-1.07,7.12c-1.01,3.57-2.16,7.41-2.79,9.52c-0.18,0.6,0.42,1.12,0.99,0.87
				c1.11-0.5,2.76-1.1,4.57-1.33c1.23-0.16,2.43-0.25,3.45-0.31c1.18-0.06,1.94,1.22,1.31,2.23c-0.7,1.13-1.46,2.54-1.87,3.94
				c-0.91,3.09,0.61,21.61-17.04,32.72c-15.28,9.62-51.01,9.6-60.33,9.42c-0.13,0.02-0.26,0.03-0.4,0.05
				c-4.57,1.19-7.63,2.46-10.31,4.11c-0.81,0.5-0.91,1.63-0.23,2.28l11.65,11.18c0.13-0.11,0.26-0.23,0.4-0.34
				c1.4-1.08,3.04-1.6,4.63-1.6c2.14,0,4.21,0.94,5.57,2.75c0.92,1.23,1.36,2.7,1.36,4.16c0,2.29-1.07,4.59-3.05,6.11
				c-1.42,1.07-3.05,1.6-4.66,1.6c-2.13,0-4.21-0.94-5.55-2.75c-0.92-1.24-1.38-2.7-1.38-4.17c0-0.25,0.01-0.49,0.04-0.74
				c0.06-0.58-0.21-1.14-0.71-1.43l-15.94-9.29c-0.58-0.34-1.31-0.23-1.78,0.24c-2.25,2.28-4.02,4.39-5.1,5.76
				c-0.23,0.28-1.19,1.57-1.19,1.57s-0.01-0.01-0.03-0.02c-0.02,0.05-5.81,6.96-9.46,9.38c-2.76,1.83-8.04,5.31-10.98,7.25
				c-0.61,0.4-0.32,1.34,0.4,1.34c2.5-0.01,6.21,0.09,7.85,0.66c0.87,0.32,3.04,1.24,5.52,2.31c0.06,0.02,0.11,0.04,0.17,0.06
				c5.08,1.43,8.4,4.09,7.99,4.56c-0.12,0.14-0.29,0.23-0.51,0.24c-3.56,0.16-9.34,0.68-13.77,2.4
				c-6.91,2.67-38.34,20.48-53.55,19.96c-10.6-0.35-24.36-11.26-31.73-17.84c-0.04-0.03-0.07-0.06-0.11-0.09
				c-6.69-4.82-13.16-10.22-21.5-12.52c-6.87-1.91-20.8-2.48-26.97-2.64c-0.81-0.02-1.47,0.62-1.49,1.43
				c-0.01,0.47,0.31,0.89,0.77,0.99c4.19,0.88,12.82,3.13,23.37,8.35c11.84,5.86,16.13,11.66,17.4,13.82
				c0.02,0.04,0.02,0.08,0.04,0.13c0.19,0.24,0.34,0.49,0.42,0.78c0.47,1.71-1.28,4.25-5.69,4.39c-4.42,0.16-6.54-2.68-7.07-3.7
				c-0.54-1-6.54-7.32-12.48-10.11c-4.71-2.21-11.52-4.65-15.38-5.99c-0.88-0.3-1.81,0.29-1.92,1.21c-0.11,0.95-0.24,1.79-0.39,2.47
				c-0.05,0.2-0.09,0.4-0.14,0.6c-0.11,0.45-0.01,0.93,0.29,1.29c2.04,2.42,4.82,5.41,7.65,7.5c5.53,4.06,17.79,8.03,21.7,11.45
				c2.4,2.1,6.8,6.64,9.84,9.83c0.75,0.78,0.05,2.05-1.02,1.86c-1.09-0.19-2.42-0.33-4.05-0.35c-4.23-0.07-5.94,0.32-6.62,0.6
				c-0.16,0.06-0.32,0.07-0.47,0.03c-0.07,0.19-0.22,0.35-0.43,0.43c-0.63,0.23-1.9,0.71-3.78,1.45c-2.12,0.84-3.02,1.52-3.35,1.8
				c-0.11,0.1-0.26,0.16-0.41,0.17l-0.17,0.02c-0.03,0.17-0.11,0.34-0.26,0.46c-1.01,0.74-2.86,2.16-3.79,3.1
				c-0.84,0.86-1.99,2.82-2.7,4.11c-0.34,0.62-1.17,0.77-1.7,0.3c-1.28-1.11-3.61-2.98-6.15-4.42c-3.86-2.16-12.58-3.4-16.43-7.09
				c-2.05-1.97-4.16-4.52-5.68-6.48c-0.52-0.67-1.51-0.75-2.13-0.17c-2.1,1.92-4.07,3.75-5.58,5.22c-4.02,3.93-8.1,9.09-9.98,11.55
				c-0.56,0.73-1.65,0.77-2.26,0.07c-0.73-0.84-1.69-1.97-2.57-3.08c-1.06-1.33-2.12-2.12-2.69-2.86c-0.05-0.06-0.1-0.11-0.15-0.17
				c-1.2-1.11-3.33-2.91-5.87-4.25c-3.13-1.64-4.61-1.6-5.1-1.51c-0.13,0.02-0.27,0.02-0.39-0.02c-0.09,0.07-0.2,0.12-0.31,0.14
				c-0.99,0.15-3.4,0.61-7.09,1.99c-2.33,0.86-4.05,1.93-5.23,2.83c-0.58,0.44-1.37-0.15-1.12-0.83
				c1.59-4.26,5.73-13.03,15.07-21.33c13-11.54,19.27-12.51,20.71-14.45c0.33-0.44,0.51-1.95,0.6-4.02c0.04-1-0.91-1.76-1.87-1.47
				c-4.39,1.31-11.68,3.77-15.95,6.76c-7.92,5.56-14.15,9.04-14.53,10.03c-0.38,1-3.26,2.93-7.76,3.02
				c-4.48,0.06-6.39-2.62-6.39-3.94c0-0.34,0.23-0.73,0.63-1.12c1.26-1.88,4.81-5.92,14.05-10.44c6.87-3.36,15.61-7.35,22.5-10.15
				c1.12-0.45,1.24-2.01,0.19-2.6c-1.8-1.01-4.01-1.77-6.83-1.35c-4.87,0.71-11.76,1.91-17.24,6.37c-1.38,1.12-2.73,2.15-3.96,2.99
				c-0.23,0.15-0.46,0.16-0.65,0.09c-0.43-0.18-0.93-0.02-1.3,0.26c-1.24,0.97-2.47,1.77-3.2,1.8c-1.88,0.06-1.42-1.54-8.26,2.31
				c-6.84,3.85-8.82,12.11-13.77,15.59c-4.95,3.49-12.4,8.56-15.79,3.66c-3.38-4.89,10.08-10.92,5.87-17.24
				c-2.43-3.63-13.39,13.24-18.11,15.94c-4.71,2.71-14.45,4.12-17.57-2.17c-3.23-6.51,14.22-11.57,8.59-18.09
				c-4.04-4.68-13.92,7.64-17.23,9.41c-3.31,1.78-16.32,4.15-18.18-1.42c-1.86-5.6,16.2-10.92,8.33-14.59
				c-7.06-3.3-16.95,4.2-19.78,4.67c-2.82,0.46-3.5-4.2-4.03-5.25c-0.53-1.04-1.71,1.5-3.54,2.2c-1.82,0.7-7.65,0.81-8.41,0.31
				c-0.75-0.5-0.11-1.58-0.11-1.58s0.06-0.09,0.17-0.25c-0.11,0.15-0.19,0.25-0.19,0.25s0.08-0.11,0.22-0.29
				c0.3-0.43,0.93-1.3,1.87-2.38c2.11-2.61,5.44-6.45,8.11-8.29c2.51-1.73,5.39-2.36,7.58-2.76c1.16-0.21,1.6-1.64,0.76-2.47
				c-1.38-1.38-3.13-3.09-5.04-4.92c-0.29-0.28-0.69-0.43-1.09-0.41l-16.59,0.84c-0.84,0.04-1.46,0.79-1.37,1.63
				c0.07,0.63,0.1,1.26,0.1,1.87c0,1.77-0.3,3.43-1.1,4.68c-0.81,1.28-2.18,2.09-4.03,2.08c-0.31,0-0.63-0.02-0.97-0.07
				c-1.68-0.2-2.91-0.76-3.8-1.53c-0.89-0.77-1.4-1.74-1.7-2.7c-0.02-0.07-0.04-0.14-0.05-0.21c-1.24,0.61-2.72,0.96-4.3,0.96
				c-2.13,0-4.06-0.63-5.49-1.66c-1.42-1.03-2.36-2.51-2.36-4.19c0-1.7,0.94-3.17,2.36-4.2c1.43-1.04,3.36-1.65,5.49-1.65
				c0.51,0,1.01,0.04,1.49,0.11c-0.18-0.64-0.3-1.3-0.31-1.97c-0.01-1.38,0.53-2.81,1.86-4.16c0.96-0.98,2.06-1.44,3.16-1.43
				c1.88,0,3.63,1.24,5.11,2.97c0.94,1.1,1.78,2.41,2.46,3.8c0.27,0.54,0.85,0.85,1.45,0.78l9.54-1.03c1.35-0.15,1.8-1.91,0.66-2.66
				c-6.64-4.39-15.47-7.72-21.52-8.92c-7.49-1.48-12.05,6.67-18.5,5.13c-6.45-1.54,1.77-3.89-1.28-9.69
				c-3.04-5.81-10.4,4.94-17.1,5.24c-6.69,0.32-19.78-11.04-19.6-18.2c0.18-7.17,19.53,2.96,24.77-3.1
				c5.24-6.03-21.48-3.82-26.16-6.6c-4.69-2.79-12.91-9.25-10.41-16.91c2.49-7.65,11.8,4.87,20.45,1.55
				c8.64-3.33-21.48-14.07-19.96-17.54c1.19-2.69,8.66-1.9,12.26-1.57l0.17,0.02c-0.01-0.01-0.02-0.01-0.03-0.02
				c-0.06-0.01-0.1-0.01-0.16-0.01l-0.06-0.05c0,0-5.55-3.42-11.2-7.49c-0.23-0.17-0.51-0.26-0.8-0.28l-18.46-0.69
				c-0.59-0.02-1.15,0.32-1.38,0.86c-1.52,3.51-4.48,6.05-7.77,6.07c-0.32,0-0.64-0.02-0.95-0.06c-1.84-0.29-2.98-1.14-3.61-2.13
				c-0.63-1-0.75-2.08-0.76-2.89c0-0.41,0.03-0.73,0.06-0.93c0.05-0.46,0.26-0.82,0.53-1.22c-0.52,0.05-1.05,0.07-1.6,0.07
				c-3.25-0.02-6.04-0.86-7.4-2.3c-0.46-0.48-0.75-1.08-0.75-1.73c0-0.65,0.3-1.25,0.75-1.74c0.45-0.48,1.07-0.89,1.8-1.23
				c1.47-0.67,3.43-1.07,5.6-1.07c0.5,0,1,0.03,1.47,0.07c0.87,0.08,1.63-0.64,1.57-1.51c-0.01-0.16-0.02-0.32-0.02-0.48
				c0-0.43,0.03-0.83,0.15-1.19c0.27-0.92,0.73-1.61,1.4-2.04c0.68-0.43,1.49-0.57,2.46-0.57l0.39,0c2.29,0.09,4.25,1.28,5.61,3.08
				c0.98,1.29,1.66,2.9,1.96,4.65c0.13,0.74,0.78,1.27,1.53,1.22l9.84-0.68c-0.48-0.43-0.95-0.86-1.42-1.29
				c-0.09-0.08-0.2-0.16-0.29-0.24c-6.7-5.71-17.34-16.98-20.39-19.29c-3.04-2.31-10.95-2.01-13.38-2.01
				c-2.44,0-13.85-0.91-12.48-7.41c1.37-6.48,15.82-0.61,16.89-5.09c1.06-4.47-17.95-2.31-22.82-4.17
				c-4.87-1.86-11.41-6.02-12.17-16.05c-0.77-10.04,18.1,3.7,20.99,0.3c2.89-3.39-14.46-7.4-21.91-9.26
				c-7.46-1.85-9.44-7.72-8.67-11.88c0.76-4.16,13.69,0.17,15.36-1.54c1.68-1.7-7.15-8.48-5.63-11.11c1.07-1.83,3.54-0.05,5.71,0.82
				c0.94,0.38,1.96-0.32,1.98-1.33l0.07-3.29c0-0.03,0-0.06,0.01-0.09l0.03-0.24c-0.03,0.16-0.05,0.26-0.05,0.26
				c0.02-0.1,0.44-2.64,0.56-9.13c0.01-0.44-0.18-0.86-0.51-1.14l-16.16-13.87c-0.52-0.44-1.28-0.47-1.82-0.06
				c-1.76,1.35-3.5,2.01-5.2,2.01c-1.33,0-2.6-0.39-3.79-1.1c-1.39-0.8-1.92-1.99-1.9-3.04c0.01-1.69,1.1-2.99,1.12-3.03l0.05-0.05
				l0.06-0.05c0,0,0.02-0.02,0.05-0.04c-0.87-0.24-1.75-0.6-2.61-1.1c-2.8-1.6-4.65-4.07-4.66-6.37c0-0.59,0.13-1.19,0.42-1.71
				c0.76-1.36,2.32-1.97,4.05-1.97c1.54,0,3.3,0.48,4.96,1.42c0.57,0.33,1.11,0.7,1.59,1.09c0.6,0.49,1.48,0.41,1.99-0.17
				c0.36-0.41,0.83-0.8,1.42-1.13c1-0.56,2.01-0.8,2.91-0.8c2.06,0,3.67,1.21,4.13,2.7c0.23,0.75,0.48,2.06,0.48,3.63
				c0,1.3-0.19,2.79-0.73,4.25c-0.25,0.66,0,1.41,0.61,1.77l9.22,5.53c1.16,0.7,2.57-0.43,2.14-1.72
				c-2.43-7.22-6.22-14.15-7.88-16.16c-2.55-3.09-7.42-4.21-11.08-8.77c-3.65-4.56-1.34-5.18-3.9-7.41
				c-2.55-2.22-23.24-11.61-18.25-20.74c4.99-9.14,14.24,4.32,18.01,2.59c3.77-1.73-8.15-15.56-9.01-18.52
				c-0.86-2.96,0.36-10.49,5.84-11.97c5.48-1.48,7.91,9.26,10.71,7.04c2.8-2.22,0.85-9.75,1.7-14.69c0.86-4.93,5.48-9.25,7.55-10.99
				c2.07-1.72,3.89,5.3,5.47,5.43c5.46,0.43,3.89-5.18,10.46-7.77c2.58-1.02,3.78-0.64,4.21,0.32c2.84,2.8,0.8,3.44,0.92,8.71
				c0.12,5.31-10.34,13.7-9.01,17.77c1.34,4.08,16.11-9.13,15.58-0.98c-0.85,13.08-15.95,13.21-19.59,22.6
				c-3.65,9.37,12.04-4.58,15.46,0.85c3.41,5.43-12.9,15.8-14.61,20.37c-1.71,4.57,3.41-1.11,3.77,2.34
				c0.36,3.46-2.79,4.21-4.02,11.98c-0.9,5.74,0.73,10.02,2.82,15.7c0.41,1.11,1.9,1.3,2.57,0.32l6.07-8.86
				c0.41-0.59,0.32-1.4-0.21-1.89c-2.25-2.09-3.34-4.28-3.34-6.51c0-1.08,0.25-2.13,0.7-3.17c0.71-1.71,2.06-2.31,3.19-2.28
				c1.45,0,2.63,0.78,2.67,0.8l0.06,0.05l0.05,0.05c0,0,0.42,0.47,1.04,1.07c0.15-1.74,0.83-3.69,1.86-5.36
				c1.55-2.44,3.76-4,5.81-4.02c0.61,0,1.22,0.16,1.74,0.49c1.11,0.73,1.6,2.05,1.6,3.52c0,1.53-0.53,3.28-1.55,4.92
				c-0.82,1.3-1.94,2.48-3.11,3.33l-0.02,0.02c1.09,0.24,2.27,0.79,3.22,2.16c0.83,1.16,1.17,2.35,1.17,3.43
				c0,1.83-0.94,3.31-2.2,3.88c-0.94,0.41-2.81,0.99-5.02,0.99c-0.9,0-1.86-0.1-2.82-0.35c-0.71-0.19-1.45,0.15-1.74,0.83
				l-8.03,18.98c-0.1,0.23-0.13,0.48-0.1,0.73c0.63,5.23,0.41,10.45,0.17,13.48c-0.03,0.4,0.11,0.78,0.38,1.08
				c2.45,2.82,4.44,7.58,5.84,7.68c2.13,0.15,3.5-9.11,6.54-9.89c3.04-0.77,4.11,0.94,6.09,5.72c1.98,4.79-2.59,13.74,0.31,17.28
				c2.89,3.54,5.47-16.52,11.56-17.14c6.09-0.62,6.38,3.86,9.44,10.95c3.04,7.1-2.9,24.24-1.07,27.17
				c1.83,2.93,8.98-9.72,11.26-7.57c2.28,2.16-4.42,19.3-6.09,29.02c-1.42,8.2,1.97,13.68,3.05,15.19c0.03,0.04,0.06,0.07,0.09,0.11
				c1.65,1.89,4.08,4.42,7.58,7.59c0.93,0.84,2.42,0.2,2.44-1.05l0.23-9.96c0.01-0.6-0.34-1.15-0.89-1.37
				c-0.99-0.4-1.9-0.89-2.66-1.49c-1.57-1.24-2.57-2.96-2.57-5.1c0-0.41,0.04-0.82,0.1-1.24c0.22-1.43,0.98-2.45,1.96-3.04
				c0.97-0.61,2.14-0.82,3.3-0.82c0.55,0,1.1,0.06,1.63,0.14c-0.31-0.95-0.5-2.01-0.5-3.13c0-1.95,0.52-3.73,1.39-5.05
				c0.86-1.32,2.12-2.22,3.57-2.22c1.46,0,2.71,0.9,3.58,2.22c0.86,1.32,1.38,3.09,1.38,5.05c0,0.76-0.08,1.5-0.24,2.19
				c-0.16,0.74,0.3,1.46,1.02,1.67c0.48,0.14,0.94,0.36,1.38,0.7c0.88,0.7,1.55,1.82,1.93,3.49c0.09,0.4,0.13,0.8,0.13,1.17
				c0,2.16-1.44,3.85-3.33,4.95c-1.17,0.67-2.53,1.15-3.93,1.42c-0.69,0.13-1.18,0.75-1.17,1.46l0.38,16.97
				c0.01,0.44,0.23,0.87,0.58,1.13c1.75,1.33,3.3,2.44,4.62,3.33c0.98,0.66,2.29-0.05,2.27-1.23c-0.05-3.07,0.37-6.57,0.75-8.53
				c0.1-1.66,0.61-3.08,1.89-3.39c2.51-0.62,1.9,5.71,3.04,7.42c1.14,1.7,1.83-0.94,3.88-0.09s1.37,9.73,6.16,9.57
				c4.79-0.15,0.53-12.57,3.58-14.2c3.05-1.62,7.07,3.16,8.67,9.8c1.6,6.64-4.18,21.15,1.15,24.85c5.33,3.7,4.87-13.26,6.84-16.14
				c1.98-2.86,10.58,2.63,14.23,10.51c3.65,7.86-0.84,26.31,2.51,28.31c3.34,2,5.25-8.02,8.6-8.18c3.35-0.16,1.51,13.66,3.57,20.21
				c1.28,4.09,4.8,7.43,7.28,9.36c0.17,0.14,0.25,0.31,0.27,0.49c0.97,0.58,1.81,1.07,2.36,1.34c1.78,0.89,3.3,1.8,6.14,4.43
				c0.99,0.91,2.58,0.13,2.45-1.21l-0.96-9.65c-0.25,0.01-0.5,0.02-0.76,0.02c-2.14,0-4.26-0.56-5.88-1.61
				c-1.61-1.05-2.75-2.68-2.75-4.69l0-0.07c0-1.47,0.61-2.52,1.54-3.08c0.36-0.22,0.76-0.37,1.18-0.48c0.82-0.2,1.27-1.05,1.03-1.85
				c-0.21-0.7-0.33-1.47-0.33-2.27c0-1.74,0.53-3.32,1.39-4.48c0.87-1.17,2.12-1.95,3.52-1.95c1.44,0.01,2.8,0.84,3.81,2.08
				c1.02,1.23,1.71,2.89,1.71,4.65c0,0.4-0.04,0.78-0.11,1.15c0.68-0.39,1.39-0.67,2.17-0.67c1.01-0.01,2.01,0.52,2.89,1.68
				c0.64,0.82,0.93,1.77,0.93,2.72c-0.01,1.83-1.03,3.65-2.51,5.17c-0.66,0.68-1.43,1.29-2.25,1.81c-0.49,0.31-0.74,0.9-0.63,1.48
				l3.57,19.68c0.07,0.38,0.28,0.71,0.59,0.93c0.15,0.11,0.3,0.21,0.44,0.31c0.4,0.28,0.91,0.32,1.36,0.15
				c1.37-0.5,3.67-0.87,7.58-1.3c8.44-0.91,17.63,15.48,19.77,9.03c2.21-6.64-7.23-8.41-7.91-10.42c-0.68-2,0.08-5.48,9.21-5.25
				c9.13,0.24,21.68,21.55,25.63,19.76c3.96-1.76-7.83-14.19-7.38-16.28c0.46-2.08,2.12-3.84,11.49-3.24
				c13.31,0.85,17.65,21.6,23.2,21.06c1.57-0.15-0.99-10.1,2.59-9.8c3.58,0.31,6.01,9.42,12.02,12.03c2.41,1.06,3.66,0.25,4.62,0.23
				c0.13-0.01,0.25-0.03,0.38-0.04c3.56-0.91,12.35-4.53,27.81-5.12c3.71-0.14,8.35,1.23,11.65,2.43c0.97,0.35,1.99-0.38,1.97-1.41
				c-0.05-1.86-0.06-3.18,0-3.56c0.29-1.77,1.85-1.93,2.92-2.08c1.07-0.15,7.62-0.02,7.62-0.02l12.73-0.13l0-0.02
				c0,0,7.68-0.46,8.75,0.73c1.06,1.19,0.91,2.51,0.95,2.9c0.01,0.08,0.03,1.03,0.05,2.51c0.01,0.82,0.69,1.48,1.51,1.45
				c2.89-0.13,8.3-0.16,15.5,0.69c9.42,1.12,12.56,4.25,20.47,5.18c0.72,0.08,1.41,0.15,2.09,0.2c0.14-0.01,0.26-0.02,0.4-0.03
				c1.82-0.36,10.67-2.33,18.95-7.57c9.28-5.87,13.38-15.11,21.9-20.21c8.53-5.09,17.8-6.33,26.94-6.49c4.25-0.07,9.01,1,12.87,2.17
				c0.19,0.06,0.33,0.17,0.41,0.3c0.2,0.33,0.5,0.57,0.87,0.67l2.12,0.57l2.23,0.65c1.01,0.29,1.39,1.52,0.73,2.33
				c-0.74,0.89-1.79,2.06-3.18,3.36c-0.38,0.35-0.76,0.69-1.15,1.01c0.55,1.32,0.52,1.25,1.06,2.57c2.08-0.22,4.18-0.35,6.29-0.39
				c5.02-0.08,9.75,1.4,13.21,2.95l0.09,0.02c0,0,0.05,0.01,0.16,0.06c0.78,0.32,1.67-0.1,1.93-0.91c0.4-1.27,1.05-2.84,2.07-4.16
				c0.59-0.77,1.78-1.95,3.26-3.3c0.33-0.3,0.5-0.72,0.48-1.16l-0.94-18.45c-0.13,0.01-0.26,0.02-0.39,0.02
				c-4.1-0.02-7.45-3.19-7.45-7.18c0-3.97,3.35-7.14,7.45-7.14c4.1,0,7.46,3.17,7.46,7.14c0,1.86-0.74,3.54-1.94,4.81
				c-0.37,0.4-0.5,0.97-0.31,1.48l3.94,11.17c0.33,0.92,1.46,1.27,2.24,0.69c0.84-0.62,1.6-1.16,2.23-1.58
				c1.3-0.86,3.16-2.07,3.22-2.11c1.91-1.65,5.55-5.78,7.81-14.56c1.38-5.33-0.36-5.7,2.74-15.73c3.09-10.03,28.6-27.48,33.78-33.96
				c1.01-1.27,1.77-2.52,2.34-3.72c0.02-0.05,1.11-3.07,1.11-3.07c0.04-0.16,0.09-0.32,0.12-0.48c0.03-0.13,0.09-0.23,0.16-0.32
				l0.55-1.53c0.09-0.25,4.16,1.25,3.33,10.97c-0.47,5.44-1.34,8.9-2.02,10.89c-0.23,0.66,0.51,1.23,1.09,0.84
				c2.99-2.01,8.73-5.77,13.65-8.5c8.13-4.69,12.54-5.1,14.62-4.81c0.26,0.04,0.45,0.19,0.55,0.39c0.06,0,0.14,0.01,0.2,0.01
				c0.15,0.01,0.29-0.01,0.42-0.09c1.16-0.67,3.28-1.99,5.43-3.83c0.56-0.48,0.68-1.29,0.28-1.91l-11.89-18.48
				c-0.31-0.48-0.87-0.73-1.43-0.65c-0.34,0.05-0.69,0.08-1.05,0.08c-4.05,0-7.33-3.33-7.33-7.43c0-4.1,3.27-7.43,7.33-7.43
				c4.04,0,7.31,3.33,7.31,7.43c0,1.53-0.46,2.95-1.24,4.14c-0.36,0.55-0.34,1.26,0.09,1.76l12.24,14.47
				c0.63,0.75,1.81,0.67,2.34-0.15c0.98-1.51,1.61-2.6,1.98-3.54c-0.1,0.1-0.15,0.13-0.15,0.13s-0.16-9.1-0.6-18.2
				c-0.45-9.11-5.63-19.6-6.25-28.87c-0.6-9.24,4.57-21.45,16.73-31.17c8.13-6.5,14.7-9.62,18.17-10.97
				c0.33-0.13,0.63-0.01,0.81,0.2l0.19-0.11c0.57-0.34,1.27,0.2,1.07,0.84c-0.37,1.2-0.79,2.76-0.91,4.03
				c-0.1,1.03-0.15,2.4-0.19,3.62c-0.02,0.95,1.17,1.38,1.76,0.63c2.68-3.44,7.73-9.57,10.75-11.05c0.13-0.06,0.24-0.12,0.37-0.18
				c0.75-0.53,1.46-0.97,2.11-1.33c0.26-0.14,0.46-0.34,0.6-0.6c0.8-1.56,1.86-3.99,2.64-7.16c0.12-0.49-0.03-1.02-0.39-1.38
				L1810.94,943c-0.42-0.42-1.04-0.53-1.59-0.31c-0.81,0.33-1.7,0.51-2.62,0.51c-3.92,0-7.09-3.23-7.09-7.19
				c0-3.98,3.17-7.2,7.09-7.2c3.91,0,7.09,3.22,7.09,7.2c0,0.47-0.05,0.93-0.13,1.38c-0.11,0.58,0.12,1.18,0.61,1.51l8.34,5.59
				c0.94,0.63,2.2-0.01,2.27-1.13c0.11-1.79,0.14-2.97,0.14-2.97l0.14-7.46c0.01-0.36-0.14-0.69-0.36-0.98
				c-0.07-0.1-0.12-0.22-0.13-0.37c-0.22-2.63-0.57-5.34-1.09-7.35c-1.42-5.45-6.7-6.38-10.25-15.84
				c-3.55-9.46-0.11-21.4,0.91-30.45c1.02-9.06-4.86-16.73-4.24-16.25c0.14-0.32,0.48-0.54,0.88-0.41
				c2.14,0.67,5.91,2.71,10.21,8.92c2.65,3.82,4.56,8.25,5.9,12.21c0.5,1.47,2.63,1.25,2.82-0.29c0.98-7.73,2.59-15.31,4.72-20.44
				c2.66-6.38,7.36-12.14,9.56-14.64c0.25-0.29,0.63-0.31,0.91-0.15c0.3-0.34,0.88-0.34,1.15,0.09c1.37,2.15,4.14,6.98,6.28,13.8
				c1.92,6.06,2.98,10.88,3.49,13.54c0.06,0.32,0.29,0.51,0.55,0.56c0.22-1.91,0.52-3.47,0.99-4.45c1.26-2.62,2.69-4.55,3.68-5.73
				c0.44-0.52,1.28-0.2,1.28,0.47c0,0.1,0,0.22,0,0.33c0.13,0.1,0.23,0.24,0.26,0.43c0.11,0.57,0.27,1.26,0.47,2.11
				C1864.23,872.43,1873.73,877.91,1872.3,895.89z"/>
		</g>
		<g id="XMLID_00000030445646563961662050000017800135289531521949_">
			<path class="st1" d="M1437.68,969.53c-0.15-0.17-0.3-0.34-0.44-0.51c0.07,0.17,0.14,0.35,0.19,0.52
				C1437.51,969.53,1437.6,969.53,1437.68,969.53z"/>
		</g>
		<g id="XMLID_00000067195865014515198930000002295797696339274652_">
			<path class="st1" d="M1514.54,1183.74c0.48,0.12,1.04,0.26,1.67,0.43l-1.65-0.72
				C1514.55,1183.54,1514.54,1183.64,1514.54,1183.74z"/>
		</g>
	</g>
</g>
</svg>
