<?xml version="1.0" encoding="utf-8"?>
<!-- Generator: Adobe Illustrator 27.5.0, SVG Export Plug-In . SVG Version: 6.00 Build 0)  -->
<svg version="1.1" id="Logo" xmlns="http://www.w3.org/2000/svg" xmlns:xlink="http://www.w3.org/1999/xlink" x="0px" y="0px"
	 viewBox="0 0 168.06 166.88" style="enable-background:new 0 0 168.06 166.88;" xml:space="preserve">
<style type="text/css">
	.st0{fill:#FFCC80;}
	.st1{fill:#525D7D;}
</style>
<g id="XMLID_00000024705736961602349940000004043219115858885533_">
	<path id="XMLID_00000171692127152727867690000008033763442138711195_" class="st0" d="M63.86,135.1c1.18,1.88,3.04,3.42,5.6,4.24
		c5.36,1.7,10.98,2.14,16.63,1.64c0.77,1.49,2.11,2.64,4.12,2.98c8.96,1.52,17.78,2.56,25.82-2.6c8.03-5.15,13.97-13.85,19.71-21.27
		c1.96-2.54,1.07-5.62-0.85-7.13c11.43-15.43,14.17-35.15,5.43-53.08c-0.72-1.48-1.82-2.64-3.12-3.5c0.07-3.85-1.45-7.54-5.41-11.57
		c-5.93-6.04-14.83-8.48-23.87-8.28c0.1-2.93-1.38-6-4.64-6.97c-12.23-3.64-25.1-3.11-36.87,1.99c-0.72,0.31-1.47,0.67-2.25,1.05
		c-9.3,2.89-17.45,7.84-22.32,15.95c-23.98,14.53-15.48,50.37-2.66,69.72C44.99,126.99,53.72,133.61,63.86,135.1z M75.07,43.51
		c0.88-0.33,1.75-0.61,2.63-0.88c2.68-0.36,5.43-0.56,8.2-0.62c-1.43,0.38-2.86,0.76-4.28,1.13c-4.38,1.16-8.74,2.4-13.1,3.65
		C71.61,45.09,74.27,43.81,75.07,43.51z M68.23,77.4c1.1-4.61,3.51-10.04,2.58-14.15c9.21-3.29,18.5-6.23,27.93-8.74
		c5.6-1.36,11.21-2.7,16.85-4.02c0.86-0.18,1.58-0.51,2.21-0.92c0.28,0.32,0.59,0.6,0.85,0.94c3.25,4.36,1.97,0.73,0.45,4.09
		c-2.97,6.53-7.1,11.46-8.92,18.95c-1.94,7.98-3.54,16.31-4.85,24.46c-0.07,0.12-0.14,0.25-0.21,0.37c-1.65-0.44-3.48-0.53-5.45-0.1
		c-14.21,3.09-28.02,22.62-41.79,13.71C63.83,101.19,65.39,89.31,68.23,77.4z M56.92,70.03c-0.93,2.54-1.98,5.07-3.01,7.59
		c-0.05-2.08-0.14-4.15-0.28-6.22C54.7,70.92,55.85,70.43,56.92,70.03z"/>
	<path id="XMLID_00000111886853733386635800000015977885487482664611_" class="st1" d="M146.18,141.24
		c14.52-17.87,21.88-36.33,21.88-54.88c0-13.61-6.7-39.34-9.08-43.68c-10.43-19.12-31.01-34.05-55.05-39.92
		C26.34-16.2-27.45,66.49,14.86,127.98c16.24,25.24,47.31,39.87,77.39,38.86c0,0,6.56-0.5,7.44-0.59
		C118.39,163.9,134.85,155.19,146.18,141.24z M21.06,123.85C-17.5,67.79,31.21-7.34,102.17,10c21.74,5.31,44.75,20.47,51.97,41.04
		c2.19,6.24,6.47,26.09,6.47,35.32c0,16.79-6.8,33.68-20.21,50.18C109.44,174.64,45.41,161.68,21.06,123.85z"/>
	<path id="XMLID_00000038401341713520035830000014875574982684314290_" class="st1" d="M146.14,55.46
		C134.72,22.82,81.58,2.99,46.15,26.82c-56.82,38.22-26.41,123.8,42.14,123.8c42.79,0,63.37-39.3,63.37-64.85
		C151.66,77.37,148.03,60.85,146.14,55.46z M128.3,125.22c-24.2,29.78-74.53,19.8-93.75-10.05C4.31,71.22,42.43,12.1,98.28,25.75
		c17.23,4.21,31.94,14.76,39.39,28.25C149.02,84.37,145.13,104.5,128.3,125.22z"/>
	<path id="XMLID_00000054229630670627771180000005213715623836574892_" class="st1" d="M112.99,50.31
		c-16.47,4.18-29.72,8-41.71,12.05c-0.92,0.31-1.62,1.01-2.3,2.5c-0.13,0.24-0.24,0.48-0.32,0.74c-2.01,5.12-4.12,17.61-11.34,47.6
		c-0.73,3.04,2.39,5.57,5.21,4.24c11.64-5.48,25.2-11.76,38.99-17.18c-0.03,0.01-0.05,0.01-0.08,0.01c0.7-0.21,1.34-0.6,1.83-1.19
		c0.51-0.63,0.83-1.22,0.88-1.89c0.65-1.81,1.3-4.27,1.56-5.12c3.62-12.15,7.36-24.72,11.71-36.89
		C118.41,52.38,115.89,49.57,112.99,50.31z M66.32,107.43c2.46-10.72,4.88-22.04,7.86-33.55c7.3,7.54,16.56,16.93,23.19,25.06
		c-0.94-0.96-1.91-2.27-3.18-3.75C84.48,99.14,75,103.4,66.32,107.43z M99.22,100.25c0.48,0.16,0.99,0.21,1.49,0.17
		C100.16,100.48,99.67,100.42,99.22,100.25z M102.51,93.37c0.13,0.17,0.24,0.34,0.36,0.51C102.76,93.72,102.64,93.55,102.51,93.37z
		 M102.93,93.98c0.48,0.69,0.85,1.35,1.04,1.97C103.78,95.38,103.45,94.74,102.93,93.98z M98.84,89.02
		C94.44,84.18,86.95,76.61,75,63.96c-1.55-1.64-3.52-1.44-4.88-0.42c1.36-1.03,3.33-1.23,4.88,0.42c1.21,1.28,2.45,2.54,3.67,3.81
		c8.78-2.83,18.35-5.6,29.44-8.51C104.75,69.2,101.75,79.23,98.84,89.02z"/>
</g>
</svg>
