<?xml version="1.0" encoding="utf-8"?>
<!-- Generator: Adobe Illustrator 27.5.0, SVG Export Plug-In . SVG Version: 6.00 Build 0)  -->
<svg version="1.1" id="Logo" xmlns="http://www.w3.org/2000/svg" xmlns:xlink="http://www.w3.org/1999/xlink" x="0px" y="0px"
	 viewBox="0 0 285.63 274.37" style="enable-background:new 0 0 285.63 274.37;" xml:space="preserve">
<style type="text/css">
	.st0{fill:#FFCC80;}
	.st1{fill:#E0DFE6;}
	.st2{fill:#525D7D;stroke:#525D7D;stroke-width:3;stroke-miterlimit:10;}
</style>
<g id="XMLID_00000177476034211606373680000016790297412998280855_">
	<path id="XMLID_00000078017463717493630650000018236676552978380957_" class="st0" d="M218.01,96.9
		c-12.7-0.59-20.74,13.01-17.53,24.42c3.27,11.65,16.11,17,26.84,11.64c11.19-5.58,12.48-20.41,4.3-28.77
		C228.71,100.06,223.99,97.18,218.01,96.9z M220.59,121.86c-1.71,0.01-3.53-0.73-4.63-2c-0.37-0.42-0.69-0.97-0.96-1.6
		c-0.08-3.93,4.22-8.51,7.69-4.75c0.46,0.5,0.8,1.02,1.05,1.56C223.83,117.72,222.69,120.51,220.59,121.86z"/>
	<path id="XMLID_00000025404761987895034340000001233376605445178794_" class="st1" d="M120.51,208.58
		c0.47,0.28,0.97,0.47,1.47,0.56c1.81,0.59,3.76,0.83,5.77,0.9c9.08,2.5,20.38,0.84,29.4-0.11c9.83-1.03,10.33-15.87,0-15.71
		c-2.28,0.03-4.55,0.1-6.82,0.2c-8.33-0.04-16.95-0.83-24.84,0.83c-2.79,0.59-4.35,2.31-4.93,4.37c-1.05,0.71-1.9,1.74-2.12,2.98
		c-0.04,0.23-0.08,0.46-0.12,0.69c-0.28,1.56-0.13,3.42,1.2,4.53c0.12,0.1,0.24,0.2,0.36,0.3c0.2,0.16,0.4,0.3,0.6,0.43
		C120.46,208.57,120.49,208.57,120.51,208.58z"/>
	<path id="XMLID_00000020376458334257942960000015940991495997747341_" class="st1" d="M99.27,177.81
		c12.46,2.37,24.7,3.41,37.37,3.7c12.38,0.28,26.13,2.12,38.32-0.06c4.09-0.73,3.98-7.34,0-8.15c-12.14-2.48-25.95-0.94-38.32-0.95
		c-12.65-0.01-24.84,0.9-37.37,2.7C97.87,175.25,97.93,177.55,99.27,177.81z"/>
	<path id="XMLID_00000122681062530772017050000013252291000763200406_" class="st1" d="M70.82,85.47c5.28-0.47,7.26-8.57,1.34-9.88
		c-4.82-1.07-9.84-0.41-14.75-0.29c-4.68,0.11-9.45-0.17-14.07,0.65c-2.68,0.47-2.08,4.08,0,4.85c4.39,1.63,9.34,2.11,13.96,2.93
		C61.71,84.52,66.35,85.87,70.82,85.47z"/>
	<path id="XMLID_00000076574810779952787110000007496532175646449043_" class="st1" d="M71.72,195.6c22.6-0.77,45.2-1.45,67.81-2.04
		c45.15-1.18,90.48-2.94,135.65-2.36c5.71,0.07,5.7-9.06,0-8.86c-45.18,1.56-90.45,1.45-135.65,2.63
		c-22.12,0.58-44.25,1.24-66.36,1.99c-21.92,0.74-45.42-0.35-66.69,5.54c-1.17,0.32-1.3,2.25,0,2.5
		C27.66,199.01,50.28,196.33,71.72,195.6z"/>
	<path id="XMLID_00000031912136101956004020000002091711048679286925_" class="st1" d="M101.25,253.03
		c-2.97,1.11-2.82,6.06,0.8,5.89c1.86-0.09,3.85,0.04,5.32,1.29c1.88,1.59,2.89,3.7,4.95,5.17c5.03,3.59,10.42-3.21,7.93-7.93
		C117.05,251.36,106.98,250.89,101.25,253.03z"/>
	<path id="XMLID_00000054969676232918711320000001981555233537243307_" class="st1" d="M181.85,261.83c1.62,0.33,3.06,0.98,4.61,1.5
		c2.44,0.82,4.17,0.34,6.46-0.68c2.62-1.18,3.49-5.27,1.98-7.56c-3.2-4.84-8.52-4.32-13.66-3.32c-3.98,0.78-8.89,2.49-11.61,5.63
		c-1.49,1.71-0.57,4.7,1.93,4.66C175.08,262,178.29,261.1,181.85,261.83z"/>
	<path id="XMLID_00000070809948975939625070000010967357633911366571_" class="st2" d="M40.95,76.13
		c10.31,0.13,20.55-0.46,30.62,0.17c0.65,0.04,1.29-0.19,1.77-0.63c1.43-1.34,0.73-2.42,0.12-30.22c-0.03-1.21-0.97-2.21-2.18-2.31
		c-9.97-0.8-19.91-0.98-31.79-1c-1.3-0.07-2.49,1.14-2.36,2.57C39.3,69.5,36.71,76.07,40.95,76.13z M68.78,47.69
		c0.2,7.83,0.53,15.88,0.57,23.74c-8.72-0.38-17.42,0-26.15-0.03c-0.49-8.19-0.54-16.28-1.14-24.54
		C51.87,46.92,60.39,47.1,68.78,47.69z"/>
	<path id="XMLID_00000015338844312702341330000016337776424668721282_" class="st2" d="M45.08,56.25
		c4.5,3.64,8.16,10.68,10.89,10.68c1.36,0,1.87-0.89,4.5-3.4c2.37-2.25,4.82-4.58,7.15-7c2.17-2.25-1.24-5.53-3.41-3.28
		c-2.57,2.67-5.34,5.27-8.2,8c-4.33-4.74-8.57-11.69-11.28-8.32C43.91,53.93,44.07,55.42,45.08,56.25z"/>
	<path id="XMLID_00000135692524389518801040000011224706077521060537_" class="st2" d="M201.44,55.82l0.06-0.07
		c2.49,2.08,6.26-1.7,3.78-4.4C203.6,47.48,196.79,52.11,201.44,55.82z"/>
	<path id="XMLID_00000008129548499044236040000001729481619250732695_" class="st2" d="M222.51,49.73c-2.11-0.01-3.3,1.38-3.3,3.02
		c0,3.87,5.67,4.03,5.37,0.49C225.44,51.68,224.31,49.74,222.51,49.73z"/>
	<path id="XMLID_00000158726366104738000650000007034722683192277131_" class="st2" d="M240.53,49.32c-1.71,0-3.05,1.3-3.05,2.96
		c0,3.56,4.3,3.91,4.9,1.11C243.85,51.9,242.82,49.32,240.53,49.32z"/>
	<path id="XMLID_00000084490618246561406650000002628075666298118806_" class="st2" d="M88.29,112.75
		c-2.23,0.78-4.47,1.68-6.65,2.67c-3.12,1.43-0.97,6.16,2.16,4.73c2.04-0.93,4.12-1.77,6.2-2.49
		C93.24,116.53,91.53,111.62,88.29,112.75z"/>
	<path id="XMLID_00000121261700227116427260000013590960360358384826_" class="st2" d="M190.71,133.99c2.43-0.41,4.82-1.01,7.1-1.77
		c1.16-0.38,1.85-1.5,1.76-2.66c4.14,5.71,11.11,9.95,19.84,9.95c14.76,0,22.48-16.36,22.48-25.13c0-10.35-13.4-22.31-25.61-20.64
		c-14.37,1.96-26.69,19.24-17.88,34.03c-0.06-0.1-0.14-0.2-0.2-0.3c-0.61-0.32-1.34-0.41-2.04-0.18c-2.03,0.68-4.16,1.2-6.33,1.57
		C186.47,129.44,187.32,134.56,190.71,133.99z M218.79,98.77c8.04,0,17.92,8.61,17.92,15.61c0,6.76-6.1,19.93-17.28,19.93
		c-8.9,0-18.82-6.95-18.82-16.93C200.6,107.92,209.69,98.77,218.79,98.77z"/>
	<path id="XMLID_00000073722750573302448850000017461156458221207941_" class="st2" d="M104.01,109.14
		c-3.43,0.39-2.81,5.56,0.59,5.16c2.21-0.25,4.44-0.39,6.64-0.4c3.47-0.03,3.34-5.25-0.04-5.2
		C108.81,108.72,106.39,108.87,104.01,109.14z"/>
	<path id="XMLID_00000072987093691206602590000012287983016433534366_" class="st2" d="M127.26,110.54c-1.4-0.35-2.8,0.5-3.15,1.89
		c-0.35,1.39,0.5,2.8,1.89,3.15c2.11,0.53,4.18,1.17,6.32,1.97c3.21,1.2,5.04-3.66,1.82-4.87
		C131.82,111.81,129.57,111.11,127.26,110.54z"/>
	<path id="XMLID_00000108992712163859038650000010814800528439760791_" class="st2" d="M148.52,119.53
		c-1.28-0.68-2.84-0.2-3.52,1.07c-0.68,1.27-0.19,2.84,1.07,3.52c2.05,1.09,4.1,2.19,6.19,3.23c3.07,1.53,5.39-3.12,2.32-4.65
		C152.53,121.67,150.53,120.6,148.52,119.53z"/>
	<path id="XMLID_00000053532481872584220930000013214558929616023685_" class="st2" d="M51.13,139.7c-1.46,1.9-2.84,3.87-4.1,5.87
		c-1.84,2.9,2.55,5.68,4.39,2.78c1.18-1.87,2.47-3.71,3.83-5.48C57.34,140.14,53.22,136.98,51.13,139.7z"/>
	<path id="XMLID_00000020372847677547576630000016763781831494800022_" class="st2" d="M168.56,128c-1.39-0.34-2.8,0.52-3.14,1.92
		c-0.34,1.39,0.52,2.8,1.92,3.13c2.32,0.56,4.72,0.99,7.12,1.26c3.4,0.4,4.01-4.77,0.59-5.16C172.86,128.9,170.67,128.51,168.56,128
		z"/>
	<path id="XMLID_00000160158100449472075570000014525530089885226163_" class="st2" d="M67.76,123.55c-1.92,1.39-3.8,2.89-5.6,4.45
		c-2.59,2.25,0.81,6.18,3.41,3.92c1.68-1.46,3.45-2.87,5.24-4.17c1.16-0.84,1.42-2.47,0.57-3.63
		C70.54,122.96,68.92,122.7,67.76,123.55z"/>
	<path id="XMLID_00000026129183929119995060000013506738618585556614_" class="st2" d="M263.38,140.48c-0.25,0.27-0.41,0.6-0.5,0.95
		C262.97,141.02,263.14,140.7,263.38,140.48z"/>
	<path id="XMLID_00000127761250738843959210000009574807101445558933_" class="st2" d="M262.83,141.7
		c-0.04,0.33-0.02,0.66,0.07,0.98c-0.08-0.24-0.12-0.49-0.11-0.76C262.79,141.84,262.82,141.78,262.83,141.7z"/>
	<path id="XMLID_00000157286612163591357280000016432193259671654792_" class="st2" d="M262.94,142.83
		c-0.01-0.02-0.02-0.04-0.03-0.07C262.92,142.78,262.94,142.81,262.94,142.83z"/>
	<path id="XMLID_00000177468797562996689160000016981469888505900448_" class="st2" d="M155.87,17.29c-0.23,0.1-0.47,0.17-0.73,0.18
		c-0.27,0.02-0.52-0.02-0.76-0.09C154.86,17.51,155.4,17.47,155.87,17.29z"/>
	<path id="XMLID_00000048462747389620087130000017455098121965992838_" class="st2" d="M156.02,17.22
		c-0.03,0.01-0.05,0.03-0.08,0.04C155.97,17.25,156,17.23,156.02,17.22z"/>
	<path id="XMLID_00000078751446352316406950000000205912810191772093_" class="st2" d="M154.23,17.33c0.03,0.01,0.05,0.02,0.08,0.03
		C154.28,17.36,154.26,17.34,154.23,17.33z"/>
	<path id="XMLID_00000111184252082641958470000011583832908616345255_" class="st2" d="M152.61,8.59c0.01,1.4,0.06,3.11,0.11,4.56
		c-9.61,0.16-19.19,0.35-28.7,0.54c-0.06-1.88-0.16-4.37-0.3-6.27C133.11,7.85,142.85,8.7,152.61,8.59z"/>
	<path id="XMLID_00000047742897588316769760000016089794120958174089_" class="st2" d="M124.07,15.9c0.01,1.46-1.1,2.19-2.2,2.18
		C122.97,18.08,124.08,17.35,124.07,15.9z"/>
	<path id="XMLID_00000131336515777089698760000003857858433664758922_" class="st2" d="M170.27,168.16
		c2.01-0.05,3.74-0.52,3.74,6.34c0,1.45-0.08,3.28-0.05,4.81c-0.03-0.56-0.01-1.15,0-1.7c-24.48,0.26-48.82,0.33-72.88,0.36
		l0.03,0.53c-0.06-0.94-0.15-2.35-0.75-11.95C132.9,166.33,170.27,168.16,170.27,168.16z"/>
	<path id="XMLID_00000075868890640444886060000012100878856919097007_" class="st2" d="M101.19,180.03c0.01,0.16,0,0.32-0.02,0.47
		C101.2,180.34,101.21,180.19,101.19,180.03c-0.04-0.6-0.06-0.93-0.08-1.22L101.19,180.03z"/>
	<path id="XMLID_00000102520538460800233000000001872439625514782623_" class="st2" d="M101.14,180.63c-0.02,0.1-0.05,0.2-0.08,0.3
		C101.09,180.84,101.12,180.74,101.14,180.63z"/>
	<path id="XMLID_00000157988120184425538670000002913193319657780611_" class="st2" d="M101,181.05c-0.04,0.1-0.09,0.19-0.15,0.28
		C100.91,181.25,100.95,181.15,101,181.05z"/>
	<path id="XMLID_00000103242932626577342740000017253849863647214734_" class="st2" d="M100.79,181.43
		c-0.06,0.09-0.13,0.18-0.21,0.25C100.65,181.6,100.72,181.51,100.79,181.43z"/>
	<path id="XMLID_00000041282974501105882430000004927448575390891428_" class="st2" d="M100.49,181.76
		c-0.07,0.07-0.15,0.13-0.23,0.19C100.34,181.89,100.42,181.83,100.49,181.76z"/>
	<path id="XMLID_00000031894481287168964690000013177425462027176102_" class="st2" d="M123.19,191.22c0.1-0.01,0.19-0.04,0.3-0.04
		L7.21,192.69c-0.06-3.09-0.13-6.51-0.25-10.05c30.09-0.26,60.2-0.26,92.03-0.3c-0.97-0.01-1.5-0.44-1.81-1.06
		c0.38,0.62,1.04,1.05,1.81,1.06c0.09,0,0.17-0.01,0.25-0.02c-0.03,0-0.06,0.01-0.09,0.02c25.33-0.03,51.03-0.1,76.89-0.38
		c-0.07,0-0.11-0.03-0.17-0.03c0.37,0.04,0.75-0.01,1.1-0.14c-0.2,0.08-0.42,0.15-0.65,0.17c28.41-0.31,60.35-0.98,89.42-2.12
		c0.05,0,0.1,0,0.15-0.01c3.62-0.14,7.2-0.29,10.71-0.45c0.62,6.45,0.72,7.4,0.95,9.8l-129.78,1.68c0,0,0,0,0.01,0
		c-0.03,0-0.06,0.01-0.09,0.01c0.02,0,0.04-0.01,0.06-0.01l-24.26,0.31C123.38,191.19,123.29,191.21,123.19,191.22z"/>
	<path id="XMLID_00000176761733373761917090000004143140508951062149_" class="st2" d="M121.73,192.2c0.09-0.14,0.18-0.27,0.28-0.38
		C121.91,191.92,121.82,192.06,121.73,192.2z"/>
	<path id="XMLID_00000106868130118079819790000005419652110166775961_" class="st2" d="M122.13,191.7c0.09-0.08,0.17-0.17,0.28-0.24
		C122.31,191.53,122.22,191.62,122.13,191.7z"/>
	<path id="XMLID_00000100378524200718572430000003185320349763880369_" class="st2" d="M122.54,191.41
		c0.11-0.06,0.22-0.12,0.35-0.15C122.76,191.29,122.65,191.35,122.54,191.41z"/>
	<path id="XMLID_00000072238853692151749140000006077973873151307952_" class="st2" d="M100.11,182.04
		c-0.06,0.04-0.12,0.07-0.19,0.1C99.98,182.11,100.05,182.08,100.11,182.04z"/>
	<path id="XMLID_00000115493394876991908900000005523167933471635620_" class="st2" d="M99.66,182.24
		c-0.04,0.01-0.08,0.03-0.12,0.04C99.58,182.27,99.62,182.25,99.66,182.24z"/>
	<path id="XMLID_00000044173959261684050780000013027891162119896496_" class="st2" d="M174.65,181.41c0.12,0.11,0.25,0.2,0.39,0.27
		C174.89,181.6,174.76,181.52,174.65,181.41z"/>
	<path id="XMLID_00000065045885749870542060000000399490877067724169_" class="st2" d="M175.06,181.69
		c0.17,0.09,0.36,0.15,0.55,0.19C175.4,181.84,175.22,181.78,175.06,181.69z"/>
	<path id="XMLID_00000160163213110877101860000000801367865803644340_" class="st2" d="M177.19,181.69
		c-0.04,0.02-0.08,0.04-0.12,0.06C177.11,181.74,177.15,181.71,177.19,181.69z"/>
	<path id="XMLID_00000085214325100761310300000004916380121439553723_" class="st2" d="M149.98,193.35
		c0.01-0.06,0.01-0.12,0.01-0.18C149.99,193.23,149.99,193.29,149.98,193.35z"/>
	<path id="XMLID_00000026859899425716909430000007392013463122316191_" class="st2" d="M149.99,192.86
		c-0.01-0.06-0.01-0.13-0.02-0.19C149.98,192.73,149.99,192.8,149.99,192.86z"/>
	<path id="XMLID_00000027564336938078544710000005884037839705751431_" class="st2" d="M149.88,192.36
		c-0.02-0.05-0.03-0.1-0.05-0.14C149.86,192.26,149.87,192.31,149.88,192.36z"/>
	<path id="XMLID_00000098192037526177211090000003802852572891101315_" class="st2" d="M149.61,191.8c0,0-0.01-0.01-0.01-0.01
		C149.6,191.79,149.61,191.79,149.61,191.8z"/>
	<path id="XMLID_00000101792361538522584000000005048451400916814755_" class="st2" d="M149.29,191.44
		c-0.04-0.04-0.08-0.07-0.12-0.1C149.21,191.38,149.25,191.41,149.29,191.44z"/>
	<path id="XMLID_00000176008974998328276350000009002870688314122905_" class="st2" d="M148.91,191.17
		c-0.06-0.03-0.12-0.06-0.18-0.09C148.79,191.1,148.85,191.13,148.91,191.17z"/>
	<path id="XMLID_00000034798355204598111630000004609517245434221703_" class="st2" d="M148.45,190.97
		c-0.06-0.02-0.12-0.04-0.18-0.05C148.33,190.93,148.39,190.95,148.45,190.97z"/>
	<path id="XMLID_00000166658131297195296550000017744609861468307104_" class="st2" d="M147.31,190.94
		c-0.29,0.07-0.57,0.21-0.81,0.39C146.73,191.13,146.99,191,147.31,190.94z"/>
	<path id="XMLID_00000028312290778613599950000017149656719833194910_" class="st2" d="M145.69,192.53
		c-0.2,0.52-0.53,1.37-0.94,2.45C145.12,193.98,145.41,193.16,145.69,192.53z"/>
	<path id="XMLID_00000178180379103837640320000001954334465616478879_" class="st2" d="M142.2,204.36
		c-0.12,0.03-0.23,0.08-0.34,0.13C141.97,204.44,142.09,204.39,142.2,204.36z"/>
	<path id="XMLID_00000119100573578838635330000009265976522619610766_" class="st2" d="M141.82,204.51
		c-0.17,0.08-0.32,0.19-0.47,0.3C141.5,204.69,141.65,204.59,141.82,204.51z"/>
	<path id="XMLID_00000162330857312364074080000008825332079909038752_" class="st2" d="M141.09,205.06
		c-0.02,0.02-0.04,0.04-0.06,0.07C141.05,205.1,141.07,205.08,141.09,205.06z"/>
	<path id="XMLID_00000057139569047942369000000010016790499819434414_" class="st2" d="M140.69,207.09c0.03,0.09,0.06,0.19,0.1,0.28
		c0.1,0.22,1.8,3.84,2.22,4.74C141.73,209.39,140.95,208.06,140.69,207.09z"/>
	<path id="XMLID_00000001643340871770165690000014008217493914340016_" class="st2" d="M158.76,234.94
		c-4.66-9.32-8.99-18.67-14.02-29.41l0.39,0.83c1.93-5.21,3.93-10.46,4.73-12.52c-0.18,0.46-0.35,0.92-0.53,1.37l11.45-0.15
		c9.56,21.31,20.65,42.54,30.83,64.52c1.01,0.07,1.98,0.17,2.92,0.29c-0.96-0.12-1.93-0.22-2.92-0.29
		c-6.68-0.47-13.54,0.13-19.72,2.14c0.21-0.07,0.41-0.15,0.62-0.21C167.15,251.13,163.14,243.7,158.76,234.94z"/>
	<path id="XMLID_00000062897981402377676990000017858673086523723152_" class="st2" d="M171.18,261.98
		c-0.38,0.13-0.76,0.27-1.13,0.42C170.42,262.25,170.8,262.12,171.18,261.98z"/>
	<path id="XMLID_00000078750215492964590050000006849042179669941907_" class="st2" d="M195.74,260.04
		c0.32,0.05,0.65,0.08,0.97,0.13c-4.82-10.51-9.96-21.01-14.94-31.17c-4.28-8.75-11.99-24.45-17.59-37.02
		c-0.64-1.43-2.1-1.55-3.12-0.95c1.02-0.6,2.48-0.48,3.12,0.95c0.45,1.01,0.92,2.02,1.38,3.03l114.42-1.48
		c0.61-0.01,1.19-0.27,1.59-0.72c0.41-0.45,0.61-1.05,0.55-1.66c-0.26-2.78-0.53-5.56-0.8-8.34l-0.57-5.89
		c-0.11-1.16-1.13-2.02-2.27-1.97c-31.88,1.45-68.38,2.27-100.16,2.64c0,0.26-0.01,0.48-0.01,0.7c0-0.56,0.02-1.14,0.03-1.7
		c0.29-11.83-3.3-12.88-8.88-12.76c-3.07-0.17-36.94-1.92-71.45-1.59c-1.25,0.01-2.24,1.07-2.16,2.32
		c0.99,15.77,0.81,12.91,0.96,15.34c-0.07-0.63-0.08-1.29-0.12-1.89c-37.47,0.04-59.75,0.01-73.08,0.04
		C22.55,125.22,20.35,73,17.98,19.74c80.88-0.38,161.43-4.12,242.17-2.38c0.36,52.18,2.32,105.21,3.42,158.17
		c1.45-0.06,2.91-0.12,4.36-0.17c-0.21-10.3-0.46-20.71-0.72-31.08c1.44,0.05,3.1,0.11,3.51,0.12c2.96,0,2.96-4.27,0.14-4.36
		c-0.79-0.02-4.01-0.14-5.28-0.19c0.54,0,1.08,0.04,1.53,0.05c-1.08-41.97-2.34-83.85-2.59-124.69c-0.01-1.18-0.95-2.14-2.13-2.17
		c-35.38-0.81-70.18-0.55-105.29,0.03c0.03,0.71,0.06,1.4,0.1,2.08c-0.19-3.09-0.22-5.87-0.21-8.78c0.01-1.28-1.09-2.26-2.24-2.19
		c-11.02,0.3-22.22-0.81-33.31-1.23c-1.35-0.04-2.38,1.1-2.25,2.39c0.35,3.61,0.53,9.06,0.55,10.59c-0.01-0.73-0.05-1.44-0.07-2.16
		c-34.16,0.7-69.23,1.47-103.94,1.61c-1.24,0-2.23,1.04-2.17,2.28c2.41,53.98,4.65,106.89,5.73,160.36
		c-16.15,0.05-15.47,0.24-16.14,0.94c-0.41,0.43-0.62,1-0.6,1.59c0.2,5.15,0.3,10.15,0.37,14.37c0.02,1.19,0.99,2.15,2.18,2.15
		c0.03,0,115.21-1.49,115.21-1.49c0.59-1.48,0.95-2.57,1.39-3.3c-0.43,0.73-0.79,1.82-1.39,3.3c-7.57,18.88-14.31,37.59-22.16,59.62
		c1.39,0.31,2.79,0.71,4.2,1.21c7.31-20.53,14.6-40.82,22.7-60.89l19.62-0.25c-1.02,2.69-2.5,6.6-3.83,10.19
		c-0.1,0.18-0.18,0.37-0.21,0.58c-1.56,4.23-3.1,8.46-4.61,12.61c-5.7,15.68-11.6,31.85-18.49,47.34c1.09,1.03,2.19,2.13,3.29,3.34
		c7.26-16.11,13.39-32.92,19.3-49.19c0.96-2.65,1.94-5.33,2.93-8.02c0.04,0.09,0.07,0.16,0.09,0.19
		c3.75,8.02,7.63,16.31,11.76,24.58c4.28,8.56,8.08,15.62,13.55,26.18L195.74,260.04z"/>
	<path id="XMLID_00000047034031898930429430000011627566994829409183_" class="st2" d="M154.02,54.22
		c-1.72-0.02-3.44-0.05-5.14-0.05l-29.76-0.27c-3.24-0.01-6.51,0.05-9.67,0.12c-1.75,0.04-3.5,0.07-5.26,0.1l-6.24,0.12
		c-1.31,0.02-2.35,1.1-2.32,2.41c0.02,1.29,1.08,2.32,2.36,2.32c0.01,0,0.03,0,0.04,0l6.23-0.11c1.76-0.02,3.52-0.06,5.29-0.1
		c3.14-0.07,6.37-0.13,9.54-0.12l29.77,0.27c1.7,0,3.4,0.02,5.1,0.05c1.75,0.02,3.54,0.05,5.32,0.05c1.5,0,3-0.02,4.49-0.06
		l8.91-0.16c-1.61,1.59-3.14,3.32-4.35,5.39c-0.66,1.13-0.28,2.58,0.85,3.24c0.38,0.22,0.79,0.32,1.19,0.32
		c0.81,0,1.61-0.42,2.05-1.17c1.6-2.74,4-4.89,6.55-7.17c0.49-0.44,0.98-0.88,1.47-1.32c1.05-0.96,1.02-2.64-0.08-3.56
		c-3.53-2.95-6.41-5.01-9.6-8.04c-0.95-0.9-2.45-0.86-3.35,0.09c-1.87,1.97-0.02,3.6,4.86,7.5l-8.63,0.16
		C160.46,54.3,157.19,54.26,154.02,54.22z"/>
</g>
</svg>
