<?xml version="1.0" encoding="utf-8"?>
<!-- Generator: Adobe Illustrator 27.5.0, SVG Export Plug-In . SVG Version: 6.00 Build 0)  -->
<svg version="1.1" id="Logo" xmlns="http://www.w3.org/2000/svg" xmlns:xlink="http://www.w3.org/1999/xlink" x="0px" y="0px"
	 viewBox="0 0 210.63 210.28" style="enable-background:new 0 0 210.63 210.28;" xml:space="preserve">
<style type="text/css">
	.st0{fill:#FFCC80;}
	.st1{fill:#E0DFE6;}
	.st2{fill:#525D7D;}
</style>
<g id="XMLID_00000137810232672840222150000006778029818722605987_">
	<path id="XMLID_00000060749260556298170860000009106744531136252586_" class="st0" d="M19.18,25.31c1.91,1.15,3.87,1.76,5.99,2.41
		c1.04,0.32,2.14,0.81,3.21,0.99c0.53,0.16,1.06,0.33,1.59,0.49c0.32,0.6,0.5,1.33,0.63,2.13c-3.22-0.84-6.48-1.77-9.03-3.97
		c-2.03-1.75-5.59-0.12-4.74,2.76c0.1,0.34,0.23,0.67,0.35,1c-0.11,0-0.22-0.03-0.34-0.03c-0.85,0.02-1.57,0.7-1.57,1.57
		c-0.02,2.89,2.01,4.74,3.76,6.88c2.12,2.59,4.29,5.08,6.97,7.09c3.89,2.9,11.92,5.89,15.46,1.47c1.11,0.06,2.19-0.01,3.18-0.26
		c15.78-4.07,3.68-30.81-8.82-30.93c-0.9-0.01-1.79,0.23-2.61,0.61c-3.81-1.48-8.2-2.11-11.33-2.18
		C16.48,15.21,14.71,22.64,19.18,25.31z"/>
	<path id="XMLID_00000057109960358217963900000009316432179581826958_" class="st1" d="M105.21,151.75
		c-1.37-0.66-2.44,1.17-1.19,2.04c5.14,3.57,10.32,3.31,14.72,0.91c-1.28,1.2-2.66,2.23-4.14,2.96c-1.14,0.57-0.86,2.46,0.36,2.73
		c12.86,2.93,23.14-8.42,26.14-20.54c3.02-0.67,5.57-3.47,4.51-7.19c-4.57-16.08-23.64-28.59-40.13-22.14
		c-1.33,0.52-1.35,2.21,0,2.73c5.1,1.97,9.62,4.34,13.7,7.17c-5.25-0.69-9.02,5.57-6.48,10.2c1.85,3.39,3.28,6.07,2.34,10.01
		C114.26,143.91,110.46,154.28,105.21,151.75z"/>
	<path id="XMLID_00000101802307526525938160000015484338946829606549_" class="st1" d="M106.8,85.41
		c9.95,4.91,20.46,7.79,29.8,14.03c5.59,3.73,9.63,8.08,13.29,12.94c0.04,0.27,0.1,0.55,0.2,0.83c4.52,13.12,3.98,30.45-1.56,43.21
		c-7.11,16.38-22.61,22.74-39,26.68c-1.04,0.25-1.06,1.88,0,2.12c19.31,4.43,39.56-4.72,50.18-21.35
		c6.99-10.94,9.69-27.65,6.18-41.4c0.76-1.14,1.14-2.61,0.85-4.29c-4.28-24.73-37.46-39.02-59.85-33.34
		C106.62,84.9,106.55,85.29,106.8,85.41z"/>
	<path id="XMLID_00000040533093226404992030000006782104250358852502_" class="st2" d="M21.17,4.58c-1.04,4.82-2.1,9.77-2.83,14.8
		c-15.16,0.29-16.6-0.1-17.88,2.14c-1.3,2.29-1.21,1.79,18.01,33.57c0.55,0.91,1.51,1.51,2.57,1.61c7.96,0.72,15.89,1.67,24.17,2.86
		c4.85,6.69,9.84,13.57,14.91,20.54c-0.02-0.02-0.04-0.05-0.05-0.07c-22.17,16.6-33.6,44.66-25.87,77.81
		c7.95,34.07,45.07,52.45,75.96,52.45c42.12,0,71.59-41.45,70.57-82.6l-0.51-6.7c-7.14-54.82-74.13-69.58-114.59-44.74
		c1.25,1.72,2.51,3.45,3.77,5.17c38.5-23.19,104.65-6.4,104.65,47.84c0,35.89-25.67,74.31-63.89,74.31
		c-27.22,0-71.69-16.13-71.69-66.18c0-19.69,8.61-39.51,25.36-52.21c4.05,5.56,8.13,11.15,12.23,16.74
		c-0.88-1.19-1.76-2.38-2.63-3.57c-34.7,27.2-20.28,89.55,35.47,89.55c23.52,0,48.91-21.4,48.91-55.98
		c0-41.09-48.58-55.11-78.82-37.35c-9.7-13.25-19.33-26.52-28.49-39.15c0.83-9.2,3.29-24.73,3.29-24.73
		c0-1.92,0.15-0.93-14.04-16.27C26.37-0.07,26.36-0.5,23.93,0.19C21.76,0.81,21.63,2.47,21.17,4.58z M176.92,121.28
		c-1.57,0.14-2.49,1.08-2.85,2.2C174.43,122.36,175.35,121.42,176.92,121.28z M178.37,121.15c-0.13,0.01-0.27,0.02-0.41,0.04
		L178.37,121.15z M180.63,127.69l-0.82,0.07C180.13,127.74,180.38,127.72,180.63,127.69z M178.91,127.85l-0.08,0.01
		C178.86,127.85,178.89,127.85,178.91,127.85z M107.34,93.83c66.78,0,48.28,87.35,1.56,87.35c-18.76,0-41.25-10.93-45.97-31.18
		c-4.62-19.81,2.11-36.55,14.38-46.38c3.99,5.44,7.99,10.86,11.95,16.22c-0.33-0.45-0.67-0.9-1-1.35
		c-16.09,14.37-8.78,44.83,19.27,44.83c29.25,0,37.53-51.63-0.74-51.63c-4.77,0-9.17,1.07-12.97,2.99
		c-4.2-5.67-8.42-11.4-12.63-17.16c0.57,0.77,1.14,1.54,1.7,2.32C89.53,96.08,97.7,93.83,107.34,93.83z M106.78,118.41
		c29.35,0,20.92,38.2,0.74,38.2c-21.6,0-26.11-22.16-15.26-32.73c4.25,5.72,8.46,11.37,12.59,16.84c2.66,3.54,8.04-0.5,5.36-4.04
		c-5.08-6.74-10.27-13.7-15.51-20.77c1.05,1.41,2.11,2.82,3.16,4.24C100.42,119.04,103.39,118.41,106.78,118.41z M46.55,59.74
		c-0.07-0.01-0.14-0.02-0.21-0.03c0.61,0.07,1.16,0.07,1.71-0.1C47.58,59.76,47.07,59.82,46.55,59.74z M48.37,59.49
		c0.24-0.11,0.49-0.23,0.74-0.43C48.88,59.24,48.63,59.38,48.37,59.49z M49.13,59.05c0.26-0.2,0.43-0.42,0.6-0.64
		C49.55,58.65,49.36,58.87,49.13,59.05z M50.38,56.7c-0.04,0.53-0.22,1.02-0.48,1.44c0.28-0.48,0.42-1,0.49-1.59
		C50.39,56.6,50.39,56.65,50.38,56.7z M23.85,24.87c-0.11,0.15-0.25,0.28-0.39,0.4C23.6,25.15,23.73,25.01,23.85,24.87z
		 M24.25,24.19c-0.05,0.12-0.12,0.24-0.18,0.35C24.14,24.42,24.2,24.31,24.25,24.19z M23.29,25.39c-0.38,0.28-0.86,0.47-1.48,0.57
		C22.42,25.84,22.91,25.66,23.29,25.39z M9.06,26.36c6.03-0.2,9.64-0.01,11.87-0.25c6.3,8.65,12.57,17.29,18.83,25.93
		c-4.33-0.55-10.9-1.35-16.41-1.87C18.79,42.65,13.74,34.48,9.06,26.36z M46.87,31.82c-0.78,5.02-1.59,10.25-2.25,15.49
		c0,0,0-0.01,0-0.01c-6.49-8.95-12.98-17.9-19.5-26.86c0.35-2.31,0.75-5.55,1.69-10.1C33.6,17.56,40.07,24.74,46.87,31.82z"/>
</g>
</svg>
