<?xml version="1.0" encoding="utf-8"?>
<!-- Generator: Adobe Illustrator 27.5.0, SVG Export Plug-In . SVG Version: 6.00 Build 0)  -->
<svg version="1.1" id="Ñëîé_1" xmlns="http://www.w3.org/2000/svg" xmlns:xlink="http://www.w3.org/1999/xlink" x="0px" y="0px"
	 viewBox="0 0 826.5 495.9" style="enable-background:new 0 0 826.5 495.9;" xml:space="preserve">
<style type="text/css">
	.st0{fill:#FFFFFF;}
</style>
<g>
	<path id="XMLID_00000148625532656087893610000001309906306625295496_" class="st0" d="M0,0v266.89h374.22V0H0z M313.41,38
		l3.67,11.37h12.03l-9.74,6.98l3.67,11.37l-9.64-7.04l-9.64,7.04l3.67-11.37l-9.74-6.98h12.03L313.41,38z M323.04,175.17l-9.64-7.04
		l-9.64,7.04l3.67-11.37l-9.74-6.98h12.03l3.67-11.37l3.67,11.37h12.03l-9.74,6.98L323.04,175.17z M291.64,202.03l-9.64-7.04
		l-9.64,7.04l3.67-11.37l-9.74-6.98h12.03L282,172.3l3.67,11.37h12.03l-9.74,6.98L291.64,202.03z M260.23,175.17l-9.64-7.04
		l-9.64,7.04l3.67-11.37l-9.74-6.98h12.03l3.67-11.37l3.67,11.37h12.03l-9.74,6.98L260.23,175.17z M228.82,202.03l-9.64-7.04
		l-9.64,7.04l3.67-11.37l-9.74-6.98h12.03l3.67-11.37l3.67,11.37h12.03l-9.74,6.98L228.82,202.03z M197.42,175.17l-9.64-7.04
		l-9.64,7.04l3.67-11.37l-9.74-6.98h12.03l3.67-11.37l3.67,11.37h12.03l-9.74,6.98L197.42,175.17z M166.01,202.03l-9.64-7.04
		l-9.64,7.04l3.67-11.37l-9.74-6.98h12.03l3.67-11.37l3.67,11.37h12.03l-9.74,6.98L166.01,202.03z M134.6,175.17l-9.64-7.04
		l-9.64,7.04L119,163.8l-9.74-6.98h12.03l3.67-11.37l3.67,11.37h12.03l-9.74,6.98L134.6,175.17z M103.19,202.03l-9.64-7.04
		l-9.64,7.04l3.67-11.37l-9.74-6.98h12.03l3.67-11.37l3.67,11.37h12.03l-9.74,6.98L103.19,202.03z M71.79,175.17l-9.64-7.04
		l-9.64,7.04l3.67-11.37l-9.74-6.98h12.03l3.67-11.37l3.67,11.37h12.03l-9.74,6.98L71.79,175.17z M71.79,121.45l-9.64-7.04
		l-9.64,7.04l3.67-11.37l-9.74-6.98h12.03l3.67-11.37l3.67,11.37h12.03l-9.74,6.98L71.79,121.45z M103.19,148.31l-9.64-7.04
		l-9.64,7.04l3.67-11.37l-9.74-6.98h12.03l3.67-11.37l3.67,11.37h12.03l-9.74,6.98L103.19,148.31z M134.6,121.45l-9.64-7.04
		l-9.64,7.04l3.67-11.37l-9.74-6.98h12.03l3.67-11.37l3.67,11.37h12.03l-9.74,6.98L134.6,121.45z M99.52,83.21l3.67,11.37
		l-9.64-7.04l-9.64,7.04l3.67-11.37l-9.74-6.98h12.03l3.67-11.37l3.67,11.37h12.03L99.52,83.21z M166.01,148.31l-9.64-7.04
		l-9.64,7.04l3.67-11.37l-9.74-6.98h12.03l3.67-11.37l3.67,11.37h12.03l-9.74,6.98L166.01,148.31z M197.42,121.45l-9.64-7.04
		l-9.64,7.04l3.67-11.37l-9.74-6.98h12.03l3.67-11.37l3.67,11.37h12.03l-9.74,6.98L197.42,121.45z M162.34,83.21l3.67,11.37
		l-9.64-7.04l-9.64,7.04l3.67-11.37l-9.74-6.98h12.03l3.67-11.37l3.67,11.37h12.03L162.34,83.21z M228.82,148.31l-9.64-7.04
		l-9.64,7.04l3.67-11.37l-9.74-6.98h12.03l3.67-11.37l3.67,11.37h12.03l-9.74,6.98L228.82,148.31z M260.23,121.45l-9.64-7.04
		l-9.64,7.04l3.67-11.37l-9.74-6.98h12.03l3.67-11.37l3.67,11.37h12.03l-9.74,6.98L260.23,121.45z M225.15,83.21l3.67,11.37
		l-9.64-7.04l-9.64,7.04l3.67-11.37l-9.74-6.98h12.03l3.67-11.37l3.67,11.37h12.03L225.15,83.21z M291.64,148.31l-9.64-7.04
		l-9.64,7.04l3.67-11.37l-9.74-6.98h12.03l3.67-11.37l3.67,11.37h12.03l-9.74,6.98L291.64,148.31z M291.64,94.58L282,87.55
		l-9.64,7.04l3.67-11.37l-9.74-6.98h12.03L282,64.86l3.67,11.37h12.03l-9.74,6.98L291.64,94.58z M323.04,121.45l-9.64-7.04
		l-9.64,7.04l3.67-11.37l-9.74-6.98h12.03l3.67-11.37l3.67,11.37h12.03l-9.74,6.98L323.04,121.45z M278.33,22.51L282,11.14
		l3.67,11.37h12.03l-9.74,6.98l3.67,11.37L282,33.83l-9.64,7.04l3.67-11.37l-9.74-6.98H278.33z M250.59,38l3.67,11.37h12.03
		l-9.74,6.98l3.67,11.37l-9.64-7.04l-9.64,7.04l3.67-11.37l-9.74-6.98h12.03L250.59,38z M215.52,22.51l3.67-11.37l3.67,11.37h12.03
		l-9.74,6.98l3.67,11.37l-9.64-7.04l-9.64,7.04l3.67-11.37l-9.74-6.98H215.52z M187.78,38l3.67,11.37h12.03l-9.74,6.98l3.67,11.37
		l-9.64-7.04l-9.64,7.04l3.67-11.37l-9.74-6.98h12.03L187.78,38z M152.7,22.51l3.67-11.37l3.67,11.37h12.03l-9.74,6.98l3.67,11.37
		l-9.64-7.04l-9.64,7.04l3.67-11.37l-9.74-6.98H152.7z M124.97,38l3.67,11.37h12.03l-9.74,6.98l3.67,11.37l-9.64-7.04l-9.64,7.04
		L119,56.35l-9.74-6.98h12.03L124.97,38z M89.89,22.51l3.67-11.37l3.67,11.37h12.03l-9.74,6.98l3.67,11.37l-9.64-7.04l-9.64,7.04
		l3.67-11.37l-9.74-6.98H89.89z M62.15,38l3.67,11.37h12.03l-9.74,6.98l3.67,11.37l-9.64-7.04l-9.64,7.04l3.67-11.37l-9.74-6.98
		h12.03L62.15,38z M27.07,22.51l3.67-11.37l3.67,11.37h12.03l-9.74,6.98l3.67,11.37l-9.64-7.04l-9.64,7.04l3.67-11.37l-9.74-6.98
		H27.07z M27.07,76.23l3.67-11.37l3.67,11.37h12.03l-9.74,6.98l3.67,11.37l-9.64-7.04l-9.64,7.04l3.67-11.37l-9.74-6.98H27.07z
		 M27.07,129.95l3.67-11.37l3.67,11.37h12.03l-9.74,6.98l3.67,11.37l-9.64-7.04l-9.64,7.04l3.67-11.37l-9.74-6.98H27.07z
		 M27.07,183.67l3.67-11.37l3.67,11.37h12.03l-9.74,6.98l3.67,11.37l-9.64-7.04l-9.64,7.04l3.67-11.37l-9.74-6.98H27.07z
		 M40.38,255.75l-9.64-7.04l-9.64,7.04l3.67-11.37l-9.74-6.98h12.03l3.67-11.37l3.67,11.37h12.03l-9.74,6.98L40.38,255.75z
		 M62.15,221.85l-9.64,7.04l3.67-11.37l-9.74-6.98h12.03l3.67-11.37l3.67,11.37h12.03l-9.74,6.98l3.67,11.37L62.15,221.85z
		 M103.19,255.75l-9.64-7.04l-9.64,7.04l3.67-11.37l-9.74-6.98h12.03l3.67-11.37l3.67,11.37h12.03l-9.74,6.98L103.19,255.75z
		 M124.97,221.85l-9.64,7.04l3.67-11.37l-9.74-6.98h12.03l3.67-11.37l3.67,11.37h12.03l-9.74,6.98l3.67,11.37L124.97,221.85z
		 M166.01,255.75l-9.64-7.04l-9.64,7.04l3.67-11.37l-9.74-6.98h12.03l3.67-11.37l3.67,11.37h12.03l-9.74,6.98L166.01,255.75z
		 M187.78,221.85l-9.64,7.04l3.67-11.37l-9.74-6.98h12.03l3.67-11.37l3.67,11.37h12.03l-9.74,6.98l3.67,11.37L187.78,221.85z
		 M228.82,255.75l-9.64-7.04l-9.64,7.04l3.67-11.37l-9.74-6.98h12.03l3.67-11.37l3.67,11.37h12.03l-9.74,6.98L228.82,255.75z
		 M250.59,221.85l-9.64,7.04l3.67-11.37l-9.74-6.98h12.03l3.67-11.37l3.67,11.37h12.03l-9.74,6.98l3.67,11.37L250.59,221.85z
		 M291.64,255.75l-9.64-7.04l-9.64,7.04l3.67-11.37l-9.74-6.98h12.03l3.67-11.37l3.67,11.37h12.03l-9.74,6.98L291.64,255.75z
		 M313.41,221.85l-9.64,7.04l3.67-11.37l-9.74-6.98h12.03l3.67-11.37l3.67,11.37h12.03l-9.74,6.98l3.67,11.37L313.41,221.85z
		 M354.45,255.75l-9.64-7.04l-9.64,7.04l3.67-11.37l-9.74-6.98h12.03l3.67-11.37l3.67,11.37h12.03l-9.74,6.98L354.45,255.75z
		 M350.78,190.66l3.67,11.37l-9.64-7.04l-9.64,7.04l3.67-11.37l-9.74-6.98h12.03l3.67-11.37l3.67,11.37h12.03L350.78,190.66z
		 M350.78,136.94l3.67,11.37l-9.64-7.04l-9.64,7.04l3.67-11.37l-9.74-6.98h12.03l3.67-11.37l3.67,11.37h12.03L350.78,136.94z
		 M350.78,83.21l3.67,11.37l-9.64-7.04l-9.64,7.04l3.67-11.37l-9.74-6.98h12.03l3.67-11.37l3.67,11.37h12.03L350.78,83.21z
		 M350.78,29.49l3.67,11.37l-9.64-7.04l-9.64,7.04l3.67-11.37l-9.74-6.98h12.03l3.67-11.37l3.67,11.37h12.03L350.78,29.49z"/>
	<g id="XMLID_00000177451518812778379100000002681095120136378788_">
		<rect id="XMLID_00000053544297824671778860000012232695800135894662_" x="374.22" class="st0" width="452.28" height="37.88"/>
		
			<rect id="XMLID_00000026880602626416460260000008085957696030803608_" x="374.22" y="76.34" class="st0" width="452.28" height="37.88"/>
		
			<rect id="XMLID_00000125572036416854348570000003882678193803365549_" x="374.22" y="152.67" class="st0" width="452.28" height="37.88"/>
		
			<rect id="XMLID_00000087407657099688314450000000626533351536129201_" x="374.22" y="229.01" class="st0" width="452.28" height="37.88"/>
		<rect id="XMLID_00000021100250012660405140000008379348186661074844_" y="305.35" class="st0" width="826.5" height="37.88"/>
		<rect id="XMLID_00000086683108475733821640000013314668699164459967_" y="381.68" class="st0" width="826.5" height="37.88"/>
		<rect id="XMLID_00000034052999004523162730000011018837290125806720_" y="458.02" class="st0" width="826.5" height="37.88"/>
	</g>
</g>
</svg>
