<?xml version="1.0" encoding="utf-8"?>
<!-- Generator: Adobe Illustrator 27.5.0, SVG Export Plug-In . SVG Version: 6.00 Build 0)  -->
<svg version="1.1" id="Layer_1" xmlns="http://www.w3.org/2000/svg" xmlns:xlink="http://www.w3.org/1999/xlink" x="0px" y="0px"
	 viewBox="0 0 380.2 380" style="enable-background:new 0 0 380.2 380;" xml:space="preserve">
<style type="text/css">
	.st0{fill:none;stroke:#525D7D;stroke-width:5;stroke-miterlimit:10;stroke-dasharray:15.1669,15.1669;}
	.st1{fill-rule:evenodd;clip-rule:evenodd;fill:#525D7D;}
</style>
<g>
	<g id="XMLID_7_">
		<g id="XMLID_46_">
			<circle id="XMLID_47_" class="st0" cx="190.1" cy="190" r="186.7"/>
		</g>
	</g>
	<path id="XMLID_188_" class="st1" d="M151.6,141.1c6.1-3.9,9.9-1.1,12.1,4.9l5.5,14.3c0,0,3.9,7.7-6.1,15.4
		c-1.6,1.1-1.6,1.1-1.1,3.9c2.2,6.6,11,26.4,39,41.8c2.8,1.6,3.3,1.6,6.1-0.6c2.2-2.2,4.9-4.9,7.1-7.1c4.9-4.4,7.7-6.1,12.1-2.8
		c3.3,2.2,6.6,4.9,9.9,7.1c3.3,2.8,8.8,6.1,3.3,12.6l-4.9,6.1c-7.1,8.8-13.2,9.4-22.6,7.1c-35.7-9.4-62.1-34.6-73.7-70.4
		C134.6,159.8,140.1,148.2,151.6,141.1L151.6,141.1z M190.1,82.2c59.9,0,108.3,48.4,108.3,108.3s-48.4,108.3-108.3,108.3
		c-16.5,0-31.9-3.3-45.6-9.9l-57.7,9.9l7.7-57.2l-0.6-1.1c-7.7-14.9-12.1-31.9-12.1-50C81.8,130.6,130.2,82.2,190.1,82.2L190.1,82.2
		z M121.9,274.7l15.4-2.8l9.4-1.6c13.2,7.1,27.5,11,43.4,11c71.3,0,123.6-82.6,66.4-157.1C181.9,67,99.4,119.3,99.4,190.6
		c0,18.1,5.5,34.6,14.3,48.9l-1.1,8.2l-2.2,16.5l-1.7,12.6L121.9,274.7z"/>
</g>
</svg>
