<?xml version="1.0" encoding="utf-8"?>
<!-- Generator: Adobe Illustrator 27.5.0, SVG Export Plug-In . SVG Version: 6.00 Build 0)  -->
<svg version="1.1" id="Layer_1" xmlns="http://www.w3.org/2000/svg" xmlns:xlink="http://www.w3.org/1999/xlink" x="0px" y="0px"
	 viewBox="0 0 380.2 380" style="enable-background:new 0 0 380.2 380;" xml:space="preserve">
<style type="text/css">
	.st0{fill:none;stroke:#525D7D;stroke-width:5;stroke-miterlimit:10;stroke-dasharray:15.1669,15.1669;}
	.st1{fill-rule:evenodd;clip-rule:evenodd;fill:#525D7D;}
</style>
<g>
	<g id="XMLID_11_">
		<g id="XMLID_58_">
			<circle id="XMLID_59_" class="st0" cx="190.1" cy="190" r="186.7"/>
		</g>
	</g>
	<path id="XMLID_00000159465272524953157050000001121707977691710362_" class="st1" d="M295,147.2c-3.3-24.6-15.8-28.8-40.4-30.8
		c-21.2-1.7-45.4-2.5-64.2-2.5c-18.8,0-43.3,0.8-64.2,2.5c-24.6,2.1-37.5,6.2-40.8,30.8c-1.2,11.2-2.1,26.7-2.1,42.5
		s0.8,31.7,2.1,42.5c3.3,25,16.2,28.8,40.8,30.8c20.8,2.1,45.4,2.5,64.2,2.5s42.9-0.4,64.2-2.5c24.6-2.1,37.1-5.8,40.4-30.8
		c1.7-10.8,2.5-26.7,2.5-42.5C297.5,173.9,296.6,158.5,295,147.2z M168.7,222.2v-64.6l55.8,32.1L168.7,222.2z"/>
</g>
</svg>
